<svg viewBox="0 0 1024 1024" xmlns="http://www.w3.org/2000/svg" id="图层_1"><defs><style>.cls-1{fill:#2e88fa;}.cls-2,.cls-3{fill:#142468;}.cls-10,.cls-22,.cls-3,.cls-7{opacity:0.3;}.cls-4{fill:aqua;}.cls-22,.cls-5{fill:#ffdd36;}.cls-6{fill:#267edd;}.cls-8{fill:#ffe1e1;}.cls-9{fill:#f73455;}.cls-10,.cls-13,.cls-19,.cls-20,.cls-23{fill:#fff;}.cls-11{fill:#a0a0a0;}.cls-12{fill:#848484;}.cls-14,.cls-15{fill:none;stroke:#142468;stroke-linecap:round;stroke-linejoin:round;stroke-width:1.94px;}.cls-15{stroke-dasharray:12.36 12.36;}.cls-16{fill:#93223a;}.cls-17{fill:#c64a6a;}.cls-18{fill:#3f3f3f;}.cls-19{opacity:0.4;}.cls-20{opacity:0.6;}.cls-21{fill:#cecece;}.cls-23{opacity:0.5;}</style></defs><title>头像比赛</title><path d="M209.5,1025.3a3.8,3.8,0,0,1-3.8-3.8c-.5-20.4-.8-39.2-1.1-55.9-.9-56.5,6.3-152.7,6.3-153.7a4,4,0,0,1,3.9-3.6l99.5,1.9a3.8,3.8,0,0,1,3.7,3c.6,2.6,14.1,62.8,6.7,96.8-1.4,6.8-2.8,12.5-4.2,17.6a3.9,3.9,0,0,1,2.5-1h.2a3.9,3.9,0,0,1,3.6,3.1c.4,1.6,8.8,40.8.5,71.1v.3a18.9,18.9,0,0,0-.6,1.8,69.1,69.1,0,0,1-8.8,19.5l-.9,1.3a3.8,3.8,0,0,1-3.1,1.6Z" class="cls-1"></path><path d="M214.8,812.2l99.4,1.9s14,61.5,6.7,95.1-13.3,43-24.2,63.1c.2-.1,5.3-2.7,11.7-11.4a98.3,98.3,0,0,0,11-20.3l.3-.7c1.1-2.9,2.2-6,3.3-9.4,0,0,8.7,39.5.6,69.3,0,.1-.1.1-.1.2a12.1,12.1,0,0,1-.5,1.8c-2.7,8.8-5.4,14.2-8.3,18.4l-.8,1.2H209.5c-.3-17.3-.7-36.7-1-55.8-.9-57,6.3-153.4,6.3-153.4m0-7.8a7.7,7.7,0,0,0-7.7,7.2c-.1,1-7.2,97.4-6.4,154.1.3,16.6.7,35.4,1.1,55.9a7.7,7.7,0,0,0,7.7,7.6H313.9a7.6,7.6,0,0,0,6.3-3.3l.7-.9.2-.4h.1a78.1,78.1,0,0,0,9.3-20.5l.5-2h.1c8.5-31.3-.1-71.4-.5-73.1a7.8,7.8,0,0,0-5-5.6c1-3.7,2-7.8,2.9-12.3,7.5-34.9-6.1-95.9-6.7-98.5a7.9,7.9,0,0,0-7.4-6.1l-99.5-1.9Z" class="cls-2"></path><path d="M320.1,1025.3a3.8,3.8,0,0,1-3.5-2.2,4.1,4.1,0,0,1,.5-4.1l.4-.4.4-.6c0-.1,0-.1.1-.1l.7-1.1.6-1a35.8,35.8,0,0,0,2.1-3.9l.7-1.5.4-.9c.5-1,.9-2,1.3-2.9l.4-1.2c.2-.4.8-2.2.8-2.2v-.3a25,25,0,0,0,1-3.1,4,4,0,0,1,3.8-2.8h.3a3.8,3.8,0,0,1,3.5,3.4l.2.9.7,5.1v.4c.4,3.1,1.1,8.1,1.9,14.2a4.1,4.1,0,0,1-1,3,3.9,3.9,0,0,1-2.9,1.3Z" class="cls-1"></path><path d="M329.9,1000.9v.9h0c.1.4.1.9.2,1.6s.1.2.1.3v.3a1.3,1.3,0,0,1,.1.6h0c0,.1.1.3.1.4a1.3,1.3,0,0,0,.1.6v.2c0,.3.1.7.1,1.1s.1.1.1.2c.5,3.6,1.1,8.5,1.8,14.2H320.1l.4-.4.6-.9a10.5,10.5,0,0,0,.8-1.1l.8-1.3a41.3,41.3,0,0,0,2.2-4.2l.8-1.5a3.6,3.6,0,0,1,.4-.9l1.3-3.1a6.1,6.1,0,0,1,.5-1.2,5.6,5.6,0,0,1,.4-1.2,1.9,1.9,0,0,0,.2-.7l.3-.7c.7-2,1.1-3.3,1.1-3.3m0-7.8a7.8,7.8,0,0,0-7.5,5.6h0s-.3,1.2-.9,3v.2l-.2.4v.3a.4.4,0,0,1-.1.3h0l-.4,1c-.1.4-.3.7-.4,1.1a26.1,26.1,0,0,1-1.2,2.8v.3l-.3.5a5.3,5.3,0,0,1-.6,1.3c0,.1,0,.1-.1.2a22.9,22.9,0,0,1-1.9,3.5v.2l-.6.9-.6.8c0,.1-.1.1-.1.2l-.3.5-.3.3a7.9,7.9,0,0,0-1,8.2,7.7,7.7,0,0,0,7,4.4h12.5a8,8,0,0,0,5.8-2.6,7.6,7.6,0,0,0,1.9-6.1c-.7-6-1.4-11-1.8-14.2a4.3,4.3,0,0,1-.1-.5h0a2.5,2.5,0,0,1-.1-.8h-.1v-.6a.8.8,0,0,1-.1-.4v-.3h0a.6.6,0,0,1-.1-.4v-.6c0-.3-.1-.6-.1-.9s-.1-.4-.1-.6v-.3c0-.1-.1-.1-.1-.2v-.2h0v-.2a7.8,7.8,0,0,0-7.1-6.8Z" class="cls-2"></path><path d="M389.1,1025.3a4,4,0,0,1-3.6-2.4,3.9,3.9,0,0,1,1-4.3l1.9-1.8,2.2-2,10.5-9.7,6.4-6,4.9-4.8c23.6-22.6,43-42.6,43.2-42.8a3.9,3.9,0,0,1,2.8-1.1,3.4,3.4,0,0,1,1.4.2,3.8,3.8,0,0,1,2.4,3.6l.4,33.7.4,33.5a3.8,3.8,0,0,1-3.9,3.9Z" class="cls-1"></path><path d="M458.4,954.2l.2,20.8v12.9l.2,14.9.2,18.6h-70l2-1.8,2.2-2,10.4-9.6,6.5-6.1,4.9-4.8h0c24-22.9,43.3-42.9,43.3-42.9m0-7.7a7.9,7.9,0,0,0-5.6,2.3c-.2.2-19.5,20.2-43,42.7l-5,4.7-6.4,6.1-10.4,9.6-1.1,1-1.1,1h0l-2,1.8a7.7,7.7,0,0,0-1.9,8.5,7.6,7.6,0,0,0,7.2,4.9h70a7.5,7.5,0,0,0,5.5-2.3,7.8,7.8,0,0,0,2.3-5.5l-.2-18.7-.2-14.9V975l-.3-20.9a7.7,7.7,0,0,0-4.9-7.1,9.2,9.2,0,0,0-2.8-.5Z" class="cls-2"></path><path d="M471.3,964.2,458.6,975c-11.7,10.2-29.7,26.4-47.3,44h0l-2.5,2.4H389.4l3.9-3.8,10.6-10.5,6.5-6.5,5-5h0l45.4-45.2Z" class="cls-3"></path><path d="M318.7,1008.7c-1.2,4-2.4,7.4-3.6,10.5a4.2,4.2,0,0,1-.4,1,6.1,6.1,0,0,1-.5,1.2H303.5c.5-2.5,1.1-5.2,1.7-8,6.6-30.2,5-45.5,3.2-52.5a25.6,25.6,0,0,0-.9-2.6c3.7-6.8,7.8-10.1,11.2-20.9,0,0,.3,1.2.7,3.2.7,3.8,1.8,10.7,2.6,19.1C323.3,974,323.5,992.9,318.7,1008.7Z" class="cls-3"></path><path d="M330.8,1007.2c.5,3.6,1.1,8.5,1.8,14.2H320.1l.4-.4.6-.9a14.3,14.3,0,0,0,1.6-2.4,41.3,41.3,0,0,0,2.2-4.2l.8-1.5a3.6,3.6,0,0,1,.4-.9l1.3-3.1a6.1,6.1,0,0,1,.5-1.2,5.6,5.6,0,0,1,.4-1.2,1.9,1.9,0,0,0,.2-.7l.3-.7c.7-2,1.1-3.3,1.1-3.3v.9h0a6.3,6.3,0,0,1,.2,1.6c0,.1.1.2.1.3v.3a1.3,1.3,0,0,1,.1.6h0c0,.1.1.3.1.4a1.3,1.3,0,0,0,.1.6v.2c0,.3.1.7.1,1.1S330.8,1007.1,330.8,1007.2Z" class="cls-3"></path><path d="M323.6,999.8c0,.1-.1.1-.1.2a76.7,76.7,0,0,1-8.4,19.2l-1.4,2.2h-5.8c4-10.4,9.3-20.4,12.3-35a103.7,103.7,0,0,0,1.8-26.7c-.5-7.5-1.5-14.2-2.3-19.8l-.3-2c.6-1.6,3.1-8.3,3.6-10.1C323,927.8,332.6,969.9,323.6,999.8Z" class="cls-4"></path><path d="M330.8,1007.2c.5,3.6,1.1,8.6,1.9,14.2h-5.3c-.3-1.6-.4-2.5-.4-2.5a5.3,5.3,0,0,1-.6,2.5h-6.3l.4-.4.6-.9a14.3,14.3,0,0,0,1.6-2.4,41.3,41.3,0,0,0,2.2-4.2l.8-1.5a3.6,3.6,0,0,1,.4-.9l1.3-3.1a6.1,6.1,0,0,1,.5-1.2,5.6,5.6,0,0,1,.4-1.2,1.9,1.9,0,0,0,.2-.7l.3-.7c.7-2,1.1-3.3,1.1-3.3v.9h0a6.3,6.3,0,0,1,.2,1.6c0,.1.1.2.1.3v.3a1.3,1.3,0,0,1,.1.6h0c0,.1.1.3.1.4a1.3,1.3,0,0,0,.1.6v.2c0,.3.1.7.1,1.1S330.8,1007.1,330.8,1007.2Z" class="cls-4"></path><path d="M321.7,905.3l-1.1,16.1s-2.9-57.8-11.1-72.9c-9.4-17.2-27.6-20.7-27.6-20.7l34.4-3.5C319.7,842.2,325.7,880,321.7,905.3Z" class="cls-3"></path><path d="M216.6,919.5s0,30.6,16.8,73.1c0,0-18.3-13.7-24.9-51.6h0c.4-21.8,2.3-62.2,3.4-83.7,2.3,17.8,7.1,70.9,15.4,83.8C223.7,936.1,217.4,928.3,216.6,919.5Z" class="cls-3"></path><path d="M314.9,932.8c-7.9,26.7-19,30.3-19,30.3,15.9-27.9,26-99.5,26-99.5,1.5,15.9,1.8,32.8-1,45.6C318.9,918.8,316.9,926.4,314.9,932.8Z" class="cls-4"></path><path d="M300.9,831s-45.8,3.5-73.2,5.4c-18.4,1.2-12.1,89.4,5.7,117.8,0,0-18.9-91.4-2-107.5C243.8,834.8,279.7,851.3,300.9,831Z" class="cls-5"></path><path d="M210,851.1s8-22.8,20.3-23.2,35.5,5.7,72.6,1.5c15-1.8,17.4,9,17.9,23.6l2-38.9s-83.6,1.7-105.8-3C217,811.1,208,841.7,210,851.1Z" class="cls-2"></path><path d="M499.2,1001.6a2.5,2.5,0,0,1-1.2-.2l-47.2-15.8a4.1,4.1,0,0,1-2.6-4.6c15.7-67.7,42.4-116.7,58.2-141.5-8,7.1-14.5,14.1-14.6,14.2a3.7,3.7,0,0,1-2.9,1.3l-1.4-.2a4,4,0,0,1-2.5-3.6c-.5-69.3,27.2-119.7,28.4-121.9a6.2,6.2,0,0,1,1.4-1.4l68.3-41.1a3.5,3.5,0,0,1,2-.5,3,3,0,0,1,1.3.2,4,4,0,0,1,2.4,2.5l46.5,154.6a3.6,3.6,0,0,1-.8,3.6L502.2,1000.3A4.3,4.3,0,0,1,499.2,1001.6Z" class="cls-6"></path><path d="M585.1,690.1l46.5,154.6-132.4,153L452,981.9c23.3-100.5,70.2-158.4,70.2-158.4-14.2,6.7-33.3,27.6-33.3,27.6-.5-69,27.9-119.9,27.9-119.9l68.3-41.1m0-7.7a7.1,7.1,0,0,0-4,1.1l-68.3,41.1a8.6,8.6,0,0,0-2.8,2.9c-.3.5-7.5,13.6-14.7,35.4a279.2,279.2,0,0,0-14.1,88.3,7.8,7.8,0,0,0,4.9,7.2,9.2,9.2,0,0,0,2.8.5l1.5-.2c-.4.9-.9,1.7-1.4,2.6a482.7,482.7,0,0,0-44.6,118.8,7.7,7.7,0,0,0,5.1,9.1l47.3,15.9a6.7,6.7,0,0,0,2.4.4,7.6,7.6,0,0,0,5.9-2.7l132.3-153a7.5,7.5,0,0,0,1.6-7.3L592.5,687.9a7.8,7.8,0,0,0-4.7-5,6.5,6.5,0,0,0-2.7-.5Z" class="cls-2"></path><g class="cls-7"><path d="M458.2,960.5c16-68.2,58.1-130.7,63.5-136.4-14.4,22.1-24.9,53.1-30.3,61.5C482.3,900,470.3,927,470.3,927Z"></path></g><g class="cls-7"><path d="M511.6,763.4c-4.8,12.9-11.9,63.9-12.2,65.5,1-1.2,18.2-24.1,37.8-28.1,0,0-6.7,9.7-15.2,22.8-14.2,6.9-33.1,27.5-33.1,27.5-.5-69,27.9-119.9,27.9-119.9l15-9,28.1-9.7-22.7,43.3S516.5,750.2,511.6,763.4Z"></path></g><path d="M561,870.8a3.7,3.7,0,0,1-2.1-.6,4.1,4.1,0,0,1-1.8-3.7c4.9-53.1-27.5-125.1-27.9-125.9a4.2,4.2,0,0,1,0-3.1,3.7,3.7,0,0,1,2.3-2.1l6.6-2.4a413,413,0,0,1-54.9,7.8l-5.2.2c-5.8,0-23.6,0-29.1-19.7-3.6-13.7-7.1-20.2-9.9-25.3a45.1,45.1,0,0,1-3.7-8.1.4.4,0,0,1-.1-.3,37.8,37.8,0,0,1-1-5.7,13.3,13.3,0,0,1,2.3-8.9,16.1,16.1,0,0,1-13.4-11.6,55.1,55.1,0,0,1-1.6-10.1c-.3-3.5-.4-4.8-1.8-6.1-21.5-1.2-36.9-14.8-38.6-24.3a4.9,4.9,0,0,1,.6-2.9c24.9-37,18.6-58,14.5-72-4.8-16,.8-46.2,1.9-51.5l-15.3-86.7a3.9,3.9,0,0,1,2.8-4.4l174.2-46.6h1.9l171.2,39.5a3.9,3.9,0,0,1,2.9,2.8L766,516.6a3.9,3.9,0,0,1-.1,2.4L718,639.3c-8.2,44,8.2,128.5,8.3,129.3a3.8,3.8,0,0,1-1.8,4.1L563,870.2A4.1,4.1,0,0,1,561,870.8Z" class="cls-8"></path><path d="M560.8,360.6l171.3,39.5,30.2,117.5-48,120.6c-8.6,45.1,8.2,131.2,8.2,131.2L561,866.9c5-54.8-28.2-127.9-28.2-127.9a209.3,209.3,0,0,0,44.6-21.5c-23.2,9.9-65.7,17.6-94.5,19.4l-4.9.2c-11.1,0-21.5-3.1-25.4-16.9-5.6-21.3-11.2-26-13.6-33.5a28,28,0,0,1-.9-5.3c-.4-3.6,1.7-8.3,5.4-8.7,23-2.6,33.6-6.8,33.6-6.8s-23.2,3.4-37.2,3.4h-1.2c-5.5-.1-10.5-3.6-11.8-8.9-2.8-10.5.1-14.5-5.7-19-20.2-.6-34.8-13.3-36.2-21.2,24.9-37.1,19.8-58.8,14.9-75.3s2.1-50.3,2.1-50.3l-15.4-87.5,174.2-46.5m0-7.8a6.9,6.9,0,0,0-2,.3L384.6,399.6a7.8,7.8,0,0,0-5.6,8.8l15.1,86.1c-1.5,7.5-6.5,36.3-1.6,52.6,4.1,14.1,9.9,33.3-14,68.8a8.1,8.1,0,0,0-1.2,5.7c2.1,11.8,18.8,25.3,40.1,27.3.1.6.1,1.4.2,2.7a67.6,67.6,0,0,0,1.7,10.8A19.7,19.7,0,0,0,431,675.5a15.6,15.6,0,0,0-.6,6.8,40.9,40.9,0,0,0,1,6.1,6.4,6.4,0,0,0,.2.7,49.3,49.3,0,0,0,4,8.7c2.7,5,6,11.2,9.5,24.4v.2c4.2,14.9,15.3,22.5,32.9,22.5l5.4-.2a406.3,406.3,0,0,0,41.6-5.2,9.6,9.6,0,0,0,.7,2.8c.3.7,32.3,71.8,27.5,123.9a8.1,8.1,0,0,0,3.6,7.3,7.9,7.9,0,0,0,4.2,1.2,7.7,7.7,0,0,0,4-1.2L726.5,776a7.8,7.8,0,0,0,3.7-8.1c-.2-.9-16.3-84.2-8.4-127.5l47.7-120a7.9,7.9,0,0,0,.3-4.8L739.6,398.1a8,8,0,0,0-5.8-5.6L562.5,353l-1.7-.2Z" class="cls-2"></path><path d="M714.3,644.8c-2.3,11.8,5.3,80.9,5.8,96.1-30.7,12.4-15.7-36.2-35.9-54.8-7-6.4-30.7-21-47-29.6s-8.7-42.1-8.7-42.1-19-70.3-77.1-68.5-60.3-78.2-64.6-75.5,1.9,50.2-23.1,50.2c-26.6,0-46.7-48.1-46.7-48.1s-8.5,54.5-7.1,68.6c.9,9.3-4.6,13.5-8.5,15.3l-1.5-4.9C395,535,402,501.1,402,501.1l-15.3-87.5,174.1-46.5,171.3,39.5,30.2,117.5Z" class="cls-3"></path><path d="M689.9,669.8a3.7,3.7,0,0,1-2.9-1.4,3.6,3.6,0,0,1-.4-4.4c2.4-4.3,2.2-9.8,1.9-12.8A163.5,163.5,0,0,1,670,662.9a3.7,3.7,0,0,1-4.5-.6,3.8,3.8,0,0,1-.8-4.4c2.9-6.4,2.3-19.3,1.3-27.4-10.3,9.2-19.9,13.6-20.6,13.8a2.8,2.8,0,0,1-1.5.4,4.1,4.1,0,0,1-2.4-.8,3.8,3.8,0,0,1-1.5-3.6,195.1,195.1,0,0,0,1.2-38.8,4.1,4.1,0,0,1,1-3l49.8-54a399.1,399.1,0,0,0,22.1-47.1,229.5,229.5,0,0,1-12.2,22.5,3.9,3.9,0,0,1-3.3,1.7,3.2,3.2,0,0,1-1.4-.3,3.7,3.7,0,0,1-2.3-4.4c5.7-26.4,5.6-48.1,3.3-64.7-3.8,26.6-17.5,48.6-18.4,50a3.8,3.8,0,0,1-3.2,1.8l-1.2-.2a3.8,3.8,0,0,1-2.7-3.9c1.7-40.9-8.7-64.4-17.8-77a56.4,56.4,0,0,0-15.2-14.8c-2.7,40.3-15.5,68.9-26,86.2-12,19.7-23.6,29.1-24.1,29.5a4.1,4.1,0,0,1-2.4.8,3.8,3.8,0,0,1-2.5-.9c-30.1-25.5-31.2-67.8-31.2-69.6v-.5c.5-4.5,1.3-9.1,2.1-13.8-5.5,21.4-6.1,37.5-5,49,2,21.4,10.2,30.9,10.3,31a4,4,0,0,1,.6,4.1,4.1,4.1,0,0,1-3.3,2.4h-.9a50.7,50.7,0,0,1-22.8-6c-12.9-6.9-21.8-19.5-25.6-36.3-8.8-39.2-28.6-58.8-28.8-59a2.7,2.7,0,0,1-.7-.8c-14.4,28.6-10.1,79-10.1,79.6a3.8,3.8,0,0,1-2,3.7,3,3,0,0,1-1.9.5,3.4,3.4,0,0,1-2.2-.7c-29.2-21.4-44-60-46.7-67.5-18.3,34.6-17.3,95.3-17.3,96a3.8,3.8,0,0,1-2.4,3.7,3.2,3.2,0,0,1-1.4.3,3.6,3.6,0,0,1-2.8-1.2c-8.7-9.1-12.9-25.5-14.8-41.9-14.3,35-59.8,38.9-61.9,39.1h-.3a3.9,3.9,0,0,1-3.6-2.5,3.9,3.9,0,0,1,1.3-4.5c.1-.1,20.8-17.1,17.8-67.9-4-69.1,23.4-88.4,26.8-90.5a172.1,172.1,0,0,1-48.6-7.3,3.9,3.9,0,0,1-2.6-4.1,3.8,3.8,0,0,1,3.4-3.4c31.9-4,75-26.8,99.4-68.5,26.8-45.7,66.7-52,70-52.5a63.6,63.6,0,0,1-12.2-20.8,4.1,4.1,0,0,1,1.4-4.4,4.8,4.8,0,0,1,2.3-.7,4,4,0,0,1,2.3.8c9.7,7.3,18.5,10.6,28.6,10.6,8.5,0,17.6-2.3,28.1-4.9,12.5-3.1,28.1-6.9,48-8.2l10.2-.3c40,0,68.5,15.4,85.4,28.3a139.4,139.4,0,0,1,17.2,15.6,5.8,5.8,0,0,1,.5-1.4,4.1,4.1,0,0,1,2.9-1.9,163.4,163.4,0,0,1,16.8-.9c60.6,0,75.5,39.1,76.1,40.8a3.9,3.9,0,0,1-3.6,5.2,3.9,3.9,0,0,1-2.1-.6c-13.9-8.9-27.9-13.4-41.7-13.4a58.6,58.6,0,0,0-7.5.4c20.3,6.3,34.5,26.1,45.9,45.5,16,27.3,45.1,36.1,45.4,36.1a3.9,3.9,0,0,1-.1,7.5,77.4,77.4,0,0,1-20.6,2.6c-3.8,0-6.8-.3-8.5-.4,17,14.1,25.9,31.2,25.8,49.8-.1,45.7,23.8,76.3,24.1,76.6a3.9,3.9,0,0,1-3.1,6.3h-.7a55.1,55.1,0,0,1-28-14.5v.3c-2.7,71.4-35.5,116.8-62.4,142.3-29.3,27.7-57.5,38.3-58.7,38.8Z" class="cls-9"></path><path d="M588.2,210.6c75.3,0,109.7,55.1,109.7,55.1.1-6.2-3.2-14.5-3.2-14.5a133.4,133.4,0,0,1,16.3-.9c58.6,0,72.5,38.2,72.5,38.2-16.9-10.8-31.9-14-43.8-14-17.3,0-28,6.7-28,6.7a39.6,39.6,0,0,1,6.8-.5c27.8,0,45.4,27.1,56.2,45.6,17,28.9,47.7,37.9,47.7,37.9a76.3,76.3,0,0,1-19.6,2.4,69.8,69.8,0,0,1-9.6-.6c-13.4-7.3-40.1-14.3-40.1-14.3s63.3,19.9,63.1,68.2,24.9,79,24.9,79c-32.7-6.2-43.7-41.1-43.7-41.1,1.4,13.5,11.1,30.6,11.1,30.6-5.1,135.5-118.6,177.5-118.6,177.5,4.4-7.7,2-17.8,2-17.8,9.8-6.6,16-21.8,16-21.8-9.1,16.8-39.7,33.2-39.7,33.2,5-10.8,1-34.6,1-34.6,6.2-6.5,11-18.5,11-18.5-12.5,23.9-36.3,34.4-36.3,34.4a203.8,203.8,0,0,0,1.2-39.7l50.1-54.3C743.8,457.2,730,422.9,730,422.9c0,46-31.4,94.9-31.4,94.9,15-68.3-8.8-105.6-8.8-105.6,17.5,39.4-13.2,87.9-13.2,87.9,3.4-82.1-40.4-98.3-40.4-98.3-3.5,82.6-49,118.9-49,118.9-29.1-24.6-29.8-66.6-29.8-66.6,3.7-31.2,17-73.1,17-73.1C522.8,483.1,558,522.4,558,522.4h-.7c-5.1,0-36.1-1.6-44.6-39.2-9.3-41.1-29.9-60.9-29.9-60.9.2-6.7,3.9-13.9,3.9-13.9-27.8,23.3-21.3,95.8-21.3,95.8-31-22.9-45.7-66.9-45.7-66.9a31.9,31.9,0,0,1,4.7-14.7c-30.9,29.3-29,113.3-29,113.3-20.2-20.9-14.2-87.4-14.2-87.4-4.9,13.6-4.8,40.2-4.8,40.2-10.1,39.3-60.8,43.2-60.8,43.2s22.5-17.3,19.4-71.2c-4.1-70.5,25.1-87.1,25.1-87.1,40.7-3.6,62.1-23.8,62.1-23.8-20.2,13-43.2,16.8-63,16.8a168,168,0,0,1-48.6-7.2c29.9-3.7,75.6-24.8,102.3-70.3s67.2-50.6,67.2-50.6c12.2,8.7,28.2,9.2,28.2,9.2-28-6-37.3-35.1-37.3-35.1,11.2,8.5,20.9,11.4,30.9,11.4,19.5,0,40.3-10.8,76.3-13.1l10-.3m0-7.8h0c-3.5,0-7,.1-10.5.4-20.2,1.2-35.9,5.1-48.6,8.3-10.3,2.5-19.2,4.7-27.2,4.7s-17.3-3-26.2-9.8a8.2,8.2,0,0,0-4.7-1.5,7.3,7.3,0,0,0-4.5,1.4,7.7,7.7,0,0,0-2.9,8.7,69.3,69.3,0,0,0,9,17.1c-13.4,3.5-44.3,15.4-66.4,53.1-23.8,40.5-65.6,62.6-96.6,66.5a7.8,7.8,0,0,0-1.5,15.1,178.2,178.2,0,0,0,40,7.2,68.2,68.2,0,0,0-9,13.1c-9.6,18.5-13.6,43.4-11.8,74,1.4,25.5-3.2,41.8-7.3,51s-8.7,13.3-9.2,13.7a7.8,7.8,0,0,0-2.6,8.8,7.9,7.9,0,0,0,7.4,5h.6a99.5,99.5,0,0,0,29-7.4c13.3-5.6,23.6-13.6,30.5-23.5,2.8,14.8,7.5,25.8,14.1,32.6a7.9,7.9,0,0,0,5.6,2.3,7.1,7.1,0,0,0,2.9-.5,7.8,7.8,0,0,0,4.8-7.4c0-.6-.9-52,13.1-86.2,6.3,15,20.8,43.4,44.7,60.9a7.4,7.4,0,0,0,4.5,1.5,7.6,7.6,0,0,0,3.9-1,7.9,7.9,0,0,0,3.9-7.4c-1.3-14.6-1.6-49.1,7.3-72.1,5.8,7.1,18.2,24.9,24.7,53.5,5.1,22.6,17.7,33.6,27.4,38.8a53.7,53.7,0,0,0,24.7,6.5h1a7.6,7.6,0,0,0,6.9-4.8,7.7,7.7,0,0,0-1.4-8.1c-.6-.6-7.7-9.8-9.4-29.7-.2-2-.3-4.3-.4-6.7,4.2,14.6,12.4,32.4,28.2,45.9a7.7,7.7,0,0,0,5,1.8,7.8,7.8,0,0,0,4.8-1.7c.5-.4,12.6-10.2,25-30.5,10.1-16.6,22.3-43.5,26-80.8a59.6,59.6,0,0,1,9.1,10.2c12.2,17.3,18,42.9,16.7,74.1a7.8,7.8,0,0,0,5.4,7.7,10,10,0,0,0,2.4.4,7.8,7.8,0,0,0,6.5-3.6,151.3,151.3,0,0,0,12.7-26.9,201.8,201.8,0,0,1-4.7,38.7,7.7,7.7,0,0,0,4.6,8.8,6.1,6.1,0,0,0,1.8.5c-2.6,5.4-5.5,11-8.7,16.9l-49.5,53.6a8.1,8.1,0,0,0-2,6,190.1,190.1,0,0,1-1.1,37.9,7.7,7.7,0,0,0,3,7.2,8,8,0,0,0,4.7,1.5,8.5,8.5,0,0,0,3.1-.6,90.5,90.5,0,0,0,15.8-9.7c.4,7.1.1,14.4-1.6,18a7.6,7.6,0,0,0,1.7,8.9,7.7,7.7,0,0,0,5.3,2.2,7.4,7.4,0,0,0,3.7-1c1.2-.6,6.2-3.4,12.5-7.5a11.8,11.8,0,0,1-1.2,3.3,7.8,7.8,0,0,0,6.7,11.6,8.6,8.6,0,0,0,2.7-.5c1.2-.5,30.2-11.4,60-39.6a200.2,200.2,0,0,0,42.2-56.9c12-24.3,19.1-51.4,21.1-80.6a57,57,0,0,0,23.8,10.4h1.4a7.7,7.7,0,0,0,6.1-12.6c-.2-.3-23.3-29.8-23.2-74.1,0-16.7-6.6-32.2-19.5-45.6a77.4,77.4,0,0,0,20-2.7,7.7,7.7,0,0,0,.1-14.9c-.3-.1-28.1-8.6-43.2-34.3-5.9-10.2-13.3-21.9-23-31.4a71.1,71.1,0,0,0-9.6-8.1c10.1,1.6,20.3,5.6,30.5,12.1a7.2,7.2,0,0,0,4.2,1.3,7.8,7.8,0,0,0,7.3-10.4c-.4-1.2-4.5-11.8-16.4-22.3s-30.7-21.1-63.4-21.1a146.5,146.5,0,0,0-17.2,1,6.6,6.6,0,0,0-3.3,1.2A138.2,138.2,0,0,0,676,232c-17.4-13.3-46.7-29.2-87.8-29.2Z" class="cls-2"></path><path d="M689.9,669.8a3.7,3.7,0,0,1-2.9-1.4,3.8,3.8,0,0,1-.4-4.4,16.6,16.6,0,0,0,2.1-11.3,2.6,2.6,0,0,1-.1-1.5A173,173,0,0,1,670,662.9a3.7,3.7,0,0,1-4.5-.6,3.8,3.8,0,0,1-.8-4.4c4.4-9.6,1.5-25.7,1.5-25.9a3.3,3.3,0,0,1,.1-1.7c-10.4,9.4-20.2,13.8-20.9,14a2.8,2.8,0,0,1-1.5.4,4.1,4.1,0,0,1-2.4-.8,3.8,3.8,0,0,1-1.5-3.6,195,195,0,0,0,1.2-38.8,3.7,3.7,0,0,1,1-3l49.8-54a399.7,399.7,0,0,0,22.1-47.2,196.3,196.3,0,0,1-12.2,22.5,3.7,3.7,0,0,1-3.2,1.8,4,4,0,0,1-1.5-.3,3.8,3.8,0,0,1-2.3-4.4c5.8-26.4,5.6-48.2,3.3-64.7-3.8,26.6-17.5,48.6-18.4,50a3.8,3.8,0,0,1-3.2,1.8l-1.2-.2a3.8,3.8,0,0,1-2.7-3.9c1.7-40.9-8.7-64.4-17.8-77a57.8,57.8,0,0,0-15.2-14.8c-2.7,40.2-15.5,68.9-26,86.2-12,19.7-23.6,29.1-24.1,29.5a4.1,4.1,0,0,1-2.4.8,3.8,3.8,0,0,1-2.5-.9c-30.1-25.5-31.2-67.8-31.2-69.6v-.5c.5-4.5,1.3-9.2,2.1-13.9-5.5,21.4-6.1,37.6-5,49.1,2,21.4,10.2,30.9,10.3,31a4,4,0,0,1,.6,4.1,4.1,4.1,0,0,1-3.3,2.4h-.9a50.7,50.7,0,0,1-22.8-6c-12.9-6.9-21.8-19.5-25.6-36.3-8.8-39.2-28.6-58.8-28.8-59a2.7,2.7,0,0,1-.7-.8c-14.4,28.6-10.1,79-10.1,79.6a3.8,3.8,0,0,1-2,3.7,3,3,0,0,1-1.9.5,3.9,3.9,0,0,1-2.3-.7c-29.3-21.6-44.1-60.5-46.7-67.7-18.9,34.7-19.6,95.6-19.6,96.3a3.9,3.9,0,0,1-2.5,3.6,3.2,3.2,0,0,1-1.4.3,3.8,3.8,0,0,1-2.8-1.2c-8.2-8.5-12-23.5-13.6-38.9-15.6,32.2-58.6,35.9-60.6,36.1h-.3a3.9,3.9,0,0,1-3.6-2.5,3.9,3.9,0,0,1,1.3-4.5c.1-.1,20.8-17.1,17.8-67.9-4-69.2,23.5-88.4,26.8-90.5a172.1,172.1,0,0,1-48.6-7.3,3.9,3.9,0,0,1-2.6-4.1,3.8,3.8,0,0,1,3.4-3.4,97.1,97.1,0,0,0,14-2.9c13.1-3.5,58-18.6,85.4-65.6s66.8-52,70-52.5a63.6,63.6,0,0,1-12.2-20.8,3.9,3.9,0,0,1,1.4-4.3,3.7,3.7,0,0,1,4.6,0c9.7,7.3,18.5,10.6,28.6,10.6,8.5,0,17.6-2.3,28.1-4.9,12.5-3.1,28.1-6.9,48-8.2l10.2-.3c40,0,68.5,15.4,85.4,28.3a139.4,139.4,0,0,1,17.2,15.6,5.8,5.8,0,0,1,.5-1.4,4.1,4.1,0,0,1,2.9-1.9,163.4,163.4,0,0,1,16.8-.9c60.4,0,75.5,39.1,76.1,40.7a3.9,3.9,0,0,1-1.2,4.4,3.8,3.8,0,0,1-2.4.9,3.1,3.1,0,0,1-2.1-.7A84.8,84.8,0,0,0,753.9,280a62.7,62.7,0,0,0-14.3-1.6,60.6,60.6,0,0,0-7.5.4c20.4,6.3,34.6,26.1,46,45.5,15.9,27.2,45.1,36.1,45.4,36.1a3.9,3.9,0,0,1-.1,7.5,77.4,77.4,0,0,1-20.6,2.6c-3.8,0-6.8-.3-8.5-.4,17,14.1,25.9,31.2,25.8,49.8-.1,45.7,23.8,76.2,24.1,76.5a4.1,4.1,0,0,1,.3,4.5,4,4,0,0,1-3.3,1.8h-.8a55.1,55.1,0,0,1-28-14.5v.3c-2.7,70.9-35.1,116.2-61.8,141.6-29.6,28.3-59,39.3-59.3,39.4A3.5,3.5,0,0,1,689.9,669.8Z" class="cls-9"></path><path d="M588.2,210.6c75.3,0,109.7,55.1,109.7,55.1.1-6.2-3.2-14.5-3.2-14.5a133.4,133.4,0,0,1,16.3-.9c57.7,0,72,37,72.5,38.2a87,87,0,0,0-28.7-12.3,71.4,71.4,0,0,0-15.2-1.7c-17.2,0-27.9,6.7-27.9,6.7a39.6,39.6,0,0,1,6.8-.5c27.8,0,45.4,27.1,56.2,45.6,17,28.9,47.7,37.9,47.7,37.9a76.3,76.3,0,0,1-19.6,2.4,72.3,72.3,0,0,1-9.7-.6c-12.9-7-38.4-13.9-39.9-14.3,2.4.8,63.2,20.8,63,68.2s25,79,25,79c-32.8-6.2-43.8-41.1-43.8-41.1,1.4,13.5,11.1,30.6,11.1,30.6-5.1,134.5-116.8,176.9-118.6,177.5,4.4-7.7,2.5-14.2,2.5-14.2,9.1-8.7,15.1-24.5,15.4-25.4-8.9,16.6-38.7,32.7-39.6,33.2,5-10.8,1.8-28.2,1.8-28.2,5.9-9.1,9.9-24.1,10.2-24.8-12.5,23.8-36.3,34.3-36.3,34.3a198.5,198.5,0,0,0,1.1-39.7l50.2-54.3C743.8,457.2,730,422.9,730,422.9c0,45.2-30.4,93.3-31.3,94.8,14.9-68.2-8.9-105.5-8.9-105.5,17.5,39.4-13.2,87.9-13.2,87.9,3.4-82.1-40.4-98.3-40.4-98.3-3.5,82.6-49,118.9-49,118.9-29.1-24.6-29.8-66.6-29.8-66.6,3.7-30.7,16.6-71.8,17-73C522.8,483.1,558,522.4,558,522.4h-.7c-5.1,0-36.1-1.6-44.6-39.2-9.3-41.1-29.9-60.9-29.9-60.9.2-6.5,3.7-13.4,3.9-13.9-27.8,23.3-21.3,95.8-21.3,95.8-31-22.9-45.7-66.9-45.7-66.9a32.6,32.6,0,0,1,4.7-14.8c-30.9,29.4-31.5,113.4-31.5,113.4-20.2-20.9-11.7-87.4-11.7-87.4-4.9,13.7-4.8,40.2-4.8,40.2-10.1,39.3-60.8,43.2-60.8,43.2s22.5-17.3,19.4-71.2c-4.1-70.5,25.1-87.1,25.1-87.1,40.6-3.6,62.1-23.8,62.1-23.8-20.2,13-43.1,16.8-63,16.8a168,168,0,0,1-48.6-7.2,95.3,95.3,0,0,0,14.5-2.9c28.8-7.8,65.2-28.8,87.8-67.4,26.7-45.5,67.2-50.6,67.2-50.6,12.2,8.7,28.1,9.2,28.1,9.2-27.9-6-37.2-35.1-37.2-35.1,11.2,8.5,20.9,11.4,30.9,11.4,19.5,0,40.3-10.8,76.3-13.1l10-.3m0-7.8-10.5.3c-20.2,1.3-35.9,5.2-48.6,8.4-10.3,2.5-19.2,4.7-27.2,4.7s-17.3-3-26.2-9.8a8.2,8.2,0,0,0-4.7-1.5,7.3,7.3,0,0,0-4.5,1.4,7.7,7.7,0,0,0-2.9,8.7,67.5,67.5,0,0,0,9,17.1c-13.4,3.5-44.3,15.4-66.4,53.1-26.7,45.6-70.4,60.4-83.1,63.8a89.5,89.5,0,0,1-13.5,2.7,7.9,7.9,0,0,0-6.8,6.9,8,8,0,0,0,5.3,8.2,178.2,178.2,0,0,0,40,7.2,68.2,68.2,0,0,0-9,13.1c-9.6,18.5-13.6,43.4-11.8,74,1.4,25.5-3.2,41.8-7.3,51s-8.7,13.3-9.2,13.7a7.8,7.8,0,0,0-2.6,8.8,7.9,7.9,0,0,0,7.4,5h.6a99.5,99.5,0,0,0,29-7.4c12.3-5.2,22.1-12.5,28.9-21.4,2.5,13.8,6.9,24,13.2,30.5a8,8,0,0,0,5.6,2.4,7.5,7.5,0,0,0,2.9-.6,7.7,7.7,0,0,0,4.8-7.1c.1-.7.7-52.5,15.4-86.8,6.3,14.8,20.9,43.6,44.8,61.2a7.9,7.9,0,0,0,4.6,1.5,7.6,7.6,0,0,0,3.9-1,7.9,7.9,0,0,0,3.9-7.4c-1.3-14.6-1.6-49.1,7.3-72.1,5.8,7.1,18.2,24.9,24.7,53.5,5.1,22.6,17.7,33.6,27.4,38.8a53.7,53.7,0,0,0,24.7,6.5h1.1a7.6,7.6,0,0,0,6.8-4.8,7.7,7.7,0,0,0-1.4-8.1c-.6-.6-7.7-9.8-9.4-29.6-.2-2.1-.3-4.4-.4-6.8,4.2,14.6,12.4,32.4,28.2,45.9a7.7,7.7,0,0,0,5,1.8,7.8,7.8,0,0,0,4.8-1.7c.5-.4,12.6-10.2,25-30.5,10.1-16.6,22.3-43.5,26-80.8a59.6,59.6,0,0,1,9.1,10.2c12.2,17.3,18,42.9,16.7,74.1a7.9,7.9,0,0,0,5.4,7.7,9.9,9.9,0,0,0,2.4.3,7.6,7.6,0,0,0,6.5-3.6,144.4,144.4,0,0,0,12.7-26.8,202.7,202.7,0,0,1-4.7,38.7,7.7,7.7,0,0,0,4.6,8.8l1.8.5c-2.6,5.4-5.5,11-8.7,16.9l-49.5,53.6a8.1,8.1,0,0,0-2,6,190.1,190.1,0,0,1-1.1,37.9,7.7,7.7,0,0,0,3,7.2,8,8,0,0,0,4.7,1.5,8.5,8.5,0,0,0,3.1-.6,93.4,93.4,0,0,0,16-9.9c.5,5.6.5,13.3-1.8,18.3a7.7,7.7,0,0,0,10.6,10.1c.1-.1,5.7-3,12.8-7.8a12.2,12.2,0,0,1-1.4,3.5,7.7,7.7,0,0,0,6.8,11.5,8.2,8.2,0,0,0,2.6-.4c.3-.1,30.5-11.4,60.7-40.3A197.1,197.1,0,0,0,795,576.2c11.9-24.2,18.9-51.1,20.9-80.1a57,57,0,0,0,23.8,10.4h1.5a7.7,7.7,0,0,0,6-12.6c-.2-.3-23.3-29.9-23.2-74.1,0-16.7-6.6-32.2-19.5-45.6a77.4,77.4,0,0,0,20-2.7,7.8,7.8,0,0,0,5.7-7.4,7.9,7.9,0,0,0-5.6-7.5c-.3-.1-28.1-8.6-43.2-34.3-5.9-10.2-13.3-21.9-23-31.4a71.1,71.1,0,0,0-9.6-8.1l4.3.8A84.9,84.9,0,0,1,779.3,295a7.9,7.9,0,0,0,4.2,1.2,7.2,7.2,0,0,0,4.8-1.7,7.6,7.6,0,0,0,2.4-8.7c-.6-1.8-16.7-43.3-79.7-43.3a146.5,146.5,0,0,0-17.2,1,6.6,6.6,0,0,0-3.3,1.2A138.2,138.2,0,0,0,676,232c-17.4-13.3-46.7-29.2-87.8-29.2Z" class="cls-2"></path><path d="M502.5,372.1c-.8-.1,61.5-19.2,73.4-35.4,0,0,2.1,16.2-21.6,35.4,0,0,19.8-16.6,40.3-37.2,0,0-12.6,41-15.5,62.8,0,0,0-25,2.2-32.4,0,0-21.2,30.1-23.3,42.5,0,0-1.7-17.3,2.7-24,0,0-25.9,30.9-28.2,50.4,0,0,1-40.4,11.2-58C543.7,376.2,526.5,377.4,502.5,372.1Z" class="cls-10"></path><path d="M360.1,373.6c27.3-2.4,45.9-12.4,55.2-18.6-16.3,17.7-46.6,28.8-46.6,28.8C344.8,405,335,460.7,335,460.7,330.9,390.2,360.1,373.6,360.1,373.6Z" class="cls-4"></path><path d="M491.6,230.4c6.1,9.4,28.7,21.1,28.7,21.1-26.3,7.4-54.9-1.5-54.9-1.5-24.6,11.2-35,40.7-48.4,63.6s-46.2,41.7-46.2,41.7c32.3-1.7,53.3-14.1,53.3-14.1a37.9,37.9,0,0,1-6.8,11.5c-47.2,26.6-106.7,6.7-106.7,6.7a95.3,95.3,0,0,0,14.5-2.9c28.8-7.8,65.2-28.8,87.8-67.4,26.7-45.5,67.2-50.6,67.2-50.6,12.2,8.7,28.1,9.2,28.1,9.2-27.9-6-37.2-35.1-37.2-35.1,13.1,9.9,24.1,12.2,36.1,11.1a114.3,114.3,0,0,0,32.2,10C518.3,235.1,491.6,230.4,491.6,230.4Z" class="cls-4"></path><path d="M799.3,466.7a116.1,116.1,0,0,0,9.2,21.7c-1.9,50.6-18.9,88.1-39.5,115.3,23.6-49.9,31.5-93.2,31.5-93.2-4.8,11.2-18.9,41.8-19.7,43.7C795.1,516.4,799.3,466.7,799.3,466.7Z" class="cls-4"></path><path d="M818.2,488.1a40.4,40.4,0,0,0,7.3,3.2c-3.1-3.6-4.7-24.6-4.7-24.6,1,4,3.9,7.4,7.7,10.3,6.3,14,12.6,21.9,12.6,21.9A51.9,51.9,0,0,1,818.2,488.1Z" class="cls-4"></path><path d="M753.2,351.7a.1.1,0,0,1,.1.1,42.6,42.6,0,0,0-4.2-1.1c15.7-4.8,27.9-2.8,33.6-1.2-4.5-2.4-13-9.6-23.6-30.9-15.8-31.7-42.9-37.6-43.7-37.8h0l11,.6c23.3,4.5,38.6,28.2,48.3,44.9,17,28.9,47.7,37.9,47.7,37.9-14.3,3.9-29.3,1.8-29.3,1.8C780.2,359,754.7,352.1,753.2,351.7Z" class="cls-4"></path><path d="M816.2,419.9c0,3.6.2,7.2.4,10.6-8.3-12-16.3-26.4-19-39.8-2.3-11.9-9.9-20.5-18.5-26.7C796.6,374.7,816.3,392.9,816.2,419.9Z" class="cls-4"></path><path d="M449.2,345.5s55.2-68.7,121.8-79.9c0,0-22.3,4.9-47.2,37.5,0,0,52.3-66.4,137-14.6,0,0-52.7-50.5-124.6-22.9S449.2,345.5,449.2,345.5Z" class="cls-10"></path><path d="M524.9,329.5s81.2-34.3,145.1-12.4c0,0-22-6.3-59.3,10.6,0,0,77.5-33.7,127.5,52.2,0,0-18-75.2-94.3-85S524.9,329.5,524.9,329.5Z" class="cls-4"></path><path d="M755.2,370.8s33.7,70.8,19.4,136.5c0,0,3.9-22.3-12.5-54.7,0,0,32.9,67.6-35.6,132.9,0,0,61.5-32.5,65-107.7S755.2,370.8,755.2,370.8Z" class="cls-10"></path><path d="M783.5,288.5a87,87,0,0,0-28.7-12.3c-26.7-14.7-49.6-10.6-49.6-10.6,2.5,11.1,4.6,34.9,4.6,34.9-9-25.8-75.8-79.1-107.2-79.1-49.9,0-105.3,15.8-105.3,15.8,12.5,10.9,23,14.3,23,14.3-58.9-4.2-69.8,26.4-115.4,70.7-32.7,31.8-64.5,35-79.8,34.3,28.8-7.8,65.2-28.8,87.8-67.4,26.7-45.5,67.2-50.6,67.2-50.6,12.2,8.7,28.1,9.2,28.1,9.2-27.9-6-37.2-35.1-37.2-35.1,32.9,24.8,52.5,1.7,107.2-1.7,82.3-5.2,119.7,54.8,119.7,54.8.1-6.2-3.2-14.5-3.2-14.5C766,243.4,783,287.2,783.5,288.5Z" class="cls-10"></path><g class="cls-7"><path d="M477.3,379.9s-5.2,35.5-7.5,59.7c-7.5,29.2-4.4,64.6-4.4,64.6-31-22.9-45.7-66.9-45.7-66.9a32.6,32.6,0,0,1,4.7-14.8c-30.9,29.4-31.5,113.4-31.5,113.4-20.2-20.9-11.7-87.4-11.7-87.4-4.9,13.7-4.8,40.2-4.8,40.2-10.1,39.3-60.8,43.2-60.8,43.2s22.5-17.3,19.4-71.2c-1.2-21.5.6-38,3.8-50.6-.4,2.7-7,48.7,10.4,68,0,0,6.4-67.4,51-94.3-.5,1.4-17.4,74.8-10.3,101.3,0,0,12.4-83.5,58-113,0,0-16.3,41.4-2.2,88.6C445.7,460.7,442.1,406.8,477.3,379.9Z" class="cls-2"></path><path d="M558,522.4s-36,1.8-45.3-39.2-29.9-60.9-29.9-60.9c.2-6.5,3.7-13.4,3.9-13.9a36.9,36.9,0,0,0-7.1,8.1c4.3-10.1,10.3-20.8,18.4-29.6,0,0,8.9,53.1,34,73.8,0,0,0-33,21.3-52.1,0,.4,0,17,.4,23.5C534.8,496.5,558,522.4,558,522.4Z" class="cls-2"></path><path d="M631.8,417.4s2.2-6.5,4.3-14.8c-3.7,82-48.9,118.1-48.9,118.1-21.3-18-27.4-45.3-29.1-58.7,1-5.7,11.8-58.7,39.7-78.2C597.8,383.8,619.3,409.7,631.8,417.4Z" class="cls-2"></path><path d="M636.3,401.8c2.9-11.3,5.5-25.5,2.3-31.4,1.1.5,35.8,18,42.2,47,0,0,9-41.9,2.3-62.1,0,0,10.3,22.3,10.3,63.9,0,1.2-.1,2.3-.1,3.5v1.5a3.1,3.1,0,0,0,.2-.7c8.3,36.8-16.9,76.6-16.9,76.6C679.9,420.8,639.1,403,636.3,401.8Z" class="cls-2"></path><path d="M694.1,421c2.5-9.8,9.1-40.8,3.5-70.3,0,0,30.9,41.4,27.6,106.3-8.7,32.5-25.8,59.6-26.5,60.7C709.4,468.9,700.2,435.9,694.1,421Z" class="cls-2"></path><path d="M689.9,609.7s48.8-22.7,61.2-32.3c0,0-19.3,34.5-53.5,50.4,1-.4,33.2-12,40.3-20.9a97.9,97.9,0,0,1-24.2,46.8c-13.6,8.4-23.2,12-23.8,12.2,4.4-7.7,2-17.8,2-17.8,9.5-6.4,15.6-20.9,15.9-21.8-8.9,16.6-38.7,32.7-39.6,33.2,5-10.8,1-34.6,1-34.6,6-6.3,10.7-17.7,11-18.4-12.5,23.8-36.3,34.3-36.3,34.3a198.5,198.5,0,0,0,1.1-39.7l50.2-54.3C720,501,728.6,469.7,731,450c5-6.7,13.4-25.8,15.4-52.3,0,0,7.7,42.5-2,81,0,0,10.5-7.9,14.7-26.4,0,0-6.7,80.8-25.4,102,0,0,11.9-2.8,20.4-27.7C754.1,526.6,751,572.4,689.9,609.7Z" class="cls-2"></path></g><path d="M723.8,524.5l1.9-2c.6-.7,1.2-1.5,1.9-2.2s2.4-3.1,3.5-4.8,4.2-6.7,6.2-10.2a153.2,153.2,0,0,0,9.4-22l1.9-5.8c.6-1.9,1.1-3.9,1.6-5.8,1.2-3.9,1.9-7.9,2.8-11.8.5-2,.7-4,1.1-6l1-6c.5-4,1-8,1.4-12-.2,4-.4,8.1-.7,12.1l-.6,6.1c-.3,2-.4,4-.8,6a122.3,122.3,0,0,1-2.1,12.1l-1.2,6-1.6,5.9a160.3,160.3,0,0,1-8.3,23.2c-1.8,3.7-3.7,7.4-5.9,11a58,58,0,0,1-3.4,5.2,24.8,24.8,0,0,1-1.9,2.6l-2.1,2.5Z" class="cls-2"></path><path d="M446.9,341.2a71.9,71.9,0,0,1,6.5-19.1,110.6,110.6,0,0,1,24.4-32.2,139.2,139.2,0,0,1,16.3-12.3,146.9,146.9,0,0,1,18-9.5l4.7-1.9,2.3-.9,2.4-.9,4.8-1.6,4.9-1.4a157.9,157.9,0,0,1,39.8-5.5,275,275,0,0,0-38.5,9.9l-4.6,1.6-4.6,1.8-2.3.9-2.2,1-4.5,2a142.2,142.2,0,0,0-17.1,9.4A137.5,137.5,0,0,0,481.5,294a126.3,126.3,0,0,0-25.6,29.5A101.5,101.5,0,0,0,446.9,341.2Z" class="cls-2"></path><path d="M474.4,210.8l.4.6c.1.3.3.5.4.8l1.1,1.5a34.7,34.7,0,0,0,2.5,2.9,47.7,47.7,0,0,0,5.7,5.3,58.7,58.7,0,0,0,6.5,4.6c2.3,1.3,4.7,2.6,7.1,3.7a90.3,90.3,0,0,0,15.4,5.3,124.3,124.3,0,0,0,16.2,2.6,159.4,159.4,0,0,0,33.1-.6,264.4,264.4,0,0,0,32.9-6.1,262.7,262.7,0,0,1-32.6,8,172.2,172.2,0,0,1-33.7,2.6,138.5,138.5,0,0,1-16.9-1.8,87,87,0,0,1-16.6-4.6c-2.7-1.1-5.4-2.3-8-3.6a83.8,83.8,0,0,1-7.5-4.6,52.7,52.7,0,0,1-6.8-5.7,31.9,31.9,0,0,1-3.1-3.3l-1.5-1.8a8.6,8.6,0,0,0-.7-1l-.7-1.2h-.1a3.8,3.8,0,0,1,1.4-5.3,3.9,3.9,0,0,1,5.3,1.4C474.3,210.5,474.3,210.7,474.4,210.8Z" class="cls-2"></path><path d="M839.1,502.2l-2.3-1.7-2.2-1.6-4.2-3.6c-2.6-2.5-5.1-5.1-7.5-7.9A76.3,76.3,0,0,1,811.3,469a66.2,66.2,0,0,1-5.3-21l-.2-2.7-.2-2.5-.4-5.1-.8-5-.4-2.6-.6-2.5c-.5-1.6-.8-3.3-1.3-4.9l-1.6-4.9a27.8,27.8,0,0,0-1.8-4.8l-1-2.4-.5-1.2-.5-1.1-2.3-4.6c-.8-1.6-1.7-3-2.6-4.5s-1.8-2.9-2.8-4.4-1.9-2.8-3-4.2a87.7,87.7,0,0,0-14.2-15,67,67,0,0,0-17.7-10.9,66.8,66.8,0,0,1,18.3,10.1,90.8,90.8,0,0,1,15.1,14.6c1.2,1.3,2.2,2.8,3.3,4.2s2.1,2.8,3,4.3,2,2.9,2.9,4.4l2.6,4.7.6,1.1.6,1.2,1.1,2.4c.7,1.6,1.5,3.2,2.1,4.9l1.9,5,1.5,5.1.8,2.5.5,2.6,1.1,5.3.7,5.3.3,2.6.3,2.5a60.4,60.4,0,0,0,5.8,19.1A71.3,71.3,0,0,0,828,482.9a77.7,77.7,0,0,0,7.2,6.9l4,3.1,2,1.4,1.9,1.3h.1a3.9,3.9,0,1,1-3.9,6.7Z" class="cls-2"></path><path d="M822.2,368l-4.6-.5-4.4-.8q-4.4-.9-8.7-2.1a94.2,94.2,0,0,1-16.7-6.4,75.9,75.9,0,0,1-21.6-15.7,64,64,0,0,1-5.5-7.1c-3.3-4.9-5.9-10.1-8.7-15.1a61.2,61.2,0,0,0-10-13.6,43.2,43.2,0,0,0-6.6-5.4A59.6,59.6,0,0,0,728,297a84.2,84.2,0,0,0-16.3-5.4,76.8,76.8,0,0,1,16.7,4.6,56.2,56.2,0,0,1,7.8,3.8,61.6,61.6,0,0,1,7.1,5.2,66.5,66.5,0,0,1,11.2,13.6c3.2,4.9,6,9.9,9.4,14.4a54,54,0,0,0,11.8,11.6,74.4,74.4,0,0,0,14.6,8.1,89.2,89.2,0,0,0,15.9,5.1,58.9,58.9,0,0,0,8.2,1.5l4.2.5a28,28,0,0,0,4,.3h0a3.9,3.9,0,1,1-.1,7.7Z" class="cls-2"></path><path d="M780.5,291l-.7-.8-.8-.9a14.5,14.5,0,0,0-1.7-1.8l-3.7-3.5a96.8,96.8,0,0,0-8.2-6.1,71.8,71.8,0,0,0-18.7-8.5,68.2,68.2,0,0,0-20.6-2.6,82.8,82.8,0,0,0-20.9,3.3,86.3,86.3,0,0,1,20.7-5.3,74.7,74.7,0,0,1,42.4,8.1,76.7,76.7,0,0,1,9.4,5.8c1.5,1,3,2.2,4.5,3.4l2.1,1.8,1,1a5.7,5.7,0,0,1,1.1,1.1h.1a3.9,3.9,0,0,1-.2,5.5,3.8,3.8,0,0,1-5.5-.2Z" class="cls-2"></path><path d="M311,355.6c3.9.4,8.1.7,12.2.9s8.3.2,12.5.2a184.2,184.2,0,0,0,24.6-2.1,112.8,112.8,0,0,0,23.8-6.3,74.8,74.8,0,0,0,10.9-5.6c1.7-1.1,3.3-2.3,4.9-3.5l2.4-2,2.3-2a133.4,133.4,0,0,0,16.8-18.4c5.1-6.7,9.8-13.6,14.6-20.5a214.2,214.2,0,0,1,15.3-20.2c5.7-6.3,12.2-11.9,19.9-15.4-7.6,3.8-13.8,9.6-19.1,16.1s-9.9,13.5-14.5,20.5-9,14.3-13.9,21.2A144.8,144.8,0,0,1,407.3,338l-2.3,2.2-2.4,2.2a64.1,64.1,0,0,1-5.2,3.9,70.8,70.8,0,0,1-11.4,6.4,112.9,112.9,0,0,1-24.6,7.6,183.2,183.2,0,0,1-25.5,3.2c-4.3.2-8.5.3-12.8.3s-8.5-.2-13-.5a3.9,3.9,0,0,1-3.5-4.2,4,4,0,0,1,4.2-3.6h.2Z" class="cls-2"></path><path d="M317,528l1.5-.8,1.6-1a30.2,30.2,0,0,0,3.3-2.1,66.2,66.2,0,0,0,6.1-4.7A77.2,77.2,0,0,0,340.2,508a62.9,62.9,0,0,0,8.1-13.4,70.6,70.6,0,0,0,4.3-15.1c1.8-10.5,1.4-21.4,2.1-32.3a63.5,63.5,0,0,1,3-16.1,35.8,35.8,0,0,1,8.6-13.7,34.6,34.6,0,0,0-7.8,14,64.8,64.8,0,0,0-2.1,15.9c-.2,10.7.8,21.6-.5,32.6a71.2,71.2,0,0,1-3.7,16.3,83.6,83.6,0,0,1-7.6,14.9A89.3,89.3,0,0,1,334,524.2a66.4,66.4,0,0,1-6.3,5.6l-3.5,2.6a10.9,10.9,0,0,1-1.7,1.3l-2,1.2h0a3.9,3.9,0,0,1-5.3-1.5,3.8,3.8,0,0,1,1.5-5.3Z" class="cls-2"></path><path d="M389.1,536.4c-1-5.4-1.8-10.5-2.4-15.7s-1-10.4-1.3-15.7a218.1,218.1,0,0,1,.5-31.3q.8-7.8,2.1-15.6a134.1,134.1,0,0,1,3.6-15.2,121.3,121.3,0,0,1,5.4-14.6,100.4,100.4,0,0,1,7.4-13.7,119.2,119.2,0,0,0-6.6,14c-1.7,4.9-3.2,9.8-4.4,14.8s-1.9,10.1-2.5,15.2-1,10.2-1.1,15.3a208.4,208.4,0,0,0,1.4,30.6c.6,5.1,1.3,10.2,2.2,15.2s2,10.1,3.3,14.8h0a4,4,0,0,1-2.8,4.8,3.9,3.9,0,0,1-4.7-2.8A.3.3,0,0,0,389.1,536.4Z" class="cls-2"></path><path d="M461.7,505.1c-.9-4.3-1.6-8.4-2.3-12.7s-1.1-8.4-1.6-12.6c-.8-8.5-1.4-17-1.4-25.5a179.8,179.8,0,0,1,1.9-25.4,91.9,91.9,0,0,1,7.1-24.3,94,94,0,0,0-5.2,24.5,173.8,173.8,0,0,0,.1,25,227.3,227.3,0,0,0,3.3,24.8c.7,4.1,1.6,8.2,2.5,12.3s2,8.1,3.1,12h0a3.9,3.9,0,0,1-2.6,4.8,3.7,3.7,0,0,1-4.8-2.6A.4.4,0,0,1,461.7,505.1Z" class="cls-2"></path><path d="M459.2,506.3c-1.3-2.1-2.4-3.9-3.5-5.9s-2.1-4-3.1-6c-2-3.9-3.8-8-5.5-12.1a160.1,160.1,0,0,1-8.2-25.4,117.4,117.4,0,0,1-2.9-26.4,97.9,97.9,0,0,1,1.1-13.2,78.7,78.7,0,0,1,3.2-12.7,91.4,91.4,0,0,0-2.2,12.9,94,94,0,0,0-.2,13,115.1,115.1,0,0,0,4.8,25.4,156,156,0,0,0,9.6,24c2,3.8,4.1,7.6,6.3,11.3,1.1,1.8,2.2,3.6,3.4,5.4s2.4,3.6,3.6,5.2h0a4,4,0,0,1-.8,5.5,3.8,3.8,0,0,1-5.4-.8C459.3,506.4,459.3,506.3,459.2,506.3Z" class="cls-2"></path><path d="M557.3,526.2h-.8l-.7-.2-1.3-.5-2.3-1L550,523l-2.1-1.4L546,520l-1.8-1.6-1.6-1.8-.8-.9a6.1,6.1,0,0,1-.7-1,44.5,44.5,0,0,1-5-8l-1.9-4.3-1.5-4.4a22,22,0,0,1-1.2-4.4c-.4-1.5-.8-2.9-1.1-4.4l-.6-4.5a34.7,34.7,0,0,1-.6-4.5l-.3-4.5-.2-2.2a16.1,16.1,0,0,1,0-2.2V453.6l-.7-8.7-.6-4.3c-.2-1.4-.4-2.9-.7-4.3l-1-4.2c-.2-.7-.3-1.4-.5-2.1l-.7-2.1a47.9,47.9,0,0,0-7.9-15.4,10.7,10.7,0,0,0-1.4-1.6l-1.4-1.6-1.7-1.5-.8-.7-.9-.7a21.8,21.8,0,0,0-7.8-3.8,21.5,21.5,0,0,1,8.1,3.4l1,.6.8.7,1.8,1.4,1.6,1.6,1.5,1.6a48.4,48.4,0,0,1,8.9,15.4l.8,2.1a17.2,17.2,0,0,1,.7,2.1l1.3,4.3c.4,1.4.6,2.9.9,4.4l.9,4.3,1.1,8.9.6,8.9.5,8.7c.1.7.1,1.5.2,2.2l.2,2.1.6,4.3c.2,1.4.5,2.8.8,4.2l.8,4.2,1.2,4.1a23.5,23.5,0,0,0,1.4,4l1.5,3.9,2,3.7a34.6,34.6,0,0,0,4.6,6.7l.7.8.7.7,1.4,1.4,1.5,1.2,1.6,1.2,1.6,1,1.7.8,1.7.7.8.2h1a3.8,3.8,0,0,1-1.7,7.5Z" class="cls-2"></path><path d="M672.9,498.7A21.8,21.8,0,0,0,674,496c.3-1,.7-1.9,1-2.9s1.2-3.9,1.7-5.8c1.1-4,1.9-8,2.6-12a112.5,112.5,0,0,0,1.3-24.6,91.5,91.5,0,0,0-5-24.2l-.5-1.5-.6-1.4-1.2-2.9c-1-1.9-1.8-3.8-2.8-5.6a90.4,90.4,0,0,0-6.9-10.5,83.1,83.1,0,0,1,7.7,10c1.2,1.7,2.2,3.6,3.3,5.4l1.4,2.9.7,1.4.7,1.4a91.2,91.2,0,0,1,7,24.6,110.4,110.4,0,0,1,.7,25.7c-.4,4.2-1,8.5-1.8,12.8-.3,2.1-.8,4.2-1.3,6.3l-.8,3.2-1,3.2a3.9,3.9,0,0,1-5,2.4,3.9,3.9,0,0,1-2.4-4.9.4.4,0,0,0,.1-.3Z" class="cls-2"></path><path d="M640.9,638.3c2.7-2.9,5.4-6.1,8-9.3s5.1-6.7,7.4-10.1a117.9,117.9,0,0,0,6.4-10.8,78.8,78.8,0,0,0,5.1-11.5,89.4,89.4,0,0,1-3.3,12.3c-1.4,4-3,8-4.8,11.9s-3.8,7.7-6,11.4-4.3,7.4-6.8,11.1a4,4,0,0,1-5.5.9,3.8,3.8,0,0,1-.9-5.4l.3-.4Z" class="cls-2"></path><path d="M665.4,656.8l2.5-2.4,2.4-2.7c1.6-1.8,3.2-3.7,4.7-5.6a123.4,123.4,0,0,0,8.3-12.1,90.9,90.9,0,0,0,6.7-13.2l1.3-3.5c.4-1.1.7-2.3,1.1-3.5l.5-1.8a11.6,11.6,0,0,0,.4-1.8l.8-3.7-.3,3.7c-.1.7-.1,1.3-.2,1.9l-.3,1.9-.6,3.7-.9,3.7a94.5,94.5,0,0,1-5,14.4,124.9,124.9,0,0,1-7,13.6c-1.3,2.2-2.7,4.3-4.1,6.4s-1.5,2.2-2.3,3.2a33.3,33.3,0,0,1-2.4,3.2,3.9,3.9,0,0,1-6-5l.3-.3Z" class="cls-2"></path><path d="M689,660.4l2.8-1.6,2.8-1.7,2.8-1.9,2.7-2a95.6,95.6,0,0,0,10.2-8.9c1.7-1.5,3.2-3.3,4.7-4.9l2.2-2.7,1-1.3,1-1.4a89.2,89.2,0,0,0,7.3-11.8,85.6,85.6,0,0,1-5.6,12.8l-.8,1.6-.9,1.5-1.9,3c-1.3,1.9-2.6,3.9-4,5.8a96,96,0,0,1-9.4,10.7l-2.5,2.5-2.7,2.4a31.1,31.1,0,0,1-2.8,2.3l-3,2.3a3.9,3.9,0,0,1-4.4-6.4l.4-.3Z" class="cls-2"></path><path d="M808.9,478.4c-.8,5.8-1.8,11.5-2.9,17.2s-2.4,11.3-3.8,16.9a310.6,310.6,0,0,1-10.1,33.2c-2,5.4-4.2,10.7-6.7,16-1.2,2.6-2.5,5.2-3.8,7.8s-2.7,5-4.3,7.5a101.7,101.7,0,0,1-21.8,26.6,101.7,101.7,0,0,0,20.6-27.3c1.4-2.5,2.6-5.1,3.9-7.7s2.4-5.1,3.4-7.8c2.2-5.3,4.2-10.6,5.9-16.1a287.6,287.6,0,0,0,8.7-33.1c1.1-5.6,2.1-11.2,3-16.9s1.6-11.3,2.1-16.9Z" class="cls-2"></path><path d="M584,518.6c1.3-1.9,2.7-4.1,4-6.3s2.6-4.3,3.8-6.6c2.4-4.4,4.7-9,6.9-13.6a224.4,224.4,0,0,0,10.9-28.6,193.3,193.3,0,0,0,6.5-30,167.9,167.9,0,0,0,1.3-30.9,179.4,179.4,0,0,1,.7,31.1,191.4,191.4,0,0,1-4.8,30.8,229.5,229.5,0,0,1-9.3,29.9c-1.9,4.8-3.9,9.7-6.2,14.4-1.1,2.4-2.3,4.7-3.5,7.1s-2.4,4.6-3.9,7a3.9,3.9,0,1,1-6.6-4,.3.3,0,0,1,.1-.2Z" class="cls-2"></path><path d="M607.8,444.1a4,4,0,0,1-2.6-1,3.7,3.7,0,0,1-1.3-3c2.8-126.6-45.2-228.6-45.7-229.6a3.8,3.8,0,0,1,0-3.3,3.9,3.9,0,0,1,2.5-2.2,144.4,144.4,0,0,1,35-4.7,75.4,75.4,0,0,1,13.9,1.1,3.7,3.7,0,0,1,2.2,1.4c12.1,15.7,22.7,48.3,31.6,96.8,7.2,39,12.8,87.2,15.4,132a3.7,3.7,0,0,1-3.2,4L608.4,444Z" class="cls-11"></path><path d="M595.7,204.2a69.6,69.6,0,0,1,13.1,1c25.4,33.1,41.4,144.9,46.1,226.6l-47.1,8.4c2.8-129.1-46.1-231.4-46.1-231.4a136,136,0,0,1,34-4.6m0-7.8a145.9,145.9,0,0,0-35.9,4.9,7.9,7.9,0,0,0-5.2,4.2,8,8,0,0,0,.1,6.6c.1.3,12.2,25.8,23.7,66.5C589.1,316,601.5,374.5,600,440a7.9,7.9,0,0,0,2.7,6.1,7.8,7.8,0,0,0,5.1,1.8h1.3l47.2-8.3a7.8,7.8,0,0,0,6.4-8.1c-4-67.8-18.5-192.7-47.8-230.9a7.6,7.6,0,0,0-4.5-2.9,76.1,76.1,0,0,0-14.7-1.2Z" class="cls-2"></path><path d="M621.1,254.7c2.7,6.6,5,13.5,7.2,20.3,1.2,3.4,2.1,6.9,3.2,10.3s1.9,7,2.9,10.5c1.8,6.9,3.5,13.9,5,21,.8,3.5,1.4,7,2.1,10.6s1.4,7.1,2,10.6l1.6,10.7c.5,3.6,1,7.2,1.4,10.8s.7,7.1,1.1,10.7.7,7.2.8,10.8.4,7.2.5,10.8,0,7.2,0,10.8v5.5l-.3,5.4c-.2,3.6-.4,7.2-.7,10.7-.4-3.6-.6-7.1-.9-10.7-.2-1.8-.2-3.6-.4-5.4l-.5-5.3c-.4-3.6-.6-7.2-1-10.7s-.8-7.1-1.2-10.7c-.2-1.8-.4-3.5-.7-5.3l-.7-5.3c-.5-3.6-.9-7.1-1.5-10.6l-1.5-10.6L637.7,339c-.5-3.5-1.1-7.1-1.7-10.6s-1.3-7-2-10.5-1.2-7.1-2-10.6-1.3-7-2-10.5C627.1,282.7,624.1,268.7,621.1,254.7Z" class="cls-12"></path><path d="M588.9,209.9c6.8,13,12.1,26.6,16.9,40.5a404.7,404.7,0,0,1,11.6,42.2,318.6,318.6,0,0,1,6.2,43.5,213.6,213.6,0,0,1-1.4,43.8q-.6-5.4-.9-10.8c-.2-1.9-.2-3.7-.5-5.5l-.6-5.4-.5-5.3-.3-2.7-.4-2.7-1.5-10.7c-2.2-14.3-4.7-28.5-7.7-42.6s-6.3-28.1-9.9-42.1c-1.8-7-3.5-14.1-5.4-21.1S590.7,217,588.9,209.9Z" class="cls-12"></path><path d="M565.9,218.4c9.5,14.1,16.7,29.7,22.8,45.6l2.2,5.9c.8,2,1.4,4.1,2.1,6.1l1.9,6.1,1,3,.9,3.1,3.3,12.4,2.8,12.4.7,3.2.5,3.1,1.1,6.3c.7,4.2,1.5,8.4,1.9,12.7l1.5,12.7c.4,4.2.5,8.5.8,12.7.6,8.5.3,17,.2,25.5v3.2c-.1,1.1-.2,2.1-.2,3.2s-.3,4.2-.5,6.3l-1.2,12.7c-.4-4.2-.7-8.5-1-12.7s-.3-8.4-.9-12.6c-.8-8.4-1.3-16.8-2.5-25.1l-.8-6.2-.3-3.2-.2-1.5-.2-1.6c-.7-4.1-1.3-8.2-2-12.4s-1.3-8.2-2.1-12.4l-1.1-6.1-.6-3.1-.7-3.1-2.6-12.3-3-12.2-.8-3-.8-3-1.7-6.1c-1-4.1-2.3-8.1-3.5-12.1A464.1,464.1,0,0,0,565.9,218.4Z" class="cls-13"></path><path d="M568,209.2s26.4-6,40.3-2.9c0,0,16.7,34.6,21.3,55.9,0,0-18.9-46.5-25.4-52.3L575.9,213s18.5,46.4,19.8,60.8C595.7,273.8,575.3,216.2,568,209.2Z" class="cls-4"></path><path d="M612,356.6s2.9,38.8-1.5,61.9l35-1.5s-4.7-50.9-9.4-58.6c0,0,5.2,39.3,4.6,54,0,0-24.6,1.8-24.4.5S615.9,367.8,612,356.6Z" class="cls-4"></path><path d="M601.9,218.4a149.3,149.3,0,0,1,10.5,23.5l1.2,3.1,1,3c.6,2.1,1.3,4.1,1.9,6.2,1.3,4.1,2.3,8.3,3.4,12.5a245.4,245.4,0,0,1,4.9,25.3c.7,4.3,1,8.6,1.4,12.9s.6,8.5.7,12.8c-1-4.2-1.7-8.4-2.5-12.6l-1.3-6.3c-.4-2.1-.8-4.2-1.3-6.2s-.9-4.2-1.3-6.3l-1.4-6.3-.7-3.1-.7-3.1-1.5-6.2-1.6-6.2c-.5-2.1-1.1-4.1-1.6-6.2s-1.1-4.1-1.7-6.2-1.1-4.1-1.7-6.1C607.2,234.7,604.7,226.5,601.9,218.4Z" class="cls-13"></path><path d="M440.7,1025.3a3.8,3.8,0,0,1-3.6-5.2c6.4-17.2,11.3-28.1,11.4-28.2a3.6,3.6,0,0,1,1.1-1.4l6.6-5.5c3.4-3,6.8-6.2,10.2-9.5,0-.1.1-.1.1-.2,62.4-62.1,110-178.8,127.6-226.1h0c5-13.3,7.7-21.5,7.8-21.8v-.2a4,4,0,0,1,3.7-2.6h.3a3.8,3.8,0,0,1,3.6,3.2l40.7,237.2a4.3,4.3,0,0,0,.1.5l2.5,55.9a4.1,4.1,0,0,1-1.1,2.8,3.6,3.6,0,0,1-2.8,1.2Z" class="cls-1"></path><path d="M605.6,728.3h0l27.3,158.7,2.8,16.5,1.2,6.5,9.5,55.5.4,9.3.7,15.8,1.3,29v1.7H440.7c6.5-17.2,11.3-27.9,11.3-27.9,2.3-1.8,4.5-3.7,6.7-5.6s7.1-6.4,10.5-9.8h0C532,915.6,579.6,799.2,597.7,750.6v-.2c4.6-12.5,7.3-20.5,7.7-21.9a.1.1,0,0,0,.1-.1h0m0-7.8a7.7,7.7,0,0,0-7.3,5.4c-.1,0-.1.1-.1.2s-2.8,8.4-7.7,21.6v.2C572.9,795,525.6,911,463.8,972.6l-.2.2c-3.3,3.3-6.7,6.4-10,9.3s-4.2,3.6-6.4,5.3a8,8,0,0,0-2.3,2.9c-.2.5-5,11.1-11.5,28.4a8,8,0,0,0,.9,7.2,7.7,7.7,0,0,0,6.4,3.3H648.9a7.8,7.8,0,0,0,5.6-2.4,7.6,7.6,0,0,0,2.2-5.7v-1.7l-1.3-29.1-.7-15.7-.5-9.4a2.8,2.8,0,0,0-.1-.9l-9.5-55.5-1.1-6.6-2.8-16.4L613.3,727.2h0a7.7,7.7,0,0,0-7.2-6.5Z" class="cls-2"></path><path d="M451.8,1021.4c.5-1.5,1.1-3,1.7-4.5" class="cls-14"></path><path d="M457.9,1005.4c.3-.9.7-1.7,1-2.6,2.3-5.7,4.3-10.7,6-14.6" class="cls-15"></path><path d="M467.3,982.5c1.2-2.7,1.9-4.2,1.9-4.4h0" class="cls-14"></path><path d="M674.2,1025.3a4,4,0,0,1-3.3-1.7l-.3-.7-.3.5a3.9,3.9,0,0,1-3.4,1.9H649.1a3.8,3.8,0,0,1-3.8-3.3l-.3-1.5h0c-2.9-18.5-9.3-43.4-23.1-57.8l-1.2-1.2a4.7,4.7,0,0,1-1.1-2.5L601.8,728.7c0-.1-.1-.3-.1-.4a4.2,4.2,0,0,1,1.5-3.1,4.3,4.3,0,0,1,2.4-.8h.9c.2.1,16.4,4,41.4,8.5l3.9.7,4,.7c34.4,5.9,85.8,13,135.7,13a409,409,0,0,0,50.2-2.8h.5a3.9,3.9,0,0,1,3.8,3.2c.1,1,3.5,24-15.8,52.9s-16.8,70.4-16.8,70.8a3.6,3.6,0,0,1-1.9,3.6,3.8,3.8,0,0,1-4.1-.2c-.4-.2-32.6-22.4-81.4-22.9,34.8,1.7,63.9,11.6,86.8,29.6a3.6,3.6,0,0,1,1.2,1.8c13.1,38.5,15.9,96.3,15.9,138a3.9,3.9,0,0,1-1.1,2.8,3.9,3.9,0,0,1-2.7,1.1Z" class="cls-1"></path><path d="M605.6,728.3s16.2,3.9,41.6,8.5l4.5.8,3.5.6h0c35.9,6.2,86.8,13.1,136.3,13.1a440.5,440.5,0,0,0,50.7-2.8s3.5,22-15.2,50.1c-20.6,30.9-17.4,73.2-17.4,73.2s-33.5-23.6-85-23.6c-22,0-47.4,4.3-74.7,16.6.8-.3,29.5-9.1,65.6-9.1,30.4,0,66,6.2,94.9,29,13.1,38.4,15.6,97.1,15.7,136.7H674.2c22.1-51.1,15.2-69.8,15.2-69.8s2.1,17.9-11.2,48.1h0l-1.1,2.4a183.6,183.6,0,0,1-10.2,19.3H649.1l-.3-1.7c-3-19.1-9.7-44.7-24.1-59.8l-1.2-1.3-.3-3.4-1.4-17.6L605.6,728.4h0m0-7.8a7.8,7.8,0,0,0-4.8,1.7,7.9,7.9,0,0,0-2.9,6.1v.8l16.2,209,1.4,17.7.2,3.4a8,8,0,0,0,2.3,4.9l1.1,1.1c13.1,13.7,19.2,37.9,22.1,55.8h0c.1.4.1.9.2,1.4a7.8,7.8,0,0,0,7.7,6.7h17.8a7.8,7.8,0,0,0,3.7-.9,7.4,7.4,0,0,0,3.6.9H826.1a7.7,7.7,0,0,0,7.7-7.8c0-42-2.8-100.3-16.1-139.2a7.8,7.8,0,0,0-2.5-3.6l-.9-.7a7.6,7.6,0,0,0,3-6.7c0-.4-2.7-40.1,16.1-68.3,20.2-30.2,16.6-54.7,16.4-55.7a7.7,7.7,0,0,0-7.6-6.5h-1a420.9,420.9,0,0,1-49.7,2.7c-49.7,0-100.8-7-135-12.9h-.1l-2-.3-1.3-.2h-.6l-3.9-.7c-24.8-4.5-41-8.4-41.2-8.4a5.7,5.7,0,0,0-1.8-.3Z" class="cls-2"></path><path d="M678.2,999.7h0l-1.1,2.4-8.7,19.3H628.6l-12.8-32.6-1.7-4.2-2.5-6.6-.3-4.1L597.7,750.6v-.2l7.7-21.9h.1c.6,4.4,14.2,103.8,24.7,172.1.9,5.7,1.8,11.1,2.6,16.3.4,2.3.7,4.5,1.1,6.7,2.7,16.9,5,30,6.6,36.3a53.1,53.1,0,0,0,6.2,15.1C658.3,994,678.2,999.7,678.2,999.7Z" class="cls-1"></path><path d="M810.4,884.7c8.3,24.5,12.4,57.2,14.2,88-5.1-34.1-10.7-68-21.6-81.9-27.9-36-121.1-28.4-121.1-28.4,7.1-3.7,15.4-5.5,22.3-6.4C736.7,854.4,777.8,859,810.4,884.7Z" class="cls-4"></path><path d="M827,798.6c-20.6,30.9-17.4,73.1-17.4,73.1s-30-21.1-76.9-23.3c43.3-2.4,68,9.4,68,9.4s6.6-7.3,8.2-36.8,26.2-63.3,26.2-63.3c-50.2,3.2-104.2-2.6-135.7-12.9,44,5.7,96.8,9.3,142.8,3.6C842.2,748.4,845.7,770.5,827,798.6Z" class="cls-4"></path><path d="M461.4,999.7s96.4-80.8,149.8-264.6c0,0,53.2,15.3,85,16.5,0,0-29.1,6.6-76.8-2.3C619.4,749.3,573.9,925.9,461.4,999.7Z" class="cls-2"></path><path d="M437.2,993.1a.7.7,0,0,1-.7-.4l-1.4-3.1v-.5a.8.8,0,0,1,.4-.4l6.6-2.9h.3c.3,0,.5.2.7.5l1.3,3a1.3,1.3,0,0,1,.1.6c-.1.2-.3.3-.4.4l-6.6,2.9Z" class="cls-11"></path><path d="M442.4,986.5l1.4,3-6.6,2.9-1.4-3.1,6.6-2.8m0-1.5h-.6l-6.6,2.9-.8.8a1.4,1.4,0,0,0,.1,1.1l1.3,3.1a1.6,1.6,0,0,0,1.4.8h.6l6.6-2.9a1.1,1.1,0,0,0,.7-.8,1.1,1.1,0,0,0,0-1.1l-1.4-3a1.3,1.3,0,0,0-1.3-.9Z" class="cls-2"></path><polygon points="441.1 988.9 436.4 990.8 437.2 992.4 441.9 990.3 441.1 988.9" class="cls-4"></polygon><path d="M444.7,990.7a3.5,3.5,0,0,1-3.5-1.9,3,3,0,0,1,0-2.3,6.1,6.1,0,0,1,3.2-3.1,8,8,0,0,1,2.6-.5,3.6,3.6,0,0,1,3.5,1.8,3.3,3.3,0,0,1,0,2.4,5.6,5.6,0,0,1-3.2,3A5.8,5.8,0,0,1,444.7,990.7Z" class="cls-11"></path><path d="M447,983.6a2.9,2.9,0,0,1,2.8,1.4c.7,1.5-.5,3.5-2.7,4.5a7.4,7.4,0,0,1-2.4.5,2.8,2.8,0,0,1-2.8-1.5c-.7-1.4.5-3.4,2.8-4.4a6.8,6.8,0,0,1,2.3-.5m0-1.5h0a7.7,7.7,0,0,0-2.9.7,6.7,6.7,0,0,0-3.6,3.4,3.7,3.7,0,0,0,0,2.9,4.3,4.3,0,0,0,4.2,2.3,7.2,7.2,0,0,0,2.9-.6,6.8,6.8,0,0,0,3.6-3.5,3.7,3.7,0,0,0,0-2.9,4.5,4.5,0,0,0-4.2-2.3Z" class="cls-2"></path><path d="M391.8,1018.8a.5.5,0,0,1-.6-.4l-5.9-12.9a.6.6,0,0,1,0-.6.8.8,0,0,1,.4-.4l45-19.6h.3c.3,0,.5.2.7.5l5.8,12.9a.6.6,0,0,1,0,.6c-.1.1-.2.3-.4.4l-45,19.6Z" class="cls-11"></path><path d="M431,985.6l5.8,12.9-45,19.6-5.8-12.9,45-19.6m0-1.5h-.6l-45,19.6a3,3,0,0,0-.8.8,1.7,1.7,0,0,0,.1,1.2l5.8,12.9a1.5,1.5,0,0,0,1.3.9l.6-.2,45-19.6c.4-.1.6-.4.8-.8a1.4,1.4,0,0,0-.1-1.1L432.3,985a1.4,1.4,0,0,0-1.3-.9Z" class="cls-2"></path><polygon points="425.2 999.8 422.2 993.1 427.6 990.8 430.6 997.5 425.2 999.8" class="cls-2"></polygon><polygon points="394.6 1013.3 391.4 1006.4 401.3 1002.1 404.4 1009 394.6 1013.3" class="cls-2"></polygon><path d="M430.7,986.6l5.1,11.6-18.1,7.7,15.6-8.3-4-8.9-17.1,6.4C412.4,995,418.8,991.9,430.7,986.6Z" class="cls-4"></path><path d="M402.9,998.3l-16.1,7.3,5.4,12,16.4-7.3-15.5,4.8-4-9Z" class="cls-4"></path><polygon points="418.7 994.4 422.4 1001.9 415.9 1006.7 408.3 1008.2 404.9 1000.3 410.4 996 418.7 994.4" class="cls-13"></polygon><path d="M449.8,985a9.1,9.1,0,0,1-3.6,2.6,13.5,13.5,0,0,1-4.3.9s1,2.7,5.2,1S449.8,985,449.8,985Z" class="cls-4"></path><path d="M598.1,370a3.9,3.9,0,0,1-3.8-3.3c-.1-.7-9.7-66.6-16.6-84.4a3.6,3.6,0,0,1,.2-3.2,3.9,3.9,0,0,1,2.5-2,252.4,252.4,0,0,1,53.7-6l8.7.2a4,4,0,0,1,3.6,3.1c.5,2.7,13.2,64.8,12.8,85.1a3.8,3.8,0,0,1-3.7,3.8c-.5,0-42.3,1.6-56.1,6.5Z" class="cls-5"></path><path d="M634.1,275l8.5.2s13.1,64.2,12.7,84.2c0,0-42.6,1.6-57.2,6.7,0,0-9.7-66.8-16.8-85.2a247,247,0,0,1,52.8-5.9m.1-7.7v0a252.1,252.1,0,0,0-54.8,6.1,8.1,8.1,0,0,0-5,3.9,7.9,7.9,0,0,0-.3,6.4c5.5,14.5,13.7,65.2,16.3,83.5a8.1,8.1,0,0,0,3.7,5.6,8,8,0,0,0,4,1.1,7.5,7.5,0,0,0,2.6-.5c11-3.9,43.4-5.8,54.9-6.2a7.9,7.9,0,0,0,7.5-7.6c.3-20.7-12.4-83.3-12.9-86a7.8,7.8,0,0,0-7.3-6.2Z" class="cls-2"></path><path d="M586.7,282.5s35.8-7,52.8-5.1c0,0,9.6,48.8,9.7,59.5,0,0-2.3-20.2-7.1-30.1,0,0,2.1,14.1.8,23.2,0,0-6-41.3-10.2-48.8,0,0-31.1,1.5-38.1,4.6,0,0,7.5,44.3,11.3,56.6,0,0-6.5-14.6-8.7-27.1a209.6,209.6,0,0,0,1.2,23.2S592.3,310.7,586.7,282.5Z" class="cls-4"></path><path d="M599.6,331.9c-.1-.9,3.1,20.3,4.4,23.4,0,0,32.5-5.4,45.2-4.8,0,0-2.7-25.1-4.6-29.6,0,0,1.2,18.9.3,24.3l-38.2,4.2S600.8,339.1,599.6,331.9Z" class="cls-4"></path><path d="M593.1,321.4l2.7,9.7,2.6,9.7,2.5,9.7,2.4,9.7-1.9-1.2c3.4-.7,6.7-1.3,10.1-1.8s6.7-.7,10.1-.9,6.8-.3,10.2-.3a86.8,86.8,0,0,1,10.1.6l-5,1-5,.8c-3.3.6-6.6,1-9.9,1.5l-10,1.2-9.9,1.1-1.7.2-.2-1.5-2-9.8-1.8-9.9-1.7-9.9C594.1,328,593.6,324.7,593.1,321.4Z" class="cls-2"></path><path d="M575.9,793.1s-17.7-6-16-34.2c1.5-25.8,8.4-28.5,17.5-41.4,0,0-23.2,14.9-46.5,20.3l27.3,88.9Z" class="cls-3"></path><path d="M563.3,723.6s-14.7,11-17,22.5c-2.7,14-.1,29.7-.1,29.7l-14.7-36.3Z" class="cls-2"></path><path d="M420.6,535.2s15.4,56.8,27,58.7l16.8-4.8s10.2-16.4,14.8-54.4C479.2,534.7,441.5,526,420.6,535.2Z" class="cls-13"></path><path d="M437.2,593.5l8.5-1a70.8,70.8,0,0,0,8-1.6l3.9-1.1,3.8-1.4c2.6-1,5-2.3,7.7-3.5a20.7,20.7,0,0,1-6.3,6.2,29.3,29.3,0,0,1-3.9,2.1,21.6,21.6,0,0,1-4.3,1.4,26.1,26.1,0,0,1-8.8.9A23,23,0,0,1,437.2,593.5Z" class="cls-2"></path><path d="M447.4,586.1c-17.1,0-26.3-45-26.7-46.9l-.2-.9.9-.2c.8-.3,21.6-6.7,33-7.2h.8l.2.9c.9,5.2,8.4,51.1-6,54.2Z" class="cls-16"></path><path d="M454.4,531.8s8.7,50.2-5.2,53.1l-1.8.2c-16.5,0-25.7-46.1-25.7-46.1s21.3-6.6,32.7-7.2m1.6-2h-1.7c-11.5.6-32.3,7-33.2,7.2l-1.7.5.4,1.8a175.4,175.4,0,0,0,6.7,23.3c6.2,16.2,13.2,24.4,20.9,24.4a8.3,8.3,0,0,0,2.2-.3c6.9-1.5,10-11.1,9.3-29.6a215.6,215.6,0,0,0-2.6-25.7l-.3-1.7Z" class="cls-2"></path><path d="M436.9,534l-.3-2.2.5,2.2c.6,2.5,2.3,2.9,2.3.5v-2.1l.2,2.2c.3,2.5,2.2,3.6,2.4,1.4l.2-1.9v2.1c.1,2.4,1.8,4.1,2.4,2.3l.4-1.7-.2,1.9c-.3,2.2,1.4,4.5,2.1,3.1l.7-1.3-.4,1.6c-.6,1.9.9,4.7,1.9,3.7l.8-.9-.6,1.3c-.8,1.4.4,4.6,1.6,4.1l1-.5-.9,1c-1,1,0,4.4,1.2,4.4h1.1l-1,.4c-1.1.6-.5,4,.8,4.6l1.1.4h-1.1c-1.2,0-1,3.4.3,4.4l1.1,1-1.1-.5c-1.3-.5-1.5,2.6-.2,4.1l1.1,1.3-1.2-.9c-1.3-1-1.8,1.8-.7,3.7l1,1.6-1.1-1.3c-1.2-1.5-2.1.9-1.1,3l.8,2-1-1.7c-1.1-1.9-2.3-.1-1.5,2.3l.7,2.1-.9-2c-1-2.1-2.4-1-1.9,1.4l.5,2.3-.7-2.2c-.8-2.3-2.4-2-2.1.5l.2,2.2-.5-2.2c-.5-2.5-2.3-2.8-2.3-.5v2.2l-.3-2.3c-.3-2.5-2.1-3.5-2.4-1.4l-.2,2v-2.2c0-2.3-1.8-4.1-2.3-2.2l-.5,1.6.3-1.9c.2-2.2-1.4-4.5-2.2-3l-.7,1.3.5-1.7c.5-1.8-1-4.6-1.9-3.6l-.9.9.7-1.3c.7-1.5-.5-4.7-1.6-4.2l-1,.5.8-.9c1-1,.1-4.4-1.2-4.4h-1.1l1-.5c1.2-.5.6-4-.7-4.5l-1.2-.5h1.1c1.3,0,1.1-3.4-.2-4.4l-1.2-.9,1.2.5c1.3.5,1.4-2.7.2-4.2l-1.1-1.3,1.1.9c1.3,1.1,1.9-1.8.7-3.6l-1-1.7,1.1,1.3c1.3,1.5,2.2-.8,1.2-3l-.9-1.9,1,1.6c1.1,1.9,2.3.2,1.6-2.2l-.7-2.1.8,1.9c1,2.2,2.5,1.1,1.9-1.4l-.5-2.2.7,2.1C435.5,536.9,437.2,536.5,436.9,534Z" class="cls-17"></path><path d="M422.8,536.7s12.3,48.1,22.6,45.5,2-50.6,2-50.6S432.3,530.8,422.8,536.7Z" class="cls-2"></path><path d="M465.6,530.1c20.5,2.8,22.3-3.5,22.3-3.5s-2.9,7.4-8.7,8.1c0,0,.6,13.5-4.6,21.2,0,0,2-13.1-1.4-19.7,0,0-36.7-9.1-62,10.1C411.2,546.3,416.9,523.6,465.6,530.1Z" class="cls-2"></path><ellipse transform="translate(-128.8 131.6) rotate(-15.2)" ry="7.8" rx="3.3" cy="548.6" cx="429.1" class="cls-13"></ellipse><path d="M451.9,535.3a60.2,60.2,0,0,1,2.8,11.3,74.7,74.7,0,0,1,1.1,11.6,65.7,65.7,0,0,1-.7,11.7,61.7,61.7,0,0,1-3,11.2c.2-.9.5-1.8.7-2.8l.4-1.4.2-1.4.6-2.9.4-2.8a90.1,90.1,0,0,0,.5-11.6,111.3,111.3,0,0,0-.9-11.5l-.9-5.7Z" class="cls-2"></path><path d="M439.4,579.8l3.5,1.2,1.6.2a1.9,1.9,0,0,0,1.2-.4,6.3,6.3,0,0,0,2.1-2.4c.7-1,1.2-2.1,1.9-3.2a8.2,8.2,0,0,1-.6,3.8,10.8,10.8,0,0,1-.8,1.9,6.1,6.1,0,0,1-1.6,1.6,3.6,3.6,0,0,1-2.3.6,6.5,6.5,0,0,1-2.1-.6A7.5,7.5,0,0,1,439.4,579.8Z" class="cls-4"></path><path d="M409.9,516.4s29.8-14.3,61.7-10l10.5,14.2s-33.9-9.6-69.4,1.9Z" class="cls-2"></path><path d="M206.5,630a4.2,4.2,0,0,1-3-1.3,4.3,4.3,0,0,1-.9-3.3c1.4-7.4,8.2-21.4,24.1-21.4,7.7,0,13.6,2.2,17.5,6.6,5.6,6.1,4.8,14.2,4.8,14.5a3.8,3.8,0,0,1-3.8,3.5Z" class="cls-11"></path><path d="M226.7,607.9c20.1,0,18.4,16.8,18.4,16.8l-38.6,1.5s3.4-18.3,20.2-18.3h0m0-7.8v0h0c-18.4.1-26.3,16.1-27.9,24.6a7.7,7.7,0,0,0,1.8,6.5,7.8,7.8,0,0,0,5.9,2.7h.2l38.7-1.4a7.7,7.7,0,0,0,7.4-7c.1-1,.9-10.2-5.7-17.5-4.7-5.2-11.6-7.9-20.4-7.9Z" class="cls-2"></path><path d="M331,627l-1.3-.2-20.1-7.6a3.8,3.8,0,0,1-2.4-4.5c.4-2.1,11.6-50.8,20.8-64.5a14,14,0,0,1,11.5-6.5,12.6,12.6,0,0,1,8.8,3.7,11.5,11.5,0,0,1,3.1,8.3c-.3,7.9-14.9,62.3-16.6,68.4a3.9,3.9,0,0,1-2,2.5A3.4,3.4,0,0,1,331,627Z" class="cls-8"></path><path d="M339.5,547.6a7.8,7.8,0,0,1,8,7.9c-.3,7.8-16.5,67.6-16.5,67.6l-20-7.5s11.3-50,20.3-63.2a9.7,9.7,0,0,1,8.2-4.8m0-7.7h0a17.5,17.5,0,0,0-14.7,8.2c-9.4,14-20.2,60.5-21.4,65.7a7.8,7.8,0,0,0,4.8,9l20.1,7.6a8.6,8.6,0,0,0,2.7.5,7.8,7.8,0,0,0,7.5-5.8c3.9-14.2,16.4-61.3,16.8-69.3a15.7,15.7,0,0,0-4.2-11.1,16.1,16.1,0,0,0-11.6-4.8Z" class="cls-2"></path><path d="M315.8,777a3.8,3.8,0,0,1-2.5-.9,4.7,4.7,0,0,1-1.4-2.9L310.4,713a4,4,0,0,1,3.8-4c.1,0,12.4-.5,18.3-1.5,1.2-.5,4.5-3.4,7.1-5.7,10.2-9,27.2-24,45.1-24a31.3,31.3,0,0,1,10.5,1.8,8.6,8.6,0,0,1,3.3,13.7c-8.1,9.2-27.4,31.3-31.8,37.5a47,47,0,0,0-3.6,6.2c-6.7,12.6-19.2,36.2-46.8,40Z" class="cls-8"></path><path d="M384.7,681.6a24.4,24.4,0,0,1,9.1,1.7,4.6,4.6,0,0,1,1.8,7.5c-8.4,9.5-27.6,31.4-32.1,37.7-5.8,8.2-16.3,40.3-47.7,44.6l-1.5-60.2s12.9-.5,19.1-1.6,28-29.7,51.3-29.7m0-7.7h0c-19.3,0-37.1,15.6-47.7,24.9-2,1.9-4.6,4.1-5.8,5-5,.7-14,1.2-17.2,1.3a7.8,7.8,0,0,0-7.4,8l1.5,60.2a7.4,7.4,0,0,0,2.7,5.7,7.8,7.8,0,0,0,5,1.9h1c29.6-4,42.7-28.7,49.7-42,1.3-2.4,2.5-4.7,3.3-5.8,3-4.2,14.8-18.1,31.6-37.1a12.4,12.4,0,0,0-4.9-19.9,33.3,33.3,0,0,0-11.8-2.1Z" class="cls-2"></path><path d="M260.1,824.1c-39.2,0-47.5-6.8-50.3-12-4.8-8.8-1.8-29-1.4-31.3a3.9,3.9,0,0,1,2.6-3.1h0c-15.6-22-12.7-60.8-12.6-62.9a3.9,3.9,0,0,1,1.5-2.7,7.9,7.9,0,0,1-.6-2.2c-1.9-10.4-.1-27.8-.1-28.5a3.9,3.9,0,0,1,3-3.4h1.5c-10.6-24.8-.2-55.8.2-57.1a4.3,4.3,0,0,1,2.2-2.4,4.8,4.8,0,0,1,3.3.2l14.2,7.5,75.6,12.6,2.6-27.8a3.7,3.7,0,0,1,3.3-3.4,59.4,59.4,0,0,1,9.1-.7c20.8,0,24.2,12.2,24.3,12.7a3.7,3.7,0,0,1-.5,3.1c-11.2,17.6-15.6,71.5-15.7,72a3.6,3.6,0,0,1-2.2,3.2l-.8.4h.6a3.6,3.6,0,0,1,2.8,1.2,3.9,3.9,0,0,1,.9,3.8c-10.2,32.7,7.6,64.3,7.8,64.6a4.1,4.1,0,0,1-.4,4.5,61,61,0,0,1-13.2,11.2l1,.4a4,4,0,0,1,1.9,2.7c.9,5.4.7,11.1.5,18.4-.1,3.5-.2,7.4-.2,11.8a3.8,3.8,0,0,1-3.4,3.8C317.3,820.6,287.6,824.1,260.1,824.1Z" class="cls-11"></path><path d="M314.2,610.7c18,0,20.6,9.8,20.6,9.8-11.9,18.6-16.3,73.8-16.3,73.8-37.2,17.5-41.6,42.9-41.6,42.9,17.5-29.5,43-35.1,43-35.1-10.9,34.6,8.1,67.7,8.1,67.7-17.2,19.6-41.5,19.6-41.5,19.6a36,36,0,0,0,10.3,1.4,66.3,66.3,0,0,0,20.1-3.5c1.3,7.5.2,16.3.2,29.5,0,0-29.4,3.4-57,3.4-21.9,0-42.6-2.1-46.9-9.9s-1-28.9-1-28.9a24.6,24.6,0,0,0,16.5,6.5,14.6,14.6,0,0,0,2.6-.2c-34.1-8.8-29-72.6-29-72.6,5.5,5.9,19,6.7,26.1,6.7h4.4s-27.9-2.3-29.7-12.4,0-27.6,0-27.6c7.7,11.5,23.2,13.7,34,13.7a71.1,71.1,0,0,0,11.6-.9H247c-6.7,0-32.1-1.1-39.4-17.5-10.7-23.8,0-55.1,0-55.1l14.7,7.8,80.4,13.4,2.9-31.9a70.5,70.5,0,0,1,8.6-.6m5.7,91.4h0m-5.7-99.2a68.1,68.1,0,0,0-9.7.7,7.8,7.8,0,0,0-6.6,7l-2.2,23.6-70.9-11.9-13.6-7.1a7.7,7.7,0,0,0-3.6-.9,9.3,9.3,0,0,0-2.9.5,8.3,8.3,0,0,0-4.5,4.7c-.4,1.3-10.2,30.6-1.6,55.9a7.7,7.7,0,0,0-3.2,5.6c-.1.7-1.9,18.6.1,29.6a1.3,1.3,0,0,0,.1.6,7.5,7.5,0,0,0-1,3.3,152.3,152.3,0,0,0,1.8,34.9c2.1,11.9,5.5,20.8,9.5,27.5a7.9,7.9,0,0,0-1.3,3.3,102.5,102.5,0,0,0-1.2,12.3c-.5,9.8.5,16.9,3,21.5,3.6,6.5,12.9,14,53.7,14,27.8,0,56.7-3.4,58-3.5a7.8,7.8,0,0,0,6.8-7.7c0-4.3.1-8.2.2-11.7.2-7.5.4-13.4-.6-19.1a6.6,6.6,0,0,0-.6-2,64.4,64.4,0,0,0,10-9.1,7.9,7.9,0,0,0,.9-9c-.2-.3-17.1-30.5-7.6-61.3a6.9,6.9,0,0,0,.4-2.5,7.6,7.6,0,0,0-1.9-5.1,7.3,7.3,0,0,0,.5-2c1.2-14.9,6.2-56.4,15.1-70.3a7.8,7.8,0,0,0,1-6.1c-1.5-5.9-9.1-15.7-28.1-15.7Z" class="cls-2"></path><path d="M233,680c-8.1,0-17.5-7.1-19.6-20.7-3.7-24.1-2.7-38,3.4-45.1a14.1,14.1,0,0,1,11.1-4.9h1.5c8.8.7,12.7,9.8,13.6,15.1a4.9,4.9,0,0,1,.1,1.2c-.1.2-3.2,22.2.7,38.1,1.5,6.2-.2,10.1-1.9,12.2A11,11,0,0,1,233,680Z" class="cls-8"></path><path d="M227.9,613.2h1.2c8.2.6,10.1,11.8,10.1,11.8s-3.3,22.8.8,39.6c1.9,7.6-1.9,11.5-7,11.5s-13.9-5.7-15.8-17.4c-3.2-21-4.8-45.5,10.7-45.5m0-7.8h0a18,18,0,0,0-14.1,6.3c-6.9,8.1-8.2,22.5-4.2,48.2,2.4,15.7,13.6,24,23.4,24a15.2,15.2,0,0,0,12-5.6c3.1-4,4-9.5,2.5-15.6-3.7-15-.6-36.3-.6-36.5a10.5,10.5,0,0,0,0-2.5c-1.1-6.3-6-17.4-17.2-18.2Z" class="cls-2"></path><path d="M239.2,625c-6.5-6.8-20.9,1.3-23.6,3,1.2-9.2,5-15.5,13.5-14.8S239.2,625,239.2,625Z" class="cls-4"></path><path d="M263.5,684.5c-9.2,0-16-3.9-19-10.9-5.5-12.9-8.9-36.1-.2-59a3.6,3.6,0,0,1,1.5-1.9,23.7,23.7,0,0,1,12.7-3.4,28,28,0,0,1,6.4.8c8.5,2.1,9.8,19.1,10.9,46.9.4,8.8.7,17.1,1.5,21.4a3.8,3.8,0,0,1-2.6,4.4A38.9,38.9,0,0,1,263.5,684.5Z" class="cls-8"></path><path d="M258.5,613.2a22.4,22.4,0,0,1,5.5.7c9.3,2.2,6.8,50.9,9.5,65.2a36.1,36.1,0,0,1-10,1.5c-5.8,0-12.5-1.7-15.4-8.5-5.7-13.3-7.9-35.6-.2-56.2a21.1,21.1,0,0,1,10.6-2.7m0-7.7h0a29.1,29.1,0,0,0-14.8,3.9,7.1,7.1,0,0,0-3,3.8c-9.1,24-5.5,48.4.3,61.9,3.6,8.5,11.6,13.2,22.5,13.2a45.1,45.1,0,0,0,12.4-1.8,7.7,7.7,0,0,0,5.2-8.8c-.7-4.1-1-12.2-1.4-20.8-1.2-30.4-2.4-47.8-13.9-50.6a36.3,36.3,0,0,0-7.3-.8Z" class="cls-2"></path><path d="M269,623.1c-8.5-5.9-17.1-4.4-22.8-2,.5-1.8,1.1-3.5,1.7-5.2a21.9,21.9,0,0,1,16.1-2C266.3,614.5,267.9,618,269,623.1Z" class="cls-4"></path><path d="M286.5,683a12.8,12.8,0,0,1-10.1-5c-10.7-12.7-8.5-48.5-5.8-63.8a10.7,10.7,0,0,1,6-7.4c3.7-2,14.6-4.4,21-4.4,3.3,0,5.4.6,6.8,2.1a4.3,4.3,0,0,1,1.3,3.6l-.3,5.4c-1.2,21.7-2.6,46.3-1.3,58.1a6.2,6.2,0,0,1-.1,1.3c0,.4-2.3,10.1-17.5,10.1Z" class="cls-8"></path><path d="M297.6,606.2c2.6,0,4.3.5,4.3,1.7-1.3,22.6-3.1,51-1.7,64.1,0,0-1.5,7.1-13.7,7.1-16.4,0-15.9-42.8-12.1-64.2a6.8,6.8,0,0,1,3.9-4.7c3.2-1.6,13.4-4,19.3-4m0-7.7h0c-6.6,0-18.1,2.4-22.8,4.8a14.5,14.5,0,0,0-8,10.2c-2.4,13.6-5.9,52.1,6.6,67a16.7,16.7,0,0,0,13.1,6.4c14.6,0,20.3-8.3,21.3-13.2a11,11,0,0,0,.2-2.5c-1.3-11.5.1-37,1.3-57.5l.3-5.4a8.4,8.4,0,0,0-2.4-6.5c-2.8-3-6.8-3.3-9.6-3.3Z" class="cls-2"></path><g class="cls-7"><path d="M207.6,677.1c-10.1-24,0-55.1,0-55.1l5,2.7c-2.3,10.9-10,52.6,27.9,61.1,0,0,.1,5.1-13.3,6.1C219.7,688.6,211.6,686.8,207.6,677.1Z" class="cls-18"></path></g><g class="cls-7"><path d="M202.3,715.1c5.4,5.8,18.4,6.7,25.6,6.7a25.3,25.3,0,0,0,8.1,1.6s-11.7,10.9-27.6,12.1c0,0,4.2,37.1,21.9,51.9C197.3,777.7,202.3,715.1,202.3,715.1Z" class="cls-18"></path></g><g class="cls-7"><path d="M203.1,709.3c-1.8-10.1,0-27.5,0-27.5,4.7,7,12.8,9.6,20.5,12.3-3.5.1-7-.8-13.2-4,0,0,16.6,15.1,32.5,14.7,0,0-20.5,2.4-32.5,0a32.2,32.2,0,0,0,14.8,15.9C216.8,719.2,204.3,715.9,203.1,709.3Z" class="cls-18"></path></g><g class="cls-7"><path d="M328,769.8c-14.1,16-33,19-39.3,19.5-2.3-1.6-4.7-3.6-7.4-5.8,0,0,19-.7,37.7-15.5,0,0-11.3-32.2-10.1-45.7,0,0-28.3,20.5-33,26.3,0,0,10.5-24.3,22.3-31.3a74.2,74.2,0,0,0-10.8,5.7c15.7-17.2,32.5-20.9,32.5-20.9C309,736.7,328,769.8,328,769.8Z" class="cls-18"></path></g><g class="cls-7"><path d="M316.9,787.3c1.3,7.5.3,16.3.3,29.4,0,0-94.4,11.2-104-6.4-4.3-8-1-28.9-1-28.9a24.3,24.3,0,0,0,18.6,6.4,25,25,0,0,0,5.6,3.5s-10.3,2.4-17.7.6c0,0-11.1,19.2,30.4,19.2s57.9-2.4,57.1-11.7c0,0-6.2-1.9-16.3-9.2C302.7,792.5,316.9,787.3,316.9,787.3Z" class="cls-18"></path></g><g class="cls-7"><path d="M280.1,728.6a14.4,14.4,0,0,0-3,3.6,82.7,82.7,0,0,1,29.8-40s4.5-25.4,12-37c-.8,1-14.1,15.9-15.6,25.4.4-3.9,5.8-45.4,25.9-57.5,0,0-16.1-1.4-24.5-1.9l.9-9.9c25.9-3.6,29.2,9.2,29.2,9.2-11.9,18.6-16.3,73.8-16.3,73.8-23.5,11-33.9,25.3-38.4,34.2Z" class="cls-18"></path></g><path d="M211,741.1s23.8-4.1,47.8-26.6c0,0-4.8,6.7-16,15.3-4.7,3.5-7.6,13.1,3,8.4s6.4-4.9,17.4-7.4c0,0-29.5,15.8-41.6,28.8,0,0,3.3-10,7.1-16.4C229.5,742,227.7,737,211,741.1Z" class="cls-19"></path><path d="M304.9,728.9s-11,8-29.9,28.3c0,0,10.3-9.9,18.2-6.5s-7.1,8.8-13.5,15c0,0,16.1-2.5,21.4-8.5s-6.4,18.2-33.2,24.2c0,0,32.7-6.8,46.4-15.3a43.9,43.9,0,0,0-13.4,1.4c-7,1.9,9.3-10.9,11.9-13.7C312.8,753.8,294.8,755.1,304.9,728.9Z" class="cls-19"></path><path d="M284.1,749.4s12.6-10.7,16.1-13.1c0,0-.8,11.5,3.1,17,0,0-11.7,10-18.5,10.1,0,0,14.7-6.3,11-13.5C293.1,744.6,284.1,749.4,284.1,749.4Z" class="cls-20"></path><path d="M301.9,607.9c-.2,2.8-.3,5.6-.5,8.5-10-2.5-21.7,1.7-27.9,4.5q.5-3.3.9-6a6.8,6.8,0,0,1,3.9-4.7C282.9,607.9,302.1,604,301.9,607.9Z" class="cls-4"></path><path d="M395.6,690.8c-8.4,9.5-27.6,31.4-32.1,37.7-3.4,4.7-8.3,17.6-18,28.3h0c.4-12.7,28.9-50.6,39.4-60.9s5.6-13.6,5.6-13.6a20.7,20.7,0,0,1,3.3,1A4.6,4.6,0,0,1,395.6,690.8Z" class="cls-4"></path><path d="M347.5,555.5c0,.3-.1.8-.1,1.3a33.5,33.5,0,0,0-16.3-4.2c.1-.1.1-.2.2-.2C336.9,543.9,347.8,547.8,347.5,555.5Z" class="cls-4"></path><path d="M207.6,677.1c-4.8-10.6-5.3-22.8-4.4-32.9,1.9,31.9,7.5,37.5,28.7,48.9C222.5,691.1,211.9,686.8,207.6,677.1Z" class="cls-4"></path><path d="M229.8,721.8l3.7,1.8s-23.9.2-28.1-2.9c0,0-.5,14.1-1.2,28.4a148.4,148.4,0,0,1-1.9-34C208.2,721.4,223.3,721.9,229.8,721.8Z" class="cls-4"></path><path d="M203.1,709.3c-1.8-10.1,0-27.5,0-27.5,7.7,11.4,23.1,13.6,33.8,13.6l3.6,1.3s-26.3-.2-34.8-6.8c0,0-1.8,16.2,2.3,21.3s16.3,7.6,20.7,10C220.9,720.1,204.4,717,203.1,709.3Z" class="cls-4"></path><path d="M230.5,815.8A137.3,137.3,0,0,0,249,820c-17.4-.7-32.3-3.3-35.8-9.7a18.8,18.8,0,0,1-1.7-5.8A45.6,45.6,0,0,0,230.5,815.8Z" class="cls-4"></path><path d="M321.9,755.5c-11.4-14.8-10-41-10-41-12-3.5-33.7,21.8-33.7,21.8,1-3.2,3-4.7,4.6-7.9,16.9-21.8,37.1-26.3,37.1-26.3C313.4,722.6,317.5,742.6,321.9,755.5Z" class="cls-4"></path><path d="M318.5,694.3a98.7,98.7,0,0,0-21.9,13.8c7.3-8.9,17.7-16.2,17.7-16.2,3.8-8.7,6-25.8,9.4-36.6C320,675,318.5,694.3,318.5,694.3Z" class="cls-4"></path><path d="M532.2,633.1a10.2,10.2,0,0,0-.9-2.2h0l7.7-22.6L519.4,622h0l-2.4-.3h0l-15.7-18,2.1,23.8h0l-1.5,2h.1l-23.5,4.6,21.7,10.1h0a20.4,20.4,0,0,0,.9,2.2h0L493.4,669,513,655.3h0l2.4.3h0l15.7,18L529,649.8c.6-.7,1-1.3,1.5-2h0l23.4-4.6-21.7-10.1Z" class="cls-9"></path><path d="M530.4,595.2a2,2,0,0,0,.1-.7h0l4.8-4.6-6.6.8h0l-.5-.3h0l-1.6-6.5-2.5,6.1h0l-.7.3h.1l-6.4-1.9,4,5.3h0a1.7,1.7,0,0,1-.1.7h0l-4.8,4.6,6.6-.9h0l.6.4h0l1.5,6.5,2.6-6.2a.9.9,0,0,0,.6-.3h0l6.4,1.8-4-5.3Z" class="cls-9"></path><path d="M558.7,625.4l.6-.3h0l6.4,2-4-5.4h0a1.3,1.3,0,0,1,.1-.6h0l4.8-4.6-6.6.8h0l-.6-.4h.1l-1.5-6.5-2.7,6.2h0a.9.9,0,0,0-.6.3h0l-6.3-1.9,4,5.3h0a2,2,0,0,0-.1.7h0l-4.9,4.5,6.6-.7.6.3h0l1.5,6.5,2.6-6.1Z" class="cls-9"></path><path d="M592.1,1022.4l.6-1.3c6.4-15.1,12.4-31,17.7-47.5,3.8-11.8,7.3-24,10.5-36.3s6-24.5,8.5-37c.9-4.6,1.8-9.1,2.6-13.4a890.4,890.4,0,0,0,11.7-92.8c1.4-18.6,2.2-37.9,2.6-57.3,1.1-68.5-4.7-117.3-5.3-122.6v-1.1h1l9.7-.5v1a7.3,7.3,0,0,1,.2,1.5c.1.4.1.9.2,1.5s.2,2.2.3,3.7.1.5.1.8.1.9.1,1.4l.2,1.6c.5,5.6,1.2,14.9,1.9,26.6v2.1c1.5,28,2,56.8,1.4,85.5-.4,19.2-1.3,38.3-2.6,56.9-.6,7.7-1.2,15.3-1.9,22.5-.3,3.1-.6,6.3-1,9.4s-.7,6.4-1,9.6-1.2,9.4-1.9,14.7c-.4,3.3-.9,6.6-1.4,10-.2,1.7-.4,3.3-.7,5-.5,3.4-1,6.8-1.6,10.2-1.8,11.4-3.9,22.7-6.2,33.8-.9,4.2-1.8,8.6-2.9,13.4-2.8,12.4-5.9,24.7-9.2,36.5-2.8,9.8-5.8,19.5-9,28.9-3.8,11.2-7.9,22.2-12.2,32.7l-.2.6Z" class="cls-5"></path><path d="M650.7,613.5h0c0,.1,0,.6.1,1.6s.1.9.2,1.5h0q.2,1.5.3,3.6a2.8,2.8,0,0,1,.1.9c.1.6.1,1.3.2,1.9s.1.7.1,1.1c.6,6.3,1.3,15.4,1.9,26.6,0,.7.1,1.4.1,2.1,1.2,21.7,2.2,51.2,1.5,85.4-.4,17.8-1.2,36.9-2.7,56.8-.5,7.3-1.2,14.8-1.9,22.5l-.9,9.4c-.4,3.2-.7,6.4-1.1,9.6q-.9,7.2-1.8,14.7c-.5,3.3-.9,6.6-1.4,9.9-.3,1.7-.5,3.4-.8,5.1q-.7,4.9-1.5,10.2c-1.8,11-3.9,22.3-6.2,33.7-1,4.4-1.9,8.9-2.9,13.4-2.8,12.1-5.8,24.2-9.3,36.4-2.7,9.7-5.7,19.3-8.9,28.9s-7.7,21.9-12.1,32.6H593.6c6.7-15.6,12.6-31.5,17.7-47.5,3.9-12.1,7.4-24.3,10.5-36.3s6.1-24.9,8.5-37.1c.9-4.5,1.8-9,2.6-13.4a871.4,871.4,0,0,0,11.8-92.9c1.4-20.1,2.2-39.4,2.5-57.4,1.2-71.6-5.2-122.2-5.3-122.8l8.8-.5m1.9-2h-2l-8.8.5h-2l.2,2h0c.7,5.3,6.4,54,5.3,122.5-.3,19.3-1.2,38.6-2.6,57.3A860.5,860.5,0,0,1,631,886.7c-.8,4.4-1.7,8.8-2.6,13.4-2.5,12.5-5.3,24.9-8.4,37s-6.7,24.4-10.5,36.2c-5.3,16.4-11.3,32.4-17.7,47.4l-1.2,2.7H605l.4-1.2c4.4-10.5,8.5-21.5,12.2-32.8,3.2-9.4,6.2-19.2,9-29,3.3-11.7,6.5-24,9.3-36.5,1-4.8,2-9.2,2.9-13.4,2.2-11.1,4.3-22.5,6.2-33.8.5-3.4,1-6.8,1.6-10.2.2-1.7.5-3.4.7-5.1.5-3.3.9-6.7,1.4-10,.7-5.3,1.3-10.1,1.8-14.7s.8-6.4,1.1-9.6.7-6.5.9-9.4c.7-7.2,1.4-14.8,1.9-22.5,1.4-18.6,2.3-37.8,2.7-57,.6-28.7.1-57.5-1.4-85.5l-.2-2.1c-.6-11.8-1.4-21-1.9-26.7v-1.6a6.6,6.6,0,0,1-.1-1.4h0a2.5,2.5,0,0,1-.1-.8c-.1-1.4-.3-2.6-.4-3.6h0c0-.6-.1-1.1-.1-1.5s-.2-1.3-.2-1.5v-1.9Z" class="cls-2"></path><path d="M655.2,738.2c-.4,17.8-1.2,36.9-2.7,56.8-.5,7.3-1.2,14.8-1.9,22.5l-.9,9.4c-.4,3.2-.7,6.4-1.1,9.6q-.9,7.2-1.8,14.7c-.5,3.3-.9,6.6-1.4,9.9-.3,1.7-.5,3.4-.8,5.1q-.7,4.9-1.5,10.2c-1.8,11-3.9,22.3-6.2,33.7-1,4.4-1.9,8.9-2.9,13.4-2.8,12.1-5.8,24.2-9.3,36.4-2.7,9.7-5.7,19.3-8.9,28.9s-7.7,21.9-12.1,32.6h-3.8a376,376,0,0,0,14.2-36.8c3.3-9.7,6.3-19.6,9.1-29.4,3.7-13.2,7-26.3,9.7-38.4,1-4.5,2-9,2.8-13.2,2.8-13.9,4.8-25.9,5.8-34.6,6.3-44,9.3-90,10.2-131.4,1.3-53.5-.9-99.4-3.7-123.9l2.7-.2c0,.1,0,.6.1,1.6s.1.9.2,1.5h0q.2,1.5.3,3.6a2.8,2.8,0,0,1,.1.9c.1.6.1,1.3.2,1.9s.1.7.1,1.1c.5,6.3,1.3,15.3,1.9,26.6C654.9,672.6,655.9,702.9,655.2,738.2Z" class="cls-4"></path><path d="M647.9,874h-.3a97.1,97.1,0,0,0-16.1-2.8.8.8,0,0,1-.7-.3,1.1,1.1,0,0,1-.3-.8c.1-.2,3.4-25.2,3.9-33.7.1-.5.4-.9.9-.9s3.1-.3,6.5-.3c5.2,0,8.6.6,10.3,1.8s.4.5.4.8-1.6,26.2-3.7,35.4a.9.9,0,0,1-.4.6Z" class="cls-5"></path><path d="M641.8,836.2c3.7,0,7.9.3,9.7,1.6,0,0-1.5,26-3.6,35.2,0,0-10-2.5-16.4-2.7,0,0,3.4-25.3,3.9-33.9,0,0,3-.2,6.4-.2m0-2h0c-3.5,0-6.5.3-6.6.3a1.9,1.9,0,0,0-1.7,1.8c-.6,8.5-3.9,33.5-3.9,33.7a2,2,0,0,0,.4,1.5,2.1,2.1,0,0,0,1.4.7c6.2.3,15.9,2.7,16,2.7h.5a1.9,1.9,0,0,0,1-.3,2,2,0,0,0,.8-1.2c2.2-9.3,3.7-34.6,3.8-35.6a1.9,1.9,0,0,0-.9-1.7c-1.8-1.3-5.4-2-10.8-2Z" class="cls-2"></path><path d="M641.2,840.9l4.7.4s-.5,16.5-2.8,23.6c0,0,1.3-13.2.5-16.6,0,0-2.3,12.2-4.4,16.4C639.2,864.7,642.5,849.9,641.2,840.9Z" class="cls-13"></path><path d="M639.7,839.7a29.9,29.9,0,0,1,.7,6.7,51.6,51.6,0,0,1-.3,6.8,50.9,50.9,0,0,1-1.2,6.6,34.3,34.3,0,0,1-2.1,6.4c.1-2.2.4-4.4.6-6.6l.8-6.7.7-6.6C639.2,844.1,639.4,841.9,639.7,839.7Z" class="cls-4"></path><g class="cls-7"><path d="M647.2,841.3a50.5,50.5,0,0,1,.6,6.8,57.7,57.7,0,0,1-1.8,13.5,34.1,34.1,0,0,1-2.4,6.3c.4-2.2.9-4.4,1.3-6.6s.7-4.4,1-6.6C646.5,850.2,646.8,845.8,647.2,841.3Z" class="cls-18"></path></g><path d="M636.4,837.4s9.9-1,13.9,1.3c0,0,.1,11.1-1.3,17.6,0,0-.1-14.4-.7-16.2,0,0-6.5-1.3-10.3-.9,0,0-.8,13.1-3,16.4C635,855.6,636.9,840.7,636.4,837.4Z" class="cls-9"></path><path d="M637,853.4s-3.1,10.6-4.2,15.4c0,0,10,.9,14.1,2.6,0,0,2-8.6,1.4-14.4,0,0-1.5,8.7-2.5,11.2,0,0-8.3-1.4-10.3-1.3C635.5,866.9,637.3,856.9,637,853.4Z" class="cls-9"></path><path d="M401.4,1022.4a1.1,1.1,0,0,1-.8-.3,1.1,1.1,0,0,1-.2-.8c.8-4.8,1.6-9.2,2.4-13.5v-.9c7.8-43.1,16.5-79.6,23.2-106.6,26.5-106.2,48.9-156.2,49.1-156.7a1.1,1.1,0,0,1,.9-.5h10.5c.4,0,.7.1.8.4a.8.8,0,0,1,.1.9h0c-1,2.2-2.3,5.1-3.6,8.3a3,3,0,0,0-.4,1c-2.8,6.6-7.2,17.7-12.7,33l-.9,2.6-2.9,8.2-1,2.9-1.6,4.9-1.9,5.9c-.6,1.6-1.1,3.2-1.6,4.9l-2.2,6.8c-.5,1.7-1.1,3.5-1.6,5.3l-1.1,3.6-2.4,7.9c-.4,1.2-1.2,4-1.2,4-.5,1.8-1.1,3.6-1.6,5.4l-.9,3.2s-1.1,3.6-1.4,5l-3,10.7c-.8,2.7-1.5,5.5-2.3,8.3,0,0-.5,2-.8,2.9l-1.2,4.6-1.8,7c-1,4-2.1,8.1-3.1,12.2s-2.2,9.1-3.2,13l-2.1,9-1.6,7a14.6,14.6,0,0,1-.5,2v.4c-.6,2.3-1.1,4.7-1.6,7.1h0c-.6,2.4-1.1,4.8-1.6,7.3h0c-.6,2.5-1.1,5-1.6,7.5h0c-.3,1.1-.5,2.2-.7,3.2l-.9,4.5c-.1.3-.1.5-.2.8l-.9,4.4-1,5.3-.3,1.6-.2,1.1c-.4,1.7-.7,3.5-1.1,5.3h0c-.3,1.8-.7,3.6-1,5.4h0c-.5,2.5-1,5-1.4,7.5h-.1v.6c-.1,0-.1.1-.1.2s-.1.5-.1.7c-.5,2.6-1,5.2-1.4,7.8-.2.9-.3,1.8-.5,2.6h0l-1.5,8.6h0v.5c0,.2-.1.5-.1.8l-.7,3.8a.9.9,0,0,1-.9.8Z" class="cls-5"></path><path d="M486.6,744c0,.2-1.3,2.9-3.6,8.4a4.2,4.2,0,0,0-.4,1c-3,7.1-7.4,18.1-12.7,33.1l-.9,2.6-2.9,8.2c-.3,1-.6,1.9-1,2.9s-1,3.2-1.6,4.9-.9,2.8-1.4,4.3a7.5,7.5,0,0,0-.5,1.6c-.6,1.6-1.1,3.2-1.6,4.9s-1.5,4.5-2.2,6.8-1.1,3.5-1.7,5.3-.7,2.4-1.1,3.6l-2.4,8c-.3,1.1-.6,2.2-1,3.4l-1.7,5.9-1.2,4.1-1.2,4.1-3,10.7c-.7,2.8-1.5,5.6-2.2,8.4-.3.9-.5,1.9-.8,2.8l-1.2,4.6-1.8,7.1c-1.1,4-2.1,8-3.1,12.2s-2.1,8.5-3.2,13a17.4,17.4,0,0,0-.5,2.2c-.6,2.2-1.1,4.5-1.6,6.8s-1.1,4.6-1.6,7l-.6,2.4c-.5,2.3-1.1,4.7-1.6,7.2h0c-.5,2.4-1.1,4.8-1.6,7.3h0c-.5,2.5-1.1,5-1.6,7.5h0l-.6,3.2c-.3,1.5-.7,2.9-1,4.4s-.1.6-.1.8l-.9,4.5h0c-.4,1.8-.7,3.5-1.1,5.3a25.6,25.6,0,0,1-.5,2.7c-.4,1.8-.7,3.5-1,5.3h0c-.4,1.8-.7,3.6-1.1,5.4h0c-.5,2.5-.9,5-1.4,7.6h0c0,.2-.1.5-.1.7h0c-.1.3-.1.6-.2.8-.4,2.6-.9,5.2-1.4,7.9-.1.9-.3,1.7-.4,2.6h0q-.9,4.4-1.5,8.7h0l-.3,1.3a6.8,6.8,0,0,1-.2,1.4c-.1.8-.3,1.6-.4,2.4h-9.5c.7-4.5,1.5-9,2.3-13.4.1-.3.1-.6.2-.9,7.2-40.4,15.4-75.4,23.2-106.6,26.5-106.2,48.7-155.9,49-156.5h10.5m0-1.9H476.1a2,2,0,0,0-1.8,1.1c-.2.5-22.6,50.5-49.1,156.8-6.7,27.1-15.5,63.6-23.2,106.7l-.2.9c-.8,4.3-1.5,8.7-2.3,13.5a1.8,1.8,0,0,0,.4,1.6,2.1,2.1,0,0,0,1.5.7h9.5a2,2,0,0,0,1.9-1.6l.2-1.2c.1-.4.1-.9.2-1.3l.2-1.3c.1-.3.1-.6.2-.9v-.5h0c.5-3,1-5.8,1.5-8.5h0c.1-.9.3-1.7.4-2.6.5-2.5.9-5.1,1.4-7.8a6.4,6.4,0,0,1,.2-.7v-.3c0-.1,0-.2.1-.2v-.4c.5-2.5,1-5.1,1.4-7.5h0c.4-1.8.7-3.6,1.1-5.4h0c.3-1.7.7-3.5,1-5.2l.2-1.1.3-1.6.6-2.9.5-2.4h0l.9-4.4c0-.2.1-.4.1-.7h0c.3-1.5.7-2.9,1-4.4l.6-3.2h0c.6-2.5,1.1-5,1.6-7.5h0c.5-2.4,1.1-4.8,1.6-7.2h0c.6-2.4,1.1-4.8,1.6-7.1v-.4c.2-.7.3-1.3.5-2s.9-4.3,1.4-6.4l.2-.5c.4-1.9.8-3.6,1.2-5.4l.4-1.5.3-1.2.2-1c.9-3.8,1.9-8,3.2-13s2-8.2,3-12.1,1.3-4.8,1.9-7.1l1.2-4.6c.2-.9.5-1.8.7-2.7h0c.8-2.7,1.5-5.4,2.3-8.3s2.1-7.7,3-10.7l1.2-4.2.2-.8.9-3.2c.6-1.8,1.1-3.7,1.6-5.4l.2-.6c.3-1.1.6-2.2,1-3.4l2.4-7.9.6-2.1.5-1.5c.6-1.8,1.1-3.6,1.7-5.3s1.4-4.6,2.1-6.8,1.1-3.3,1.6-4.9.3-1.1.5-1.6a18.7,18.7,0,0,0,.7-2.2,17.2,17.2,0,0,0,.7-2.1c.4-1.1.7-2.1,1.1-3.1l.6-1.8.4-1.4.5-1.5,2.9-8.2c.1-.4.3-.8.4-1.1a8.8,8.8,0,0,0,.5-1.5c5.5-15.3,9.9-26.3,12.6-32.9a9.3,9.3,0,0,1,.5-1c1.3-3.2,2.6-6.1,3.5-8.3h.1a1.9,1.9,0,0,0-.1-1.8,2,2,0,0,0-1.7-.9Zm0,3.9Z" class="cls-2"></path><path d="M486.6,744c0,.2-1.3,2.9-3.6,8.4a4.2,4.2,0,0,0-.4,1c-3,7.1-7.4,18.1-12.7,33.1l-.9,2.6-2.9,8.2c-.3,1-.6,1.9-1,2.9s-1,3.2-1.6,4.9-.9,2.8-1.4,4.3a7.5,7.5,0,0,0-.5,1.6c-.6,1.6-1.1,3.2-1.6,4.9s-1.5,4.5-2.2,6.8-1.1,3.5-1.7,5.3-.7,2.4-1.1,3.6l-2.4,8c-.3,1.1-.6,2.2-1,3.4l-1.7,5.9-1.2,4.1-1.2,4.1-3,10.7c-.7,2.8-1.5,5.6-2.2,8.4-.3.9-.5,1.9-.8,2.8l-1.2,4.6-1.8,7.1c-1.1,4-2.1,8-3.1,12.2s-2.1,8.5-3.2,13a17.4,17.4,0,0,0-.5,2.2c-.6,2.2-1.1,4.5-1.6,6.8s-1.1,4.6-1.6,7l-.6,2.4c-.5,2.3-1.1,4.7-1.6,7.2h0c-.5,2.4-1.1,4.8-1.6,7.3h0c-.5,2.5-1,5-1.6,7.5h0l-.6,3.2c-.3,1.5-.7,3-1,4.4s-.1.6-.1.8l-.9,4.5h0c-.4,1.8-.7,3.5-1.1,5.3a25.6,25.6,0,0,1-.5,2.7c-.3,1.8-.7,3.5-1,5.3h0c-.4,1.8-.7,3.6-1.1,5.4h0c-.4,2.5-.9,5-1.4,7.6,0,.2-.1.5-.1.7h0c-.1.3-.1.6-.2.8h0c-.4,2.6-.9,5.2-1.4,7.9-.1.9-.3,1.7-.4,2.6h0l-1.5,8.7h0l-.3,1.3a6.8,6.8,0,0,1-.2,1.4c-.1.8-.3,1.6-.4,2.4h-3.7c.9-6.6,2-13.2,3-19.5a5.1,5.1,0,0,1,.2-1.3c4.2-26.5,8.5-49.5,12-59.7,2.6-7.7,21.9-91.1,25-99.8s24.9-77.8,34.9-97.1Z" class="cls-4"></path><path d="M638.8,612.3h-4A93.6,93.6,0,0,1,638.7,425h4a93.6,93.6,0,0,1-3.9,187.2Z" class="cls-21"></path><path d="M638.7,428.9h3.8a89.7,89.7,0,0,1-3.7,179.4H635a89.8,89.8,0,0,1,3.7-179.5m0-7.7a97.5,97.5,0,0,0-4,194.9h4.1a97.5,97.5,0,0,0,4-195Z" class="cls-2"></path><path d="M638.8,599.5h-3.4a80.5,80.5,0,0,1,3.3-160.9h3.4a80.5,80.5,0,0,1-3.3,160.9Z" class="cls-5"></path><path d="M638.7,442.4H642a76.6,76.6,0,0,1-3.2,153.1h-3.3a76.6,76.6,0,0,1,3.2-153.1m0-7.7a84.3,84.3,0,0,0-3.5,168.6h3.6a84.4,84.4,0,0,0,3.5-168.7Z" class="cls-2"></path><path d="M638.8,568h-2.1a49.4,49.4,0,0,1,2-98.7h2.1a49.3,49.3,0,0,1-2,98.6Z" class="cls-11"></path><path d="M638.7,473.2h2a45.5,45.5,0,0,1-1.9,90.9h-2a45.5,45.5,0,0,1,1.9-90.9m0-7.7h0a53.2,53.2,0,0,0-2.2,106.4h2.3a53.3,53.3,0,0,0,53.1-51A53.2,53.2,0,0,0,641,465.5Z" class="cls-2"></path><path d="M601.7,519.7s-2,40.1,37.6,40.1,36.5-42.6,36.5-42.6Z" class="cls-12"></path><path d="M638.8,551.6h-1.4a32.9,32.9,0,0,1,1.3-65.8h1.4a32.9,32.9,0,0,1-1.3,65.8Z" class="cls-11"></path><path d="M638.7,489.6H640a29,29,0,0,1-1.2,58h-1.3a29.1,29.1,0,0,1,1.2-58.1m0-7.7a36.9,36.9,0,0,0-27.1,61.7,37.4,37.4,0,0,0,25.6,11.9h1.6a36.8,36.8,0,0,0,1.5-73.6Z" class="cls-2"></path><path d="M613.5,512.1a33.8,33.8,0,0,1,9.6-13.7,23.8,23.8,0,0,1,7.6-4.3A17,17,0,0,1,635,493a22.6,22.6,0,0,1,4.5-.2,23.5,23.5,0,0,1,15.9,6.6,28.1,28.1,0,0,1,8.2,14.7,38.5,38.5,0,0,0-10.1-12.4l-3.3-2.1a20.7,20.7,0,0,0-3.4-1.5,23.8,23.8,0,0,0-7.5-1.5,24.4,24.4,0,0,0-14.4,4.2,48.5,48.5,0,0,0-6.1,5.1A64,64,0,0,0,613.5,512.1Z" class="cls-13"></path><path d="M663.6,524.3a27.9,27.9,0,0,1-3.8,7.5,31.2,31.2,0,0,1-5.8,6.3,25.8,25.8,0,0,1-7.6,4.3,27,27,0,0,1-4.3,1.1,31.7,31.7,0,0,1-4.4.2,24.8,24.8,0,0,1-16-6.7,28.9,28.9,0,0,1-8.2-14.6,40.9,40.9,0,0,0,10.2,12.3,22,22,0,0,0,3.2,2.1l3.5,1.6a26.9,26.9,0,0,0,7.4,1.4,23.4,23.4,0,0,0,14.4-4.2,32.5,32.5,0,0,0,6.1-5A40.2,40.2,0,0,0,663.6,524.3Z" class="cls-12"></path><path d="M592.5,466.7a62.2,62.2,0,0,1,20.4-15.4,60.2,60.2,0,0,1,12.3-4.4,56.5,56.5,0,0,1,13-1.7,69.9,69.9,0,0,1,13,1.3c2.2.4,4.3,1,6.4,1.6l3.1,1.1,3,1.2a63.1,63.1,0,0,1,11.3,6.4,48.5,48.5,0,0,1,9.3,8.8,62.2,62.2,0,0,0-10.4-7.2,77.1,77.1,0,0,0-11.3-5.2,70.3,70.3,0,0,0-24.4-4.1,62.4,62.4,0,0,0-12.2,1.3,73.8,73.8,0,0,0-11.9,3.6A88.8,88.8,0,0,0,592.5,466.7Z" class="cls-13"></path><path d="M697.6,556.5a63,63,0,0,1-15.3,20.6,61.9,61.9,0,0,1-10.6,7.6,60.5,60.5,0,0,1-12,5.2,56.5,56.5,0,0,1-12.9,2.4,47.1,47.1,0,0,1-6.5.2H637l-3.2-.4a53.8,53.8,0,0,1-12.6-3,44.4,44.4,0,0,1-11.5-5.8,58.3,58.3,0,0,0,12,4,65.1,65.1,0,0,0,12.4,1.8,70.1,70.1,0,0,0,24.5-2.8,52.9,52.9,0,0,0,11.3-4.7,70.9,70.9,0,0,0,10.4-6.7A88.6,88.6,0,0,0,697.6,556.5Z" class="cls-11"></path><path d="M421,331.4c6.2-7.6,10.2-16.6,15.4-25,18-29.1,50.8-48.5,85-50.3L495.7,265l20.4-3.4-18.7,4.6c-6.9,1.6-13.8,3.3-20.1,6.6s-11.7,8.6-14,15.2l11.3-5.9a246.4,246.4,0,0,1-20.3,19.3l5-2.6L432,335l15.7-10.9c-1.8,5.3-5,9.9-8.2,14.5l-18.8,27.3a76.3,76.3,0,0,0,6.5-27c-4.6.9-11.6,3.6-16.1,2.9-.1-1.7,3.4-3.6,4.6-4.7A47.7,47.7,0,0,0,421,331.4Z" class="cls-22"></path><path d="M469,349.7c5.8-6.1,13-10.7,19.3-16.3A90.7,90.7,0,0,0,514.8,294l-5.1,25.2c2.8-6.6,9.8-10.1,16.2-13.1L566.6,287c-.9,6.6-7.4,10.9-13.6,13.2s-13.1,3.7-18,8.2l21.2-3.5c-19.2,3.4-36.1,18.2-41.9,36.8,10.9,1.5,22-.9,32.1-5.1s19.5-10.1,28.8-16a12.3,12.3,0,0,1-4.4,8.5,34.9,34.9,0,0,1-8.5,5.1l-14.8,7.1,11.1-3.4c-1.1,4.3-5.9,6.5-10,8.2l-30.2,11.7c-8.1,3.2-16.6,6.4-25.3,5.6-4.9-.4-10-2.1-14.5-.1a44.6,44.6,0,0,1,28-19.7,50.9,50.9,0,0,0-38.7,25.2c-3.1,5.4-5.2,11.5-8.9,16.5s-8.8,9.1-14.5,10.5c1.8-7.2,5.2-14.2,8.5-20.8C457.4,366,461.8,356.8,469,349.7Z" class="cls-22"></path><path d="M715.7,323.5c10.4,13.8,16.9,30,23.2,46l-5.1-26.1,11.1,34.9-.2-16.9a71.9,71.9,0,0,1,39.5,17.5c-.9-8.4-8.5-14.6-16.4-17.8s-16.4-4.4-24-8.2c-1.7-.9-3.7-2.8-2.7-4.4s1.8-1.2,2.9-1.4l18-2.6-20.9-8.3c-1.8-.7-3.8-1.6-4.5-3.4s.6-4.9,2.8-5.7a7.6,7.6,0,0,1,6.8,1.3,22.2,22.2,0,0,1,4.8,5.3,50.4,50.4,0,0,0-33.2-38.3l7.1,19.7c-8.8-3.6-15.2-11.2-23-16.8A57.4,57.4,0,0,0,669,287.4c3.9,2.8,8.2,5.4,11.9,8.5-.8-.1-1.7.4-2.5.3,1,2.6,5.9,3.2,8.2,4.1a64.6,64.6,0,0,1,11,5.9A80.3,80.3,0,0,1,715.7,323.5Z" class="cls-22"></path><path d="M692.2,494.1c4.7,7,4.4,3.3,5.3,12.6a84.7,84.7,0,0,1-2,25.1c-2,8.9-5.2,17.8-11.3,24.5l13-8.1a13.7,13.7,0,0,1-5.1,8.7c5.6-2.1,8.3-5.9,12.4-10.3-1.1,2.8.3,5.9-.7,8.7a50.6,50.6,0,0,0,6.7-32.9c-2.3,7.4-3.7,13-8.1,19.4,6.8-18.3,6.3-36.9,2.6-56,1.2,7.8.2,11.5-.5,19.4-.9-8.5-.5-12.9-4.9-20.1a28.7,28.7,0,0,0-15.1-11.9l9.6,12.5-9.2-5.4c2.6,3.4,11.5,15.5,14.1,18.8Z" class="cls-4"></path><path d="M585.2,539.2c-4-7.5-4.1-3.8-4-13.1a81.8,81.8,0,0,1,4.6-24.9c2.8-8.6,6.9-17.1,13.7-23.1l-13.7,6.7a13.5,13.5,0,0,1,5.9-8.1c-5.7,1.5-8.8,5-13.3,8.9,1.3-2.6.3-5.9,1.6-8.5a49.9,49.9,0,0,0-10.1,32c3.1-7.1,5-12.6,10-18.4-8.6,17.4-10,36-8.3,55.4-.4-8,1-11.5,2.5-19.3-.1,8.5-.9,12.9,2.8,20.5a28.5,28.5,0,0,0,13.8,13.4l-8.3-13.4,8.6,6.3-12.1-20.2Z" class="cls-4"></path><path d="M624.7,455c10.3-2.9,33.7-4,52.7,10.2-4.4-3.3-8.4-3.5-14-3.6,4.7,2.9,7.9,6.2,7.9,10.7-5.7-6.1-8.8-11.7-29.7-14.6,4.4.6,10.7,4.6,13,8.5-11.3-3.9-25.6-5.5-35.9.7a12.7,12.7,0,0,1,2.6-5.5l-17.9,15.3,2.8-8.6-15.9,7.6C594.1,473.4,609.7,459.2,624.7,455Z" class="cls-3"></path><path d="M690.9,673.6s12.3-3.9,15.7,2.2,3.7,41.7,11.8,65.1c0,0-.7-27.6-.7-27.9s-1.7-56.5-1.7-56.5Z" class="cls-2"></path><path d="M526.4,765.2s-7.6-1.7-9.2,4.6-7.9,38-7.9,38,10.6-7.8,19.8-11a26.7,26.7,0,0,0-10.8,1.4s5.8-4.6,15.8-2.9C534.1,795.3,532.6,769.4,526.4,765.2Z" class="cls-10"></path><path d="M484.7,912.7c.8-1.8,43.7-88.7,51.6-97s9.4-2,4.4,18C530.8,873,484.7,912.7,484.7,912.7Z" class="cls-10"></path><path d="M301.1,711.1s8.3-5,12.8-1.6,1.4,6.6,2.6,14.1l6.4-23.7S303.5,702.8,301.1,711.1Z" class="cls-2"></path><path d="M706.3,753.6c-1.1-.7,56,11.4,98.9,7.7,0,0,9.2,14.2-7.3,91.7,0,0-65.5-27.5-125.5-4.6,0,0,29.1-31.7,114.2-9.2,0,0,16.3-39,3.7-65.5C790.3,773.7,735.7,772.1,706.3,753.6Z" class="cls-2"></path><circle r="12.5" cy="563.2" cx="413.1" class="cls-13"></circle><circle r="5.9" cy="575.9" cx="423.3" class="cls-13"></circle><circle r="9.6" cy="497.4" cx="677.3" class="cls-13"></circle><circle r="20" cy="475.4" cx="664.6" class="cls-13"></circle><path d="M632.7,476.7a42.6,42.6,0,0,0-7.6,3.3,55.3,55.3,0,0,0-7.1,4.2,46.9,46.9,0,0,0-11.5,11.6,42.4,42.4,0,0,0-4,7.2,41.7,41.7,0,0,0-2.5,7.8,64.7,64.7,0,0,0-1.6,16.5,49.9,49.9,0,0,1,.1-16.8,41.8,41.8,0,0,1,6.4-15.8A42.8,42.8,0,0,1,617.2,483,43.7,43.7,0,0,1,632.7,476.7Z" class="cls-13"></path><path d="M595.4,558.7c-.2-.8,32.1,27.8,74.6,9.3,0,0-7.2,10.5-35.6,11.3,7.6,2.6,16.8,1.9,29.2-1,0,0-23.9,17.5-55.4.9,0,0,9.5.3,16.3-.2C624.5,579,600.2,575.4,595.4,558.7Z" class="cls-23"></path><path d="M446.6,705.8s7.1,23.2,31.1,24.7,74.6-3.5,99.7-13c0,0-41.7,22.8-95.5,22.3C481.9,739.8,443.9,749.7,446.6,705.8Z" class="cls-3"></path><path d="M818.3,1021.4h-5.9C808,977.9,799.9,914.2,789,895.1c0,0-29.8-32.2-131.7-24.4,0,0,104.2-22.5,145.3,20.9C802.6,891.6,818.1,953.2,818.3,1021.4Z" class="cls-2"></path><path d="M215.7,789.3s-1.8,13.3,1.1,19.7,49.1,10.2,66.1,6.8c0,0-40,.7-62.7-8.7-1.4-4.4-1.8-8.8.1-13.1,0,0,26.4,3.2,44.7-.2C265,793.8,229.8,794,215.7,789.3Z" class="cls-4"></path><path d="M255.5,797.5s37.1.6,60.1-4.2c0,0,.6,11.4-.7,16.6a174.9,174.9,0,0,1-52.8,2.1s32.6-.5,47.5-5v-8.8S280.5,801.3,255.5,797.5Z" class="cls-4"></path><path d="M344.3,539.6a151.8,151.8,0,0,1,24.3.6,57.3,57.3,0,0,1,12,2.6,16.6,16.6,0,0,1,5.8,2.9,6.3,6.3,0,0,1,2.2,3.2,4.9,4.9,0,0,1-.1,2.4,5.7,5.7,0,0,1-1.2,1.8,14.7,14.7,0,0,1-5.7,3.4,44.9,44.9,0,0,1-5.9,1.9c-4,1-8.1,1.7-12.1,2.3a198.4,198.4,0,0,1-48.7,0c-4-.6-8-1.3-12-2.3a46.2,46.2,0,0,1-6-1.9,16.6,16.6,0,0,1-5.7-3.5,5,5,0,0,1-1.1-1.9,4.5,4.5,0,0,1,0-2.3,6.5,6.5,0,0,1,2.3-3.2,19.7,19.7,0,0,1,5.8-2.9,62.5,62.5,0,0,1,12-2.5,150.8,150.8,0,0,1,24.2-.6,189.9,189.9,0,0,0-23.9,2.6,61.6,61.6,0,0,0-11.4,3,17.5,17.5,0,0,0-4.9,2.6,4.1,4.1,0,0,0-1.2,1.7.8.8,0,0,0,0,.7l.5.7a15.3,15.3,0,0,0,4.6,2.5,35.8,35.8,0,0,0,5.6,1.6,114.3,114.3,0,0,0,11.7,2,219.4,219.4,0,0,0,47.7,0,89.2,89.2,0,0,0,11.7-1.9,45.8,45.8,0,0,0,5.6-1.7,12.4,12.4,0,0,0,4.7-2.5,1.5,1.5,0,0,0,.5-.7,1.1,1.1,0,0,0,.1-.6,3.6,3.6,0,0,0-1.2-1.7,17.1,17.1,0,0,0-4.8-2.7,61.6,61.6,0,0,0-11.4-3A191.4,191.4,0,0,0,344.3,539.6Z" class="cls-4"></path><circle r="15.2" cy="532.5" cx="339.3" class="cls-4"></circle><circle r="7" cy="524.7" cx="330" class="cls-4"></circle><path d="M636.8,964.5a109.3,109.3,0,0,1,13,27.1,197.5,197.5,0,0,1,6.9,29.5,3.8,3.8,0,0,1-3.2,4.4,3.9,3.9,0,0,1-4.5-3.2v-.5a178.5,178.5,0,0,0-3-29.2A104.1,104.1,0,0,0,636.8,964.5Z" class="cls-2"></path></svg>