<svg viewBox="0 0 1024 1024" xmlns="http://www.w3.org/2000/svg"><defs><style>.cls-1{isolation:isolate;}.cls-2{fill:#524a9b;}.cls-3,.cls-4{fill:#182b70;}.cls-4,.cls-6{opacity:0.4;}.cls-4{mix-blend-mode:multiply;}.cls-5{fill:#e73835;}.cls-6{fill:#701419;}.cls-7{fill:#fbe3e3;}.cls-8{fill:#53090e;opacity:0.18;}.cls-9{fill:#fff;}.cls-10{fill:#ea6f9e;}.cls-11{fill:#ba403f;}.cls-12{fill:#ea6060;}.cls-13{fill:#eb7488;}.cls-14{fill:#59a6dc;}.cls-15{fill:#f4c71b;}.cls-16{fill:none;stroke:#182b70;stroke-linecap:round;stroke-linejoin:round;stroke-width:5.52px;}.cls-17{fill:#ec737b;}</style></defs><title>头像比赛</title><g class="cls-1"><g id="图层_1"><path d="M205.4,337c-57.1-.1-88.5-18.9-104.8-34.8s-21.9-34.7-22.1-35.4a3.8,3.8,0,0,1,1.9-4.1,3.3,3.3,0,0,1,1.7-.4,3.6,3.6,0,0,1,2.6,1.1c12.5,12.8,26.5,19.3,41.7,19.3l4.2-.2c-13.7-4.6-33.4-14.3-44-33.4s-9.5-42.2,2.5-69.8c17.2-39.4,51-48.3,76.9-48.7l-20.9-6.4a3.7,3.7,0,0,1-2.6-3.1,3.5,3.5,0,0,1,1.8-3.6c20.8-11.8,41.1-17.8,60.4-17.8,31,0,60.3,15.8,84.5,45.6a191.2,191.2,0,0,1,27.3,45.3,3.7,3.7,0,0,1-.2,3.1L235.6,333.8a3.4,3.4,0,0,1-2.8,1.8c-9.5.9-18.7,1.4-27.4,1.4Z" class="cls-2"></path><path d="M204.7,103.4c73.2,0,108.4,88.5,108.4,88.5L232.4,332c-9.6.9-18.6,1.3-27,1.3C97.2,333.3,82.1,266,82.1,266c16,16.3,32.2,20.3,44.3,20.3a50.4,50.4,0,0,0,19.4-3.6s-91.7-14-53.4-101.9c16.6-38,49.3-46.5,75.3-46.5a131.4,131.4,0,0,1,38.1,5.7c-21.8-8-59.7-19.3-59.7-19.3,21.7-12.3,41.2-17.3,58.6-17.3m0-7.3c-20,0-40.9,6.1-62.2,18.2a7.3,7.3,0,0,0-3.6,7.2,7.2,7.2,0,0,0,5.1,6.2l3.4,1a86.2,86.2,0,0,0-24.2,8.1c-16.7,8.5-29.3,22.3-37.5,41.1-12.5,28.6-13.3,53.2-2.3,72.9a67.6,67.6,0,0,0,21.5,23.1,63.6,63.6,0,0,1-17.5-13.1,7.5,7.5,0,0,0-5.3-2.2,7.3,7.3,0,0,0-3.5.9,7.5,7.5,0,0,0-3.6,8.1c.1.7,4.4,19.1,23.1,37.3a115.3,115.3,0,0,0,39.8,24.7c19.2,7.3,41.9,11,67.5,11,8.8,0,18.2-.4,27.7-1.3a7.4,7.4,0,0,0,5.7-3.6l80.6-140.1a7.2,7.2,0,0,0,.5-6.4A196.1,196.1,0,0,0,292,143a141.5,141.5,0,0,0-35.7-32,97.9,97.9,0,0,0-51.6-14.9Z" class="cls-3"></path><path d="M99.3,287.2l12.2,19.6c21.6,16.7,58.6,30.9,120.9,25.2l80.7-140.1a178.8,178.8,0,0,0-11.7-22.7l-9.3,2.8s-44-58.1-81.4-55.6c0,0,3.7,3.6,9,9.3,13.5,14.8,37.4,43.4,35.2,60.3,0,0-52.1-58.2-85.8-48.1,0,0,47.8,44.2,52.4,71.6,0,0-64.6-45.8-96.9-22.9,0,0,67.8,35.3,73,64.6-18.2,6.9-32.6,0-89.2-36.3.3.3,2.6,4.5,6.4,10.9h.1c3.1,4.9,7.1,11.2,12,17.9,12.3,16.9,29.7,36.6,49.3,45.4,0,0-50.4,6-70.7.7A18,18,0,0,1,99.3,287.2Z" class="cls-4"></path><path d="M272.7,190.5c-.5-1.6-1.1-3.4-1.7-5.1a46,46,0,0,0-1.9-5.2c-1.3-3.4-2.9-6.8-4.5-10.1a110.9,110.9,0,0,0-11.8-18.7,95.4,95.4,0,0,0-7.3-8.4,81.8,81.8,0,0,0-8.3-7.3A69.7,69.7,0,0,0,217.5,125a72.4,72.4,0,0,1,20.7,9.2,75.3,75.3,0,0,1,9.2,6.8,88.6,88.6,0,0,1,8.2,8,118.7,118.7,0,0,1,13.8,18.5c2,3.3,3.8,6.6,5.6,10.1.8,1.7,1.7,3.5,2.4,5.2s1.6,3.6,2.3,5.5a3.7,3.7,0,0,1-2.3,4.7,3.5,3.5,0,0,1-4.6-2.2.4.4,0,0,1-.1-.3Z" class="cls-3"></path><path d="M240.7,212.7c-.5-1.9-1.1-3.9-1.8-5.9s-1.3-4-2-5.9c-1.5-4-3.2-7.8-5-11.6a133.2,133.2,0,0,0-13.1-21.7,92,92,0,0,0-17.8-18,74.5,74.5,0,0,0-10.7-6.8,72.6,72.6,0,0,0-11.9-4.9,76.8,76.8,0,0,1,12.3,4,83.9,83.9,0,0,1,11.4,6.2,97,97,0,0,1,19.5,17.2,127.2,127.2,0,0,1,15.1,21.4c2.2,3.8,4.2,7.7,6.1,11.7.9,2,1.8,4,2.6,6s1.6,4.1,2.3,6.3a3.6,3.6,0,1,1-6.9,2.3v-.2Z" class="cls-3"></path><path d="M203,282.4c-2.6-.2-4.9-.6-7.4-1l-7-1.5a130.3,130.3,0,0,1-13.9-4,138,138,0,0,1-13.4-5.3,128.8,128.8,0,0,1-12.6-6.9,87.9,87.9,0,0,1-11.6-8.4c-1.9-1.5-3.6-3.2-5.3-4.8s-3.4-3.4-4.9-5.3a80.9,80.9,0,0,1-14.2-24.4A77.6,77.6,0,0,0,128.3,244c1.6,1.7,3.3,3.2,5,4.8s3.6,3,5.5,4.3a89.4,89.4,0,0,0,11.7,7.5c4.1,2.1,8.3,4.1,12.6,5.8s8.7,3.1,13.2,4.3,9,2.1,13.5,2.9l6.9,1c2.2.2,4.6.5,6.7.5h0a3.7,3.7,0,0,1,3.6,3.8,3.8,3.8,0,0,1-3.8,3.6Z" class="cls-3"></path><path d="M197.8,318.2c-4.3.1-8.4-.1-12.6-.3s-8.4-.6-12.5-1a206,206,0,0,1-24.7-4.4,117.3,117.3,0,0,1-23.5-8.3c-1.9-.9-3.7-2-5.5-3l-2.6-1.7-2.6-1.8a55.6,55.6,0,0,1-9-8.5,50.7,50.7,0,0,0,9.6,7.7l2.6,1.6,2.7,1.5,5.6,2.5a112.2,112.2,0,0,0,23.5,6.5,198,198,0,0,0,24.3,2.4c4.1.1,8.1.2,12.2.1s8.2-.2,12.1-.6h.1a3.7,3.7,0,0,1,.6,7.3Z" class="cls-3"></path><path d="M194.7,505.1h-.5l-25.8-3.7a3.7,3.7,0,0,1-2.9-2.4,3.6,3.6,0,0,1,.7-3.7c.6-.7,60.6-70.9,44.4-136.7a3.6,3.6,0,0,1,3.6-4.5h.7l30.9,6.6a3.6,3.6,0,0,1,2.9,3.6,292.4,292.4,0,0,1-7.1,51.6c-6.1,26.4-18.7,63.1-44.3,88.2A3.5,3.5,0,0,1,194.7,505.1Z" class="cls-5"></path><path d="M214.2,357.7l30.8,6.5s-1.9,89.9-50.3,137.3l-25.8-3.8s62.2-71.5,45.3-140m0-7.3a7.5,7.5,0,0,0-5.3,2.2,7.6,7.6,0,0,0-1.8,6.9c8.1,33.1-4,67.3-15.6,90.3a237.8,237.8,0,0,1-28.1,43.1,7.4,7.4,0,0,0,4.5,12.1l25.8,3.7h1a7.8,7.8,0,0,0,5.2-2.1c21-20.6,36.3-50.9,45.2-90a274.8,274.8,0,0,0,7.2-52.3,7.2,7.2,0,0,0-5.8-7.3l-30.8-6.5-1.5-.2Z" class="cls-3"></path><path d="M229.4,357.7s-25.3,110-43,135.5c0,0,57-38.3,70.5-120Z" class="cls-6"></path><path d="M237.1,357.6c0,1.6-.1,3-.2,4.5s-.1,3-.2,4.4c-.2,3-.5,5.9-.8,8.8-.7,5.8-1.6,11.6-2.7,17.3a245.5,245.5,0,0,1-8.8,33.7,34.5,34.5,0,0,1-1.4,4.2l-1.5,4-1.5,4.1-.8,2.1c-.2.6-.5,1.3-.8,2l-3.5,7.9-.8,2-1,2-1.9,3.9-1.9,3.9-1,1.9-1.1,1.9-4.2,7.6c-1.4,2.5-3,4.9-4.6,7.3l-4.6,7.3,4.3-7.5c1.4-2.5,2.9-5,4.1-7.6l3.8-7.7,1-2,.8-1.9,1.7-4,1.7-4,.9-1.9.7-2,3-8.1c.3-.7.5-1.4.7-2l.7-2.1,1.3-4.1,1.3-4.1c.4-1.3.7-2.7,1.1-4.1a227.6,227.6,0,0,0,6.9-33.6c.8-5.6,1.3-11.3,1.7-17,.1-2.8.3-5.6.3-8.5.1-1.4.1-2.8.1-4.2s-.1-2.8-.2-4.1h0a3.8,3.8,0,0,1,3.5-3.9,3.7,3.7,0,0,1,3.8,3.5C237.1,357.5,237.1,357.5,237.1,357.6Z" class="cls-3"></path><path d="M96.6,492.1a3.7,3.7,0,0,1-3.3-2.2L82.2,465.8a3.8,3.8,0,0,1,2.1-5c.2-.1,23-8.8,49.8-29.5,24.7-19,58.1-52.3,76.6-103.2a3.8,3.8,0,0,1,2.6-2.3h.8a3.6,3.6,0,0,1,2.6,1.1L232,342.3a3.6,3.6,0,0,1,.9,3.7,371.6,371.6,0,0,1-34.6,72.1c-13.2,21-27.5,37.9-42.4,50.1-18.9,15.5-38.8,23.5-59.3,23.9Z" class="cls-5"></path><path d="M214.1,329.4l15.3,15.4S182.5,487.1,96.6,488.4l-11-24.1s92.1-34.7,128.5-134.9m0-7.3h-1.6a7.6,7.6,0,0,0-5.3,4.7c-18.2,50.1-51.1,83-75.5,101.7-26.4,20.3-48.5,28.7-48.7,28.8a7.4,7.4,0,0,0-4.2,4.1,6.9,6.9,0,0,0,.1,5.8l11,24.1a7.2,7.2,0,0,0,6.7,4.3h.1c21.3-.3,42-8.6,61.5-24.6,15.2-12.5,29.8-29.7,43.2-51.1a372,372,0,0,0,35-72.9,7.2,7.2,0,0,0-1.8-7.4l-15.3-15.5a7.3,7.3,0,0,0-5.2-2.1Z" class="cls-3"></path><path d="M215.1,338.3s-59.6,109.1-92.3,130c0,0,72.3-20.6,105.3-112.5Z" class="cls-6"></path><path d="M224,346.6c-2.4,5.9-5.1,11.5-7.9,17s-5.8,11.1-8.9,16.5a354.5,354.5,0,0,1-20.3,31.2c-3.7,5-7.6,9.8-11.6,14.6s-8.3,9.2-12.7,13.5-9.2,8.4-14,12.3A158.8,158.8,0,0,1,133.2,462,145.5,145.5,0,0,0,148,451c4.6-4.1,9-8.4,13.2-12.8s8.2-9.2,11.9-14.1,7.4-9.8,10.8-14.9a333.7,333.7,0,0,0,18.5-31.8c2.7-5.4,5.4-10.9,7.9-16.5s4.9-11.3,6.9-16.9h0a3.6,3.6,0,0,1,4.7-2.1,3.7,3.7,0,0,1,2.2,4.7A.1.1,0,0,1,224,346.6Z" class="cls-3"></path><path d="M251.9,380.1a52.4,52.4,0,0,1-30.7-9.3c-16.2-11.4-24.5-31.8-23.3-57.4s11.3-52.3,28.4-76.6c25.4-36,62.2-59.3,93.8-59.3,11.7,0,22,3.1,30.7,9.2,16.2,11.5,24.5,31.9,23.3,57.5s-11.3,52.3-28.4,76.6c-25.4,36-62.2,59.3-93.8,59.3Z" class="cls-5"></path><path d="M320.1,181.2c10.5,0,20.3,2.7,28.6,8.5,31.3,22.1,28.6,79.8-6,129-25.5,36.2-61.3,57.7-90.8,57.7-10.6,0-20.4-2.8-28.6-8.6-31.3-22-28.6-79.8,6-128.9,25.5-36.2,61.2-57.7,90.8-57.7m0-7.3c-16.1,0-33.7,5.6-50.8,16.3s-33.1,26.1-46,44.5c-17.5,24.9-27.9,52.8-29.1,78.5s7.6,48.5,24.9,60.6c9.3,6.6,20.3,9.9,32.8,9.9,16.1,0,33.7-5.6,50.8-16.4s33.1-26.1,45.9-44.4c17.6-24.9,27.9-52.8,29.1-78.5s-7.5-48.5-24.8-60.7c-9.3-6.5-20.4-9.8-32.8-9.8Z" class="cls-3"></path><path d="M304.6,189.4a201.8,201.8,0,0,0-17.3,11.7c-5.5,4.1-10.9,8.5-16,13.1a201.7,201.7,0,0,0-14.8,14.4,198.5,198.5,0,0,0-13.3,15.8,182.7,182.7,0,0,0-11.7,17c-3.5,5.9-6.7,12-9.6,18.2a204.1,204.1,0,0,0-13.2,39.3,133.1,133.1,0,0,1,3.3-20.7l.6-2.5.3-1.3.4-1.3,1.5-5c.5-1.8,1.1-3.4,1.7-5s1.2-3.4,1.9-5l2-4.9c.7-1.6,1.5-3.2,2.3-4.8s1.5-3.1,2.3-4.7l2.6-4.6a186.7,186.7,0,0,1,11.7-17.7,161.4,161.4,0,0,1,13.9-15.9,175.2,175.2,0,0,1,15.6-14.2A172.5,172.5,0,0,1,286,199.1,131.4,131.4,0,0,1,304.6,189.4Z" class="cls-3"></path><path d="M217.3,244.1l-1.5-2.4-1.6-2.6-3.6-4.9a119.6,119.6,0,0,0-8.2-9.2A117.4,117.4,0,0,0,183,209.4c-3.5-2.2-7.1-4.3-10.8-6.2l-5.7-2.7-5.8-2.3a137,137,0,0,0-24.3-6.8,142.7,142.7,0,0,1,24.9,5l6.1,2,5.9,2.3a123.8,123.8,0,0,1,11.6,5.6A114.6,114.6,0,0,1,206.1,221a100.6,100.6,0,0,1,9.4,9.1c1.4,1.6,2.8,3.2,4.2,5a25.6,25.6,0,0,1,2,2.6c.7.9,1.3,1.8,2,2.9a3.7,3.7,0,0,1-6.3,3.8c0-.1-.1-.1-.1-.2Z" class="cls-3"></path><path d="M810.1,336.9c-8.7,0-17.9-.4-27.4-1.3a3.6,3.6,0,0,1-2.8-1.8L699.2,193.7a3.9,3.9,0,0,1-.2-3.2,185.7,185.7,0,0,1,12-23.2c15.2-25.2,48.4-67.6,99.9-67.6,19.2,0,39.5,6,60.3,17.8a3.7,3.7,0,0,1-.8,6.7c-.2,0-9.2,2.7-20.9,6.4,25.9.4,59.7,9.3,76.9,48.7,12,27.6,12.9,51,2.5,69.8s-30.3,28.8-44,33.4l4.2.2c15.2,0,29.2-6.5,41.6-19.2a3.6,3.6,0,0,1,2.7-1.2,3.4,3.4,0,0,1,1.7.5,3.5,3.5,0,0,1,1.8,4c-.2,1-5.7,23.7-30.7,42.9C882.8,327.8,850.5,336.9,810.1,336.9Z" class="cls-2"></path><path d="M810.9,103.4c17.3,0,36.8,5,58.5,17.3,0,0-37.4,11.1-59.3,19.1a133.6,133.6,0,0,1,37.7-5.5c26,0,58.7,8.5,75.3,46.5,38.3,87.9-53.4,101.9-53.4,101.9a49.2,49.2,0,0,0,19.4,3.7c12.1,0,28.3-4,44.3-20.4-.3,1.2-5.6,22.5-29.4,40.8-18.3,14.1-47.6,26.5-93.9,26.5-8.4,0-17.4-.4-27-1.3L702.4,191.9a178.8,178.8,0,0,1,11.7-22.7c15.8-26.2,47.8-65.8,96.8-65.8M933.4,266h0M810.9,96.1c-23.4,0-45.5,8.3-65.5,24.7-17.4,14.3-30,32.2-37.6,44.6a193.7,193.7,0,0,0-12.2,23.8,7.6,7.6,0,0,0,.5,6.4l80.6,140a7.3,7.3,0,0,0,5.7,3.7c9.6.9,18.9,1.3,27.7,1.3,41.2,0,74.3-9.4,98.3-28s31.1-41,32-44.6a6.4,6.4,0,0,0,.3-2,7.3,7.3,0,0,0-7-7.3h-.6a7.7,7.7,0,0,0-4,1.4H929l-.9.8A62.5,62.5,0,0,1,910.5,274a68.1,68.1,0,0,0,21.6-23.2c11-19.7,10.2-44.3-2.3-72.9-8.2-18.8-20.8-32.6-37.5-41.1a86.2,86.2,0,0,0-24.2-8.1l3.4-1a7.3,7.3,0,0,0,1.5-13.4c-21.3-12.1-42.2-18.2-62.1-18.2Z" class="cls-3"></path><path d="M916.2,287.2,904,306.8c-21.7,16.7-58.6,30.9-120.9,25.2L702.4,191.9a178.8,178.8,0,0,1,11.7-22.7l9.3,2.8s43.9-58.1,81.4-55.6c0,0-3.7,3.6-9,9.3-13.5,14.8-37.4,43.4-35.2,60.3,0,0,52.1-58.2,85.8-48.1,0,0-47.8,44.2-52.4,71.6,0,0,64.6-45.8,96.9-22.9,0,0-67.8,35.3-73,64.6,18.2,6.9,32.6,0,89.1-36.3-.2.3-2.5,4.5-6.4,10.9h0c-3.1,4.9-7.1,11.2-12,17.9-12.3,16.9-29.7,36.6-49.3,45.4,0,0,50.4,6,70.7.7A18.9,18.9,0,0,0,916.2,287.2Z" class="cls-4"></path><path d="M735.8,188.3c.8-1.9,1.5-3.7,2.3-5.5s1.6-3.5,2.4-5.2c1.8-3.5,3.6-6.8,5.6-10.1A118.7,118.7,0,0,1,759.9,149a103.2,103.2,0,0,1,8.2-8,75.3,75.3,0,0,1,9.2-6.8A72.4,72.4,0,0,1,798,125a69.7,69.7,0,0,0-19.7,10.7A81.8,81.8,0,0,0,770,143a95.4,95.4,0,0,0-7.3,8.4,110.9,110.9,0,0,0-11.8,18.7c-1.6,3.3-3.1,6.7-4.5,10.1-.7,1.7-1.3,3.4-1.9,5.2s-1.2,3.5-1.7,5.1h0a3.6,3.6,0,0,1-4.5,2.6,3.6,3.6,0,0,1-2.5-4.5Z" class="cls-3"></path><path d="M838,141.4a74.7,74.7,0,0,0-22.5,9.7,94.8,94.8,0,0,0-18.8,16.5A126,126,0,0,0,782,188.4a140.4,140.4,0,0,0-10.7,23.3,140.3,140.3,0,0,1,9.1-24.1,127.4,127.4,0,0,1,13.5-22.3,99.2,99.2,0,0,1,18.5-18.7,76.8,76.8,0,0,1,11.3-7.1,85.2,85.2,0,0,1,12.4-5.2,3.7,3.7,0,0,1,4.7,2.4,3.6,3.6,0,0,1-2.4,4.6H838Z" class="cls-3"></path><path d="M812.1,275.1c2.1,0,4.5-.3,6.7-.5l6.9-1c4.5-.8,9-1.7,13.5-2.9s8.9-2.7,13.2-4.3,8.5-3.7,12.6-5.8a89.4,89.4,0,0,0,11.7-7.5c1.9-1.3,3.7-2.8,5.5-4.3s3.4-3.1,5-4.8a77.6,77.6,0,0,0,15.6-23.2,80.9,80.9,0,0,1-14.2,24.4c-1.5,1.9-3.2,3.5-4.9,5.3s-3.4,3.3-5.3,4.8a87.9,87.9,0,0,1-11.6,8.4,128.8,128.8,0,0,1-12.6,6.9,138,138,0,0,1-13.4,5.3,130.3,130.3,0,0,1-13.9,4l-7,1.5c-2.5.4-4.8.8-7.3,1a3.6,3.6,0,0,1-4.1-3.2,3.7,3.7,0,0,1,3.3-4.1h.3Z" class="cls-3"></path><path d="M818.1,310.9c3.9.4,8,.5,12.1.6s8.1,0,12.2-.1a198,198,0,0,0,24.3-2.4,112.2,112.2,0,0,0,23.5-6.5l5.6-2.5,2.7-1.5,2.6-1.6a50.7,50.7,0,0,0,9.6-7.7,55.6,55.6,0,0,1-9,8.5l-2.6,1.8-2.6,1.7c-1.8,1-3.6,2.1-5.5,3a117.3,117.3,0,0,1-23.5,8.3,206,206,0,0,1-24.7,4.4c-4.1.4-8.3.8-12.5,1s-8.3.4-12.6.3a3.5,3.5,0,0,1-3.6-3.7,3.6,3.6,0,0,1,3.7-3.6h.3Z" class="cls-3"></path><path d="M832.7,505.1a3.5,3.5,0,0,1-2.6-1c-25.6-25.1-38.2-61.8-44.3-88.2a276,276,0,0,1-7-51.6,3.6,3.6,0,0,1,2.9-3.6l30.8-6.6h.7a3.9,3.9,0,0,1,2.7,1.1,3.6,3.6,0,0,1,.9,3.4c-16.2,65.8,43.9,136,44.5,136.7a3.6,3.6,0,0,1,.6,3.7,3.5,3.5,0,0,1-2.9,2.4l-25.8,3.7Z" class="cls-5"></path><path d="M813.2,357.7h.1m-.1,0c-16.8,68.5,45.3,140,45.3,140l-25.8,3.8c-48.4-47.4-50.3-137.3-50.3-137.3l30.8-6.5m0-7.3h-.3l-1.3.2-30.7,6.5a7.3,7.3,0,0,0-5.8,7.3,284.7,284.7,0,0,0,7.2,52.3c8.9,39.1,24.2,69.4,45.3,90a7.4,7.4,0,0,0,5.1,2.1h1l25.9-3.7a7.5,7.5,0,0,0,5.8-4.7,7.4,7.4,0,0,0-1.4-7.4,237.8,237.8,0,0,1-28.1-43.1c-11.5-22.9-23.6-57.1-15.6-90.1a6.4,6.4,0,0,0,.3-2,7.3,7.3,0,0,0-7.2-7.3Zm0,14.7h0Z" class="cls-3"></path><path d="M798,357.7s25.3,110,43,135.5c0,0-56.9-38.3-70.5-120Z" class="cls-6"></path><path d="M797.7,357.9c-.1,1.3-.1,2.7-.1,4.1v4.2c0,2.9.2,5.7.3,8.5.4,5.7.9,11.4,1.7,17a256.7,256.7,0,0,0,6.9,33.6c.4,1.4.7,2.8,1.1,4.1l1.3,4.1,1.3,4.1.7,2.1c.2.6.5,1.3.7,2l3,8.1.8,2,.8,1.9,1.7,4,1.7,4,.9,1.9.9,2,3.9,7.7c1.2,2.6,2.7,5.1,4.1,7.6l4.3,7.5-4.7-7.3c-1.6-2.4-3.2-4.8-4.6-7.3l-4.2-7.6-1.1-1.9-.9-1.9-2-3.9-1.9-3.9-.9-2-.9-2-3.5-7.9a11.9,11.9,0,0,0-.8-2l-.8-2.1-1.5-4.1-1.5-4c-.5-1.4-.9-2.8-1.4-4.2a245.5,245.5,0,0,1-8.8-33.7c-1.1-5.7-2-11.5-2.7-17.3-.2-2.9-.6-5.8-.8-8.8-.1-1.4-.2-2.9-.2-4.4s-.1-2.9-.1-4.5a3.7,3.7,0,1,1,7.3,0v.2Z" class="cls-3"></path><path d="M930.8,492.1c-20.5-.4-40.4-8.4-59.3-23.9-14.9-12.2-29.2-29.1-42.4-50.1-22.4-35.7-34.4-71.8-34.6-72.1a3.6,3.6,0,0,1,.9-3.7l15.3-15.5a3.8,3.8,0,0,1,2.6-1.1h.8a4.1,4.1,0,0,1,2.7,2.3c18.5,51,51.9,84.4,76.7,103.4,26.8,20.6,49.4,29.2,49.7,29.3a3.9,3.9,0,0,1,2.1,2.1,4.1,4.1,0,0,1-.1,2.9l-11,24.1a3.8,3.8,0,0,1-3.4,2.2Z" class="cls-5"></path><path d="M813.3,329.4c36.5,100.2,128.6,134.9,128.6,134.9l-11.1,24.1C844.9,487.1,798,344.8,798,344.8l15.3-15.4m0-7.3a7.3,7.3,0,0,0-5.2,2.1l-15.3,15.5a7.2,7.2,0,0,0-1.7,7.4c.4,1.5,12.2,36.8,34.9,72.9,13.5,21.4,28,38.6,43.2,51.1,19.5,16,40.2,24.3,61.5,24.6h.1a7.2,7.2,0,0,0,6.7-4.3l11-24.1a7.4,7.4,0,0,0-4-9.9c-.3-.1-22.7-8.7-49.2-29.1-24.2-18.7-56.9-51.5-75.1-101.4a7.6,7.6,0,0,0-5.3-4.7Z" class="cls-3"></path><path d="M812.3,338.3s59.6,109.1,92.3,130c0,0-72.3-20.6-105.3-112.5Z" class="cls-6"></path><path d="M810.2,344c2.1,5.6,4.5,11.3,6.9,16.9s5.2,11.1,8,16.5a312.9,312.9,0,0,0,18.4,31.8c3.5,5.1,7,10.1,10.8,14.9s7.7,9.5,11.9,14.1,8.6,8.7,13.2,12.8a145.5,145.5,0,0,0,14.8,11,157.4,157.4,0,0,1-15.3-10.3,183.7,183.7,0,0,1-14-12.3c-4.4-4.3-8.7-8.8-12.7-13.5s-7.9-9.6-11.6-14.6a334.1,334.1,0,0,1-20.4-31.2c-3.1-5.4-6-10.9-8.8-16.5s-5.5-11.1-8-17a3.7,3.7,0,0,1,1.9-4.8,3.6,3.6,0,0,1,4.8,2h.1Z" class="cls-3"></path><path d="M314,632.1c-20.9,0-36.2-5.4-47-16.5-14.5-14.9-21-40.5-20-78.4s17.9-45.5,31.8-45.5c17.3,0,35.2,12.4,35.9,12.9a3.6,3.6,0,0,1,1.6,2.9l4.1,120.8a3.5,3.5,0,0,1-1,2.6,4.2,4.2,0,0,1-2.6,1.2Z" class="cls-7"></path><path d="M278.8,495.3c16.4,0,33.8,12.3,33.8,12.3l4.2,120.8H314c-41,0-65.3-20.9-63.3-91.1.9-33,14.1-42,28.1-42m0-7.3c-10.1,0-18.7,3.9-24.7,11.3s-10.3,20.7-10.7,37.8c-1.1,38.9,5.7,65.4,20.9,81.1,11.6,11.8,27.8,17.6,49.7,17.6h2.9a7,7,0,0,0,5.2-2.3,7.7,7.7,0,0,0,2-5.2l-4.2-120.9a6.9,6.9,0,0,0-3.1-5.7c-.8-.6-19.5-13.6-38-13.6Z" class="cls-3"></path><path d="M303.5,553.7s-32.2-8.2-35.5-25.4" class="cls-7"></path><path d="M302.6,557.2,297,555a51.2,51.2,0,0,1-5.3-2.5,78.3,78.3,0,0,1-10.1-5.9,41.5,41.5,0,0,1-8.8-7.9,19.9,19.9,0,0,1-4.8-10.4,20.7,20.7,0,0,0,6.1,9.2,43,43,0,0,0,9.3,5.9,76.2,76.2,0,0,0,10.3,4.1l5.4,1.5,5.3,1.1h0a3.7,3.7,0,0,1-1.2,7.3Z" class="cls-3"></path><path d="M305.9,561.9s-30.1,6.1-35.6,20.4" class="cls-7"></path><path d="M306.6,565.5a97.8,97.8,0,0,0-10.1,1.8,93.2,93.2,0,0,0-9.9,3,46.1,46.1,0,0,0-9.2,4.5,19.7,19.7,0,0,0-7.1,7.5,21.1,21.1,0,0,1,5.9-8.9,46.7,46.7,0,0,1,8.9-6.4,73.5,73.5,0,0,1,9.7-4.9,106.3,106.3,0,0,1,10.4-3.8,3.7,3.7,0,0,1,2.1,7l-.6.2Z" class="cls-3"></path><path d="M698.3,651.1l-9-.3a3.8,3.8,0,0,1-2.5-1.3,3.6,3.6,0,0,1-.8-2.7l10.7-120.4a3.7,3.7,0,0,1,1.7-2.8c.7-.4,17.8-11,34.5-11,8.5,0,15.5,2.8,20.7,8.1,7.5,7.7,11.1,20.9,10.6,39.2C762.5,623,742.2,651.1,698.3,651.1Z" class="cls-7"></path><path d="M732.9,516.3c14.7,0,28.6,9,27.7,43.5-1.8,66.7-24.9,87.7-62.3,87.7a87.1,87.1,0,0,1-8.7-.4l10.7-120.4s16.8-10.4,32.6-10.4m0-7.3v0h0c-17.7,0-35.7,11-36.4,11.5a7.3,7.3,0,0,0-3.5,5.6L682.3,646.5a7.2,7.2,0,0,0,6.7,7.9c3.3.3,6.4.4,9.3.4,22.4,0,38.8-7.1,50.3-21.6S767,593.8,767.9,560c.5-19.3-3.4-33.4-11.7-41.8-5.9-6.1-13.8-9.2-23.3-9.2Z" class="cls-3"></path><path d="M706.9,573.2s32.6-6.3,36.8-23.4" class="cls-7"></path><path d="M706.2,569.6l5.4-.8,5.4-1.2a76.1,76.1,0,0,0,10.5-3.5,39.8,39.8,0,0,0,9.6-5.5,18.7,18.7,0,0,0,6.6-8.8,20.5,20.5,0,0,1-5.3,10.2,42.9,42.9,0,0,1-9.2,7.3,79.3,79.3,0,0,1-10.4,5.5c-1.8.7-3.6,1.5-5.5,2.1l-5.7,1.9a3.6,3.6,0,0,1-4.5-2.5,3.7,3.7,0,0,1,2.5-4.6Z" class="cls-3"></path><path d="M704.1,581.3s29.7,7.7,34.4,22.3" class="cls-7"></path><path d="M705,577.8a102.1,102.1,0,0,1,10.1,4.3,80.3,80.3,0,0,1,9.5,5.4,55.8,55.8,0,0,1,8.5,6.9c2.4,2.7,4.6,5.8,5.4,9.2a20.1,20.1,0,0,0-6.7-7.8,46.6,46.6,0,0,0-9-5.1,101.3,101.3,0,0,0-9.7-3.5,93.9,93.9,0,0,0-9.9-2.3h-.1a3.7,3.7,0,1,1,1.3-7.3Z" class="cls-3"></path><path d="M436.7,1019.7a3.9,3.9,0,0,1-3.4-1.9L360.7,904.9a4.2,4.2,0,0,1-.4-3.9,4.3,4.3,0,0,1,3-2.4s10.4-2.9,19.1-24.4a135.3,135.3,0,0,0,7.6-27.3c1.1-6.4,2.1-13.4,2.8-20.6a357.5,357.5,0,0,0,1.4-38.4c0-4.7-.1-9.5-.3-14.8a4.1,4.1,0,0,1,4-4.2l214.1-8a3.9,3.9,0,0,1,2.9,1.3,3.7,3.7,0,0,1,1.2,3.1s-.1,2-.2,5.4-.4,9.1-.6,16.8c-.2,11.7-.3,28.2.8,41,.3,2.6.5,5.2.8,7.9h0c.4,4.2.7,7.8,1.1,11.1v.5l.6,4.7c2.2,17.9,5,32.7,8.3,43.9,2.5,8.4,5.1,14.8,8,19.1a4.8,4.8,0,0,1,.6,3.3l-24.7,97.5a4.2,4.2,0,0,1-4,3.1Z" class="cls-7"></path><path d="M612,765.1h0m0,0s-.1,2-.3,5.5-.4,9.9-.5,16.8c-.3,12.9-.3,29,.8,41.5.2,2.6.5,5.2.7,7.9h0l1.2,11.2c.2,1.8.4,3.6.7,5.3,1.9,15.8,4.7,31.7,8.5,44.6,2.3,8.2,5.1,15.2,8.4,20.2l-24.6,97.4H436.7l-58.3-90.7-14.3-22.2s12.3-2.6,22.2-26.8a154.1,154.1,0,0,0,7.8-28.1c1.1-6.3,2.1-13.3,2.8-21,1-11.3,1.6-24.1,1.5-38.9h0c-.1-4.7-.2-9.7-.4-14.8h.5L612,765.1m0-8.3h-.4l-213.4,7.9h-.5a8.2,8.2,0,0,0-7.9,8.6c.1,5.2.2,10,.3,14.5h0c.1,13.6-.4,26.4-1.4,38-.7,7.1-1.7,13.9-2.8,20.3a136.2,136.2,0,0,1-7.3,26.5c-7.1,17.5-15.1,21.3-16.4,21.8a7.7,7.7,0,0,0-5.9,4.6,8,8,0,0,0,.9,8l14.2,22.2,58.4,90.7a8.1,8.1,0,0,0,6.9,3.8H606.9a8.1,8.1,0,0,0,8-6.2l24.7-97.5a9,9,0,0,0-1.1-6.6c-2.7-3.9-5.2-10-7.5-17.9-3.2-11.1-6-25.7-8.2-43.3l-.6-4.7v-.5c-.3-3.3-.7-6.8-1.1-10.9V836c-.3-2.7-.5-5.3-.7-7.8-1.1-12.6-1.1-29.1-.8-40.6.1-7.7.4-13.7.5-16.7s.2-4.6.2-5.1a2,2,0,0,0,.1-.7,8.3,8.3,0,0,0-8.3-8.3Zm0,16.6Z" class="cls-3"></path><path d="M646.5,835.6a3.6,3.6,0,0,1-2.6-1.1c-1.5-1.5-14.4-15.3-26-41.6C604.3,762,598.3,727.4,600.2,690a3.9,3.9,0,0,1,1.7-2.9l42.1-27a3.7,3.7,0,0,1,5.2,4.9c-1.6,4.5-5.8,44.2,21.1,103.4a350.9,350.9,0,0,0,18.2,34.7,3.6,3.6,0,0,1-.5,4.3,3.6,3.6,0,0,1-2.7,1.2,2.8,2.8,0,0,1-1.5-.4c-.2,0-18.2-8.6-32.6-25.6a81.2,81.2,0,0,1-11.5-17.5,114.5,114.5,0,0,0,0,30.6,122.1,122.1,0,0,0,10.1,34.7,3.8,3.8,0,0,1-1.2,4.6A4.2,4.2,0,0,1,646.5,835.6Z" class="cls-2"></path><path d="M646,663.2c-1.8,2.4-7.5,43.9,21,106.7a339.9,339.9,0,0,0,18.3,35,106.7,106.7,0,0,1-31.4-24.7c-6.6-7.8-12.4-17.3-14.9-28.7,0,0-6.5,18.3-3,44.7a126.4,126.4,0,0,0,10.5,35.7c-.7-.7-13.7-14.3-25.3-40.5-10.4-23.6-19.6-57.4-17.3-101.2l42.1-27m0-7.4a6.9,6.9,0,0,0-3.9,1.2l-42.2,27.1a7,7,0,0,0-3.3,5.7c-2,38,4.1,73.1,17.9,104.6,11.9,26.9,25.3,41.1,26.7,42.6a7.5,7.5,0,0,0,5.3,2.3,7.6,7.6,0,0,0,4.1-1.3,7.4,7.4,0,0,0,2.6-9.1,117.2,117.2,0,0,1-9.9-33.7,105.3,105.3,0,0,1-.9-18.1,86.6,86.6,0,0,0,6,7.9,113.3,113.3,0,0,0,33.8,26.6,8.7,8.7,0,0,0,3.1.7,7.6,7.6,0,0,0,5.5-2.5,7.2,7.2,0,0,0,.8-8.6,365.2,365.2,0,0,1-18-34.3c-13.9-30.7-19-55.4-20.9-70.8-2-17.3-.7-27.5-.1-29.7a7.4,7.4,0,0,0-6.6-10.6Zm0,14.7Z" class="cls-3"></path><path d="M648.9,834.2s-22.6-35.2-23.2-56.4" class="cls-2"></path><path d="M645.9,836.1c-2.6-4.6-4.9-9.2-7.1-13.9s-4.3-9.4-6.2-14.3a142.1,142.1,0,0,1-4.8-14.8,52.8,52.8,0,0,1-2.1-15.3,57.5,57.5,0,0,0,3.8,14.8,144.4,144.4,0,0,0,6.5,13.8c2.3,4.5,4.9,8.9,7.6,13.2s5.5,8.5,8.4,12.6h0a3.7,3.7,0,1,1-5.9,4.3A.5.5,0,0,1,645.9,836.1Z" class="cls-3"></path><path d="M685.7,803.4s-16.5-5.7-41.2-49.2" class="cls-2"></path><path d="M684.5,806.9l-.5-.2-.3-.2-.6-.3-1-.6-1.9-1.3-3.3-2.7c-1.1-1-2.2-2-3.1-3l-1.5-1.5-1.4-1.5a123.8,123.8,0,0,1-10.1-13.1c-1.6-2.3-3-4.6-4.5-6.9l-4.2-7c-1.3-2.4-2.7-4.7-3.9-7.1l-3.7-7.3L649,761l4.6,6.6,4.9,6.5,5.2,6.2a119.5,119.5,0,0,0,11.1,11.4l1.4,1.3,1.6,1.2,3,2.3a29.2,29.2,0,0,0,3.2,2.1l1.6.8.7.4h.5c.1.1.1,0,.1,0l.3.2a3.6,3.6,0,0,1,2,4.8A3.7,3.7,0,0,1,684.5,806.9Z" class="cls-3"></path><path d="M636,796.2a126.4,126.4,0,0,0,10.5,35.7c-.7-.7-13.7-14.3-25.3-40.5-.8-8.3-.3-15.6,2.6-19.8A249,249,0,0,0,636,796.2Z" class="cls-4"></path><path d="M685.3,804.9a106.7,106.7,0,0,1-31.4-24.7c-5.6-11.9-10.8-25.7-9.5-34.9,0,0,10.4,12.2,22.6,24.6A339.9,339.9,0,0,0,685.3,804.9Z" class="cls-4"></path><path d="M364.4,835.6a3.7,3.7,0,0,1-2.1-.6,3.8,3.8,0,0,1-1.3-4.6,119.2,119.2,0,0,0,10.2-34.7,114.5,114.5,0,0,0-.1-30.7,75.5,75.5,0,0,1-11.4,17.6c-14.4,17-32.4,25.6-32.6,25.6a2.9,2.9,0,0,1-1.6.4,3.6,3.6,0,0,1-2.7-1.2,3.6,3.6,0,0,1-.4-4.3,373.6,373.6,0,0,0,18.2-34.7c26.8-59.2,22.7-98.9,21.1-103.4a3.6,3.6,0,0,1,.5-4.3,3.5,3.5,0,0,1,2.6-1.2,3.6,3.6,0,0,1,2,.6l42.1,27a3.6,3.6,0,0,1,1.7,2.9c1.9,37.4-4,72-17.6,102.9-11.6,26.3-24.6,40.1-26,41.6A3.8,3.8,0,0,1,364.4,835.6Z" class="cls-2"></path><path d="M364.8,663.2l42.2,27c2.2,43.8-7,77.6-17.4,101.2-11.5,26.2-24.5,39.8-25.2,40.5a122.7,122.7,0,0,0,10.4-35.7c3.5-26.4-2.9-44.7-2.9-44.7a66.9,66.9,0,0,1-15,28.7,105.4,105.4,0,0,1-31.4,24.7,341.8,341.8,0,0,0,18.4-35c28.5-62.8,22.7-104.3,20.9-106.7m0-7.4a7.4,7.4,0,0,0-6.5,10.6c.5,2.2,1.9,12.4-.2,29.7-1.8,15.4-7,40.1-20.9,70.8a343,343,0,0,1-18,34.3,7.4,7.4,0,0,0,6.3,11.1,8.2,8.2,0,0,0,3.1-.7A114.4,114.4,0,0,0,362.5,785a86.6,86.6,0,0,0,6-7.9,117.1,117.1,0,0,1-10.8,51.8,7.4,7.4,0,0,0,2.5,9.1,8,8,0,0,0,4.2,1.3,7.1,7.1,0,0,0,5.2-2.3c1.5-1.5,14.9-15.7,26.7-42.6,13.9-31.5,19.9-66.6,18-104.6a7.1,7.1,0,0,0-3.4-5.7L368.8,657a7.2,7.2,0,0,0-4-1.2Z" class="cls-3"></path><path d="M361.9,834.2s22.7-35.2,23.3-56.4" class="cls-2"></path><path d="M358.8,832.2c3-4.1,5.8-8.3,8.5-12.6s5.2-8.7,7.6-13.2a122.9,122.9,0,0,0,6.4-13.8,57.7,57.7,0,0,0,3.9-14.8,60.7,60.7,0,0,1-2.1,15.3,122.2,122.2,0,0,1-4.9,14.8c-1.8,4.9-3.9,9.6-6.1,14.3s-4.5,9.3-7.1,13.9a3.6,3.6,0,1,1-6.4-3.5c.1-.1.1-.3.2-.4Z" class="cls-3"></path><path d="M325.2,803.4s16.5-5.7,41.2-49.2" class="cls-2"></path><path d="M324,799.9h.5l.8-.4,1.5-.8a22,22,0,0,0,3.2-2.1l3.1-2.3,1.5-1.2,1.5-1.3a132.9,132.9,0,0,0,11.1-11.4l5.1-6.2,4.9-6.5,4.7-6.6,4.5-6.8-3.7,7.3-4,7.1c-1.3,2.4-2.7,4.7-4.1,7s-2.9,4.6-4.5,6.9A138.7,138.7,0,0,1,340,795.6l-1.4,1.5-1.5,1.5-3.1,3-3.4,2.7-1.9,1.3-1,.6-.6.3-.3.2-.4.2a3.7,3.7,0,1,1-2.8-6.8Z" class="cls-3"></path><path d="M374.8,796.2a122.7,122.7,0,0,1-10.4,35.7c.7-.7,13.7-14.3,25.2-40.5.9-8.3.4-15.6-2.5-19.8A264.5,264.5,0,0,1,374.8,796.2Z" class="cls-4"></path><path d="M325.5,804.9a105.4,105.4,0,0,0,31.4-24.7c5.7-11.9,10.8-25.7,9.5-34.9,0,0-10.3,12.2-22.5,24.6A341.8,341.8,0,0,1,325.5,804.9Z" class="cls-4"></path><path d="M393.6,784s56.6,47.4,107.7,49.7S615.6,784,615.6,784l-.8-21.2L398,757.9Z" class="cls-8"></path><path d="M504.4,823.1a98,98,0,0,1-41.6-9.3c-39.1-18.4-91.4-50.1-118.4-96.4-16.2-27.6-27.8-64-34.7-108.2-5.5-35.1-8-75.3-7.5-119.4A1049.1,1049.1,0,0,1,312.9,353a3.5,3.5,0,0,1,2.6-2.9l187.9-53.8,1-.2,1,.2,187.9,53.8a3.8,3.8,0,0,1,2.6,2.9,1060.3,1060.3,0,0,1,10.6,136.8c.6,44.1-1.9,84.3-7.4,119.4-6.9,44.2-18.6,80.6-34.7,108.2-27.1,46.3-79.4,78-118.5,96.4A97.8,97.8,0,0,1,504.4,823.1Z" class="cls-7"></path><path d="M504.4,299.8l187.9,53.8s38.6,242.6-31.1,362c-27,46.1-79.9,77.5-116.8,94.9a94.3,94.3,0,0,1-80,0c-36.9-17.4-89.9-48.8-116.9-94.9-69.7-119.4-31-362-31-362l187.9-53.8m0-7.3-2.1.2L314.5,346.6a7.2,7.2,0,0,0-5.3,5.8,1081.9,1081.9,0,0,0-10.7,137.3c-.5,44.3,2,84.7,7.5,120.1,7,44.6,18.8,81.4,35.2,109.5,27.5,47.1,80.5,79.2,120,97.8a100.8,100.8,0,0,0,86.3,0c39.6-18.6,92.5-50.7,120-97.8,16.4-28.1,28.2-64.9,35.2-109.5,5.5-35.4,8-75.8,7.5-120.1a1081.9,1081.9,0,0,0-10.7-137.3,7.2,7.2,0,0,0-5.2-5.8L506.4,292.7l-2-.2Z" class="cls-3"></path><path d="M572.1,542s-26,20-28.6,54.4c0,0,34.2,37,76.7,31.6s48.3-30.1,48.3-30.1,10.4-40.3,1.4-50.8-76.7-15.7-76.7-15.7Z" class="cls-9"></path><path d="M697.3,510.1v.3C697.4,510.2,697.3,510.1,697.3,510.1Z" class="cls-10"></path><path d="M697.3,510.4c-.5.8-6.2,3.6-60.7,3.4-74.6-.3-86,36-86,36s12-13,55.8-16.5a226.9,226.9,0,0,1,59.3,3l.2,1.6s6.2,33.2-.8,55.8c-3.9,12.4-8,18.8-8,18.8,22.6-16.1,33.8-72.9,38.7-94.9C696.7,514,697.2,511.1,697.3,510.4Z" class="cls-10"></path><path d="M334.7,551.4s-4.6,39.6,8.8,50.2c0,0,83.3-20.5,123.3-.4,2.1,1.1-9-54.2-132.1-49.8Z" class="cls-10"></path><path d="M537,524.1l1.4-1.1,1.2-.9,2.4-1.6,4.8-2.8c3.2-1.7,6.5-3.2,9.8-4.6a134,134,0,0,1,20.1-6.4,191.1,191.1,0,0,1,41.1-4.6,278.1,278.1,0,0,1,40.8,3.1,352.6,352.6,0,0,1,39.6,8.4,360.7,360.7,0,0,0-40-4.8,280.7,280.7,0,0,0-40,.6,182.7,182.7,0,0,0-38.5,7.9,121.3,121.3,0,0,0-17.8,7.4q-4.2,2.3-8.1,4.8c-1.2.9-2.5,1.7-3.7,2.7l-1.7,1.3a2.7,2.7,0,0,1-.8.7l-.5.5a11.5,11.5,0,1,1-18-3.6Z" class="cls-3"></path><path d="M611.2,618.9a42.2,42.2,0,0,1-2.5-84.4h2.6a42.2,42.2,0,0,1,2.5,84.4Z" class="cls-11"></path><path d="M611.3,536.7a39.9,39.9,0,0,1,2.4,79.8h-2.5a39.9,39.9,0,0,1-2.4-79.7h2.5m0-4.6h-2.8a44.5,44.5,0,0,0,2.7,89h2.7a44.5,44.5,0,0,0-2.6-89Z" class="cls-3"></path><path d="M614.8,540.7l.5-2.8v2.9a3.6,3.6,0,0,0,6.9,1.4l1.2-2.6-.6,2.8a3.6,3.6,0,0,0,6.4,2.9l1.7-2.4-1.2,2.7a3.6,3.6,0,0,0,5.7,4.1l2.1-1.9-1.7,2.3a3.6,3.6,0,0,0,4.8,5.2l2.4-1.4-2.1,1.9a3.6,3.6,0,0,0,3.5,6.1l2.7-.9-2.4,1.4a3.6,3.6,0,0,0,2.1,6.7l2.9-.3-2.7.9a3.6,3.6,0,0,0,.7,7l2.8.3-2.8.3a3.6,3.6,0,0,0-.7,7l2.7.8-2.9-.3a3.6,3.6,0,0,0-2.1,6.7l2.4,1.5-2.7-.9a3.6,3.6,0,0,0-3.5,6.1l2.1,1.9-2.4-1.5a3.7,3.7,0,0,0-4.8,5.3l1.7,2.3-2.1-1.9a3.6,3.6,0,0,0-5.7,4.1l1.2,2.6-1.7-2.3a3.6,3.6,0,0,0-6.4,2.8l.6,2.9-1.2-2.7a3.6,3.6,0,0,0-6.9,1.5v2.9l-.5-2.8a3.6,3.6,0,0,0-7.1,0l-.6,2.8v-2.9a3.6,3.6,0,0,0-6.8-1.5l-1.2,2.7.6-2.9a3.6,3.6,0,0,0-6.4-2.8l-1.7,2.3,1.2-2.6a3.6,3.6,0,0,0-5.7-4.1l-2.2,1.9,1.7-2.3a3.6,3.6,0,0,0-4.7-5.3l-2.5,1.5,2.2-1.9a3.6,3.6,0,0,0-3.5-6.1l-2.8.9,2.5-1.5a3.6,3.6,0,0,0-2.1-6.7l-2.9.3,2.7-.8a3.6,3.6,0,0,0-.7-7l-2.9-.3,2.9-.3a3.6,3.6,0,0,0,.7-7l-2.7-.9,2.9.3a3.6,3.6,0,0,0,2.1-6.7l-2.5-1.4,2.8.9a3.6,3.6,0,0,0,3.5-6.1l-2.2-1.9,2.5,1.4a3.6,3.6,0,0,0,4.7-5.2l-1.7-2.3,2.2,1.9a3.6,3.6,0,0,0,5.7-4.1l-1.2-2.7,1.7,2.4a3.6,3.6,0,0,0,6.4-2.9l-.6-2.8,1.2,2.6a3.5,3.5,0,0,0,6.8-1.4v-2.9l.6,2.8A3.6,3.6,0,0,0,614.8,540.7Z" class="cls-12"></path><circle r="33.2" cy="573.6" cx="611.2" class="cls-3"></circle><circle r="10" cy="556.4" cx="589.1" class="cls-9"></circle><circle r="5.6" cy="595.1" cx="635" class="cls-9"></circle><path d="M546.1,555.8s12.3-33.5,73.4-29.7a45.5,45.5,0,0,0,13.3-17.8s2.1,12.6-3.2,18.6l8.6-.4s9.1-10.5,9.9-16.9c0,0,1.1,10.2-1.3,18.6l7.2-.3s9.9-5.4,11.6-13.6c0,0,.5,11-2.3,15.4l7.9.8s7.2-6.4,7.5-12.7a24.2,24.2,0,0,1-.1,15.1l2.3.8s8.1-3.8,11.4-9.8c0,0-4.4,16.5-17.4,23.9,0,0-30.5-11.1-60.9-9.9C572.3,539.5,546.1,555.8,546.1,555.8Z" class="cls-3"></path><path d="M565.2,541.6c-.4.1-15.4,11.1-21.7,47.9,0,0,14.7-48.4,38.4-51.6Z" class="cls-3"></path><path d="M666.8,543.5s10.8,59.5-36.3,84c0,0,52.6-6.9,47.9-84.7Z" class="cls-3"></path><path d="M461.6,534.7l-.5-.5-.8-.7-1.7-1.3c-1.2-1-2.4-1.8-3.7-2.7s-5.3-3.3-8.1-4.8a116.9,116.9,0,0,0-17.8-7.4,182.7,182.7,0,0,0-38.5-7.9,279.5,279.5,0,0,0-39.9-.6,362.4,362.4,0,0,0-40.1,4.8,359.1,359.1,0,0,1,39.7-8.4,275.7,275.7,0,0,1,40.7-3.1,191.1,191.1,0,0,1,41.1,4.6,135.2,135.2,0,0,1,20.2,6.4c3.3,1.4,6.5,2.9,9.7,4.6l4.8,2.8,2.4,1.6,1.2.9a9.2,9.2,0,0,1,1.4,1.1l7.9,6.9a11.5,11.5,0,1,1-18,3.7Z" class="cls-3"></path><path d="M492.4,649.5a57.8,57.8,0,0,0,9.3,5.5,18.8,18.8,0,0,0,8.7,1.9,24.7,24.7,0,0,0,8.9-2.2,70.8,70.8,0,0,0,9.6-5.2,15.9,15.9,0,0,1-2.4,5.5,19.5,19.5,0,0,1-4,4.6,18.7,18.7,0,0,1-5.4,3.3,20.3,20.3,0,0,1-6.5,1.3,16.7,16.7,0,0,1-6.6-1.1,18.2,18.2,0,0,1-5.5-3.4,19.5,19.5,0,0,1-3.9-4.7A15.5,15.5,0,0,1,492.4,649.5Z" class="cls-3"></path><path d="M486,782.7a63.6,63.6,0,0,0,12.3,5.6,33.9,33.9,0,0,0,12.1,1.8,44.1,44.1,0,0,0,12.3-2.1,81.9,81.9,0,0,0,12.5-5.3,20.9,20.9,0,0,1-4.2,6,26.7,26.7,0,0,1-5.9,4.6,28.3,28.3,0,0,1-6.9,3,27.9,27.9,0,0,1-7.6,1.1,27.2,27.2,0,0,1-20.5-8.6A19.3,19.3,0,0,1,486,782.7Z" class="cls-3"></path><path d="M510.6,751.5l-37.1-12.4S486.8,763,510.6,764c23.8-1,37.2-24.9,37.2-24.9Z" class="cls-13"></path><path d="M500.9,692.7c-10.5-.8-16.6,8.4-28.6,14.1s-15.1-1.7-15.1-1.7c.2,4.1,13.6,11,30.5,4.7s22.9-3.3,22.9-3.3V698S511.5,693.5,500.9,692.7Z" class="cls-13"></path><path d="M549,706.8c-12-5.7-18.1-14.9-28.7-14.1s-9.7,5.3-9.7,5.3v8.5s6.1-3.1,23,3.3,33.1.5,33.3-3.5C566.9,706.3,561,712.6,549,706.8Z" class="cls-13"></path><path d="M510.6,751.9c-31.3,0-53.8-38.6-54.8-40.2a3.9,3.9,0,0,1,.1-3.8,3.7,3.7,0,0,1,3.1-1.7h.3c.3,0,31.4,2.6,51.3,2.6s51-2.6,51.3-2.6h.3a3.6,3.6,0,0,1,3.1,1.7,3.7,3.7,0,0,1,.1,3.8C564.4,713.3,541.9,751.9,510.6,751.9Z" class="cls-9"></path><path d="M562.2,709.8h0m0,0s-22.1,38.4-51.6,38.4S459,709.8,459,709.8s31.3,2.7,51.6,2.7,51.6-2.7,51.6-2.7m0-7.3h-.7c-1.8.2-31.6,2.7-50.9,2.7s-50.6-2.6-51-2.7H459a7.5,7.5,0,0,0-6.2,3.4,7.4,7.4,0,0,0-.1,7.6c1,1.7,24.5,42.1,57.9,42.1s55.8-38.4,57.8-41.9a7.3,7.3,0,0,0-6.1-11.2Zm0,14.7Z" class="cls-3"></path><path d="M414.6,659.5c-.4,6.1.9,8.4,2.6,8.5s3.1-2,3.5-8.1-.6-15.9-2.2-16S414.9,653.4,414.6,659.5Z" class="cls-10"></path><path d="M391.7,658.3c-1.3,5.9-.4,8.4,1.3,8.7s3.4-1.5,4.7-7.5,1.8-15.7.2-16.1S392.9,652.3,391.7,658.3Z" class="cls-10"></path><path d="M368,650.2c-3.5,5-3.6,7.5-2.2,8.5s3.7,0,7.2-5.1,7.9-13.7,6.5-14.7S371.5,645.1,368,650.2Z" class="cls-10"></path><path d="M619.3,659.5c.3,6.1-.9,8.4-2.6,8.5s-3.2-2-3.5-8.1.5-15.9,2.2-16S619,653.4,619.3,659.5Z" class="cls-10"></path><path d="M642.2,658.3c1.2,5.9.3,8.4-1.3,8.7s-3.5-1.5-4.7-7.5-1.9-15.7-.2-16.1S640.9,652.3,642.2,658.3Z" class="cls-10"></path><path d="M665.9,650.2c3.4,5,3.6,7.5,2.2,8.5s-3.8,0-7.3-5.1-7.8-13.7-6.4-14.7S662.4,645.1,665.9,650.2Z" class="cls-10"></path><path d="M566.7,1020.1a4.3,4.3,0,0,1-3.8-2.2,4.4,4.4,0,0,1,.1-4.3c25.9-43.8,45.3-84.2,56.1-116.8a248.6,248.6,0,0,0,7.9-30.3,4.2,4.2,0,0,1,3.8-3.5h.4a4.3,4.3,0,0,1,4,2.7c.3.7,8.7,18.9,46.2,20.9,57.4,3,158.9,15.8,195.1,67.8,9.6,13.8,18.4,34.1,26.2,60.2a4.5,4.5,0,0,1-.6,3.9,4.3,4.3,0,0,1-3.5,1.7Z" class="cls-5"></path><path d="M631.2,867.2s8.9,21.4,50,23.6c49.2,2.6,155.5,13.8,191.7,65.9,9.7,13.9,18.3,34.2,25.7,59.1H566.7c23.2-39.2,44.4-81.1,56.5-117.7a227.7,227.7,0,0,0,8-30.9m0-8.8h-.8a8.8,8.8,0,0,0-7.7,7.2,221.8,221.8,0,0,1-7.7,29.7c-10.7,32.3-29.9,72.4-55.8,116a8.7,8.7,0,0,0,7.5,13H898.6a8.6,8.6,0,0,0,6.9-3.5,8.3,8.3,0,0,0,1.4-7.6c-8-26.6-17-47.3-26.9-61.5-37.2-53.5-140.2-66.6-198.3-69.6-33.4-1.8-41.8-16.9-42.5-18.3a8.4,8.4,0,0,0-8-5.5Z" class="cls-3"></path><rect rx="10.4" height="94.67" width="21.4" y="851" x="494.1" class="cls-5"></rect><path d="M505.2,855.1a6.3,6.3,0,0,1,6.2,6.3v73.8a6.3,6.3,0,0,1-6.2,6.3h-.6a6.3,6.3,0,0,1-6.3-6.3V861.4a6.3,6.3,0,0,1,6.3-6.3h.6m0-8.3h-.6A14.6,14.6,0,0,0,490,861.4v73.8a14.6,14.6,0,0,0,14.6,14.6h.6a14.5,14.5,0,0,0,14.5-14.6V861.4a14.6,14.6,0,0,0-14.5-14.6Z" class="cls-3"></path><path d="M504.9,1002.4a35.5,35.5,0,1,1,35.5-35.5A35.6,35.6,0,0,1,504.9,1002.4Z" class="cls-5"></path><path d="M504.9,935.5a31.4,31.4,0,1,1-31.4,31.4,31.4,31.4,0,0,1,31.4-31.4m0-8.2a39.6,39.6,0,1,0,39.6,39.6,39.6,39.6,0,0,0-39.6-39.6Z" class="cls-3"></path><path d="M504.9,987A20.2,20.2,0,1,1,525,966.9,20.2,20.2,0,0,1,504.9,987Z" class="cls-14"></path><path d="M504.9,949.5a17.4,17.4,0,1,1-17.4,17.4,17.4,17.4,0,0,1,17.4-17.4m0-5.5a22.9,22.9,0,1,0,22.9,22.9A22.9,22.9,0,0,0,504.9,944Z" class="cls-3"></path><circle r="5.1" cy="957.3" cx="504.9" class="cls-9"></circle><path d="M504.2,878.5c-39.8,0-77.4-8.2-111.9-24.3a4,4,0,0,1-2.3-4.4c1.1-7,2.1-14.7,2.8-22.7a4.2,4.2,0,0,1,1.9-3.2,4.3,4.3,0,0,1,2.2-.6l1.5.2c22.2,8.5,67.1,22.7,118,22.7,34.9,0,66.4-6.8,93.8-20.1a5.8,5.8,0,0,1,1.8-.4,4.2,4.2,0,0,1,2.1.6,4.1,4.1,0,0,1,2,3.3c.3,3.7,1,8.4,1.6,13s.9,7.1,1.2,10.2a4.2,4.2,0,0,1-2.5,4.3C600.7,863.5,558.6,878.5,504.2,878.5Z" class="cls-5"></path><path d="M396.9,827.4c20.8,7.9,67.1,22.9,119.5,22.9,31.1,0,64.3-5.3,95.6-20.4.5,6.7,2,16.1,2.8,23.3-19.1,7.9-60.3,21.2-110.6,21.2-33.9,0-72-6.1-110.1-23.9,1.1-6.9,2.1-14.6,2.8-23.1m0-8.3a8.7,8.7,0,0,0-4.4,1.3,8.6,8.6,0,0,0-3.9,6.3c-.6,8-1.6,15.5-2.7,22.4a8.3,8.3,0,0,0,4.7,8.9c35,16.4,73.2,24.7,113.6,24.7,55.1,0,97.9-15.3,113.7-21.8a8.3,8.3,0,0,0,5.1-8.5c-.3-3.2-.8-6.8-1.2-10.3s-1.3-9.2-1.5-12.9a8.1,8.1,0,0,0-4.2-6.5,8.4,8.4,0,0,0-4.1-1.1,9,9,0,0,0-3.6.8c-26.8,13-57.8,19.6-92,19.6-50.3,0-94.6-14-116.5-22.3a8,8,0,0,0-3-.6Z" class="cls-3"></path><path d="M124.3,1019.9a4.2,4.2,0,0,1-3.5-1.9,4.3,4.3,0,0,1-.5-4.1c28.9-72.4,74.1-112.2,134.4-118.4,110.6-11.2,121.9-35.1,122.6-37a4.1,4.1,0,0,1,3.7-3.8h.5a4.4,4.4,0,0,1,4.2,3.4c1.6,5.5,3.2,11,4.7,16.5,12.6,44,26.9,91.1,51.1,139a4.2,4.2,0,0,1-.1,4.2,4.4,4.4,0,0,1-3.7,2.1Z" class="cls-5"></path><path d="M381.6,859.2c1.5,5.6,3.1,11.1,4.7,16.6,13.3,46.7,27.5,92.6,51.4,139.7H124.3c25.1-62.7,65.8-109,130.8-115.7,122.6-12.4,126.5-40.6,126.5-40.6m0-8.6H381a8.6,8.6,0,0,0-7.8,6.5c-.9,1.7-14.4,23.5-119,34.1-61.9,6.4-108.3,47.1-137.9,121.1a8.7,8.7,0,0,0,.9,8.1,8.6,8.6,0,0,0,7.1,3.8H437.7a8.6,8.6,0,0,0,7.3-4.1,8.9,8.9,0,0,0,.4-8.5c-24.1-47.5-38.3-94.3-50.8-138.2-1.6-5.5-3.1-11-4.7-16.5a8.6,8.6,0,0,0-8.3-6.3Z" class="cls-3"></path><path d="M763.6,380.1c-31.6,0-68.4-23.3-93.7-59.3-17.2-24.3-27.3-51.5-28.5-76.6s7.1-46,23.3-57.5c8.7-6.1,19-9.2,30.7-9.2,31.6,0,68.5,23.3,93.8,59.3,17.1,24.3,27.2,51.5,28.4,76.6s-7.1,46-23.3,57.4A52.4,52.4,0,0,1,763.6,380.1Z" class="cls-5"></path><path d="M695.4,181.2c29.6,0,65.3,21.5,90.8,57.7,34.6,49.1,37.3,106.9,6,128.9-8.2,5.8-18,8.6-28.6,8.6-29.5,0-65.2-21.5-90.8-57.7-34.6-49.2-37.3-106.9-6-129,8.3-5.8,18.1-8.5,28.6-8.5m0-7.3h0c-12.4,0-23.5,3.3-32.8,9.8-17.3,12.2-26.1,33.7-24.8,60.7s11.5,53.6,29.1,78.5c12.8,18.3,28.7,33.7,45.9,44.4s34.7,16.4,50.8,16.4c12.5,0,23.5-3.3,32.9-9.9,17.2-12.1,26-33.7,24.8-60.6s-11.6-53.6-29.1-78.5c-12.9-18.4-28.8-33.7-46-44.5s-34.7-16.3-50.8-16.3Z" class="cls-3"></path><path d="M710.9,189.4a131.4,131.4,0,0,1,18.6,9.7,172.5,172.5,0,0,1,17.2,12.2,191.6,191.6,0,0,1,15.7,14.2,174.7,174.7,0,0,1,13.8,15.9,186.7,186.7,0,0,1,11.7,17.7l2.6,4.6c.8,1.6,1.6,3.1,2.3,4.7s1.6,3.2,2.3,4.8l2,4.9c.7,1.6,1.3,3.3,1.9,5s1.2,3.2,1.7,5l1.5,5,.4,1.3.3,1.3.6,2.5a133.1,133.1,0,0,1,3.3,20.7,204.1,204.1,0,0,0-13.2-39.3c-2.9-6.2-6.1-12.3-9.6-18.2a182.7,182.7,0,0,0-11.7-17A198.5,198.5,0,0,0,759,228.6a201.7,201.7,0,0,0-14.8-14.4c-5.1-4.6-10.5-9-16-13.1A201.8,201.8,0,0,0,710.9,189.4Z" class="cls-3"></path><path d="M246.9,541.6a3.9,3.9,0,0,1-3.7-4,3.8,3.8,0,0,1,3.4-3.7h.3a3.7,3.7,0,0,1,3.6,3.2h0a.6.6,0,0,1,.1.4,3.8,3.8,0,0,1-1.1,2.9,3.6,3.6,0,0,1-2.6,1.1Z" class="cls-2"></path><path d="M246.9,537.6h0v-.1m0-7.3h-.6a7.3,7.3,0,0,0-6.7,7.4,7.4,7.4,0,0,0,7.3,7.6,7.3,7.3,0,0,0,5.2-2.2,6.9,6.9,0,0,0,2.1-5.5v-.9h0a7.4,7.4,0,0,0-7.3-6.3Z" class="cls-3"></path><path d="M760.6,651.1h-.8a3.7,3.7,0,0,1-2.8-4.2c11.1-66.8,1.1-117.5-9.2-148.4A211.3,211.3,0,0,0,729.6,458c4.2,40.7,26.4,77.3,26.6,77.7a3.7,3.7,0,0,1,.2,3.4,3.8,3.8,0,0,1-2.8,2.1,44.9,44.9,0,0,1-7.3.6c-22.9,0-42.8-16.1-59.1-47.7-9-17.3-15.1-35.8-18.9-49.3,0,42.6,28.1,81.4,28.5,81.8a3.6,3.6,0,0,1,.1,4.1,3.6,3.6,0,0,1-3.1,1.7h-.7c-21.4-4.2-39-15.6-49.5-32.2-6.1-9.6-9.2-20.2-8.9-29.6-13.3,8.5-19.2,30.2-20.6,42.9a3.5,3.5,0,0,1-2,2.9,3.2,3.2,0,0,1-1.6.4,3.6,3.6,0,0,1-2-.6c-42.4-26.8-68.8-66.1-83.6-94.4a307.2,307.2,0,0,1-17.8-41.6c-3.4,13.4-9.6,24.4-29.3,36-33.2,28.3-32.3,59.3-31.7,81.9.1,4.3.2,8.3.1,11.9a3.9,3.9,0,0,1-1.5,2.8,3.5,3.5,0,0,1-2.2.8h-.8c-27.8-6.4-43.9-34.3-43.2-74-8.9,13.3-22.3,45.4-25.6,72.8a3.6,3.6,0,0,1-2.7,3.1h-.9a3.6,3.6,0,0,1-3-1.5c-8.6-11.6-10.1-30.5-9.8-50.3-6.2,9.5-14.9,31.8-24.4,83.9-7.4,41-11.6,80.8-11.7,81.2a3.6,3.6,0,0,1-3,3.2h-.6a3.6,3.6,0,0,1-3.3-2.1c-22.4-47.7-24.4-87.2-22.1-111.9.5-5.6,1.3-10.7,2.1-15.2-20.6,43.9-47.7,130-48.5,136.1a3.7,3.7,0,0,1-3.2,3.4h-.5a3.7,3.7,0,0,1-3.6-2.8,835.9,835.9,0,0,1-19.5-101.3c-13.2-105.5.6-192.6,41-258.9C294.3,221.9,341.5,193,374.8,179a183,183,0,0,1,30.4-10.2c32.8-7.9,65.1-12.2,95.9-12.7h6.2c92.5,0,169.9,33.2,230.3,98.8,39.2,42.5,58,109.9,56.2,200.2-2,96-26.8,183.6-29.6,193.3A3.8,3.8,0,0,1,760.6,651.1Z" class="cls-2"></path><path d="M507.3,159.7c77.4,0,159.7,23.9,227.6,97.7,45,48.8,56.7,125.3,55.2,197.7-2,98.5-28.6,189.4-29.5,192.3,21.8-131.1-35.3-202.6-35.3-202.6-.2,47.3,27.8,92.8,27.8,92.8a53.1,53.1,0,0,1-6.8.5c-57.8,0-78.3-112.9-79.6-112.9h0c-11.3,51.4,27.1,103.5,27.1,103.5-42.3-8.2-59.8-43.8-54.5-64.3-18.3,5.5-26.9,30.8-28.8,48.6-80.8-51.1-104-147.8-104-147.8-3.8,20.2-5.7,33.2-30.8,47.9-41.2,35-32.4,74-33.2,96.7-27.8-6.4-43.4-36.1-39.9-79.9-9.9,4.4-29.4,48.7-33.3,81.9-9.3-12.7-9.7-35.5-8.8-57.4-27,14.8-43.7,173.9-43.7,173.9-42.7-90.8-11.4-151.9-11.4-151.9-20.5,18.5-64.2,157.7-64.1,162.3a818.5,818.5,0,0,1-19.5-100.9C192,299.4,308.2,211,376.2,182.3a203.2,203.2,0,0,1,29.8-10c29.7-7.1,61.9-12,95.1-12.5h6.2m0-7.3v0H501c-31,.5-63.6,4.8-96.7,12.7a193.3,193.3,0,0,0-30.9,10.4,248.1,248.1,0,0,0-58.8,35.1,257.3,257.3,0,0,0-58.5,66.9c-40.8,67-54.8,154.9-41.5,261.2a821.6,821.6,0,0,0,19.6,101.8,7.3,7.3,0,0,0,7.1,5.5h1a7.4,7.4,0,0,0,6.3-6.7c.9-4.7,11.4-39.2,24.7-76.3,5.3-14.6,9.9-26.6,13.9-36.4a196.5,196.5,0,0,0,2.6,40.9,245.3,245.3,0,0,0,20.3,63.9,7.5,7.5,0,0,0,6.7,4.2H318a7.3,7.3,0,0,0,6.1-6.4c0-.4,4.2-40.1,11.6-81,4.4-23.8,8.9-43.4,13.6-58.1,1.3-4.2,2.6-7.9,3.8-11,.8,14.6,3.4,27.9,10.3,37.1a7.3,7.3,0,0,0,5.9,3l1.9-.2a7.5,7.5,0,0,0,5.4-6.3c1.7-14.3,6.6-32.1,13.5-48.8,1.8-4.3,3.5-8.1,5.1-11.3,1.1,13.2,4.1,24.9,9,34.7,8.1,15.8,20.7,26.1,36.7,29.7a4.1,4.1,0,0,0,1.6.2,7.2,7.2,0,0,0,7.3-7c.1-3.8,0-7.9-.1-12.2-.6-23-1.3-51.7,30.3-78.8,15.4-9.1,22.9-18.2,27.2-27.9a312.7,312.7,0,0,0,14.5,32.2,281.5,281.5,0,0,0,32.8,49.7,223.7,223.7,0,0,0,52.1,46.1,6.9,6.9,0,0,0,3.9,1.2,7.2,7.2,0,0,0,3.2-.8,7.4,7.4,0,0,0,4.1-5.8c1.4-12.7,6.1-27.1,13.7-35.6a60.6,60.6,0,0,0,9,23.9c11.1,17.4,29.5,29.5,51.9,33.8h1.4a7.3,7.3,0,0,0,5.9-11.7,166.9,166.9,0,0,1-16.4-29.9l.6,1.3c17.1,32.9,38,49.6,62.4,49.6a53.5,53.5,0,0,0,7.9-.6h.8c4.1,27.4,5,61.5-1.6,101.5a7.4,7.4,0,0,0,5.6,8.4h1.6a7.5,7.5,0,0,0,7.1-5.2c2.8-9.8,27.8-97.9,29.7-194.3,1.9-91.3-17.3-159.5-57.1-202.7-32.5-35.4-70.5-61.8-113-78.4-36.6-14.4-77-21.7-120-21.7ZM747.6,510.1a200.6,200.6,0,0,1-9.4-26.7c2.1,5,4.2,10.5,6.2,16.6,1.1,3.1,2.2,6.5,3.2,10.1Z" class="cls-3"></path><path d="M405.6,1017.3a513.2,513.2,0,0,1-19.1-56c-2.6-9.5-5-19.1-7.2-28.6s-4.1-19.3-5.6-29c2.2,9.6,4.9,19,7.7,28.4s5.9,18.7,9.2,27.9a542.2,542.2,0,0,0,22.8,53.8,4.3,4.3,0,1,1-7.7,3.8C405.7,1017.5,405.6,1017.4,405.6,1017.3Z" class="cls-3"></path><path d="M721.2,984.1a4.2,4.2,0,0,1-3.7-2.2c-.4-.8-9.3-18.2-3-36.1,3.2-9.3,8.7-15.7,15.4-17.8a3.2,3.2,0,0,1,1.3-.2,4.2,4.2,0,0,1,2.4.7,4.4,4.4,0,0,1,1.8,3.2,2.8,2.8,0,0,0,1.8,2.5h1a2.7,2.7,0,0,0,2.1-.9,4.1,4.1,0,0,1,3.1-1.4h.3a4,4,0,0,1,3.1,1.9c3.9,5.9,4.2,14.3,1,23.5-6.3,18-24.2,26-24.9,26.3A3.5,3.5,0,0,1,721.2,984.1Z" class="cls-15"></path><path d="M731.2,931.9a7.1,7.1,0,0,0,4.7,6.2,5.9,5.9,0,0,0,2.3.4,7.2,7.2,0,0,0,5.2-2.3c2.8,4.2,3.6,11.1.5,19.9-5.8,16.4-22.7,23.8-22.7,23.8s-8.6-16.3-2.8-32.8c3.1-8.8,8-13.6,12.8-15.2m0-8.3a8.2,8.2,0,0,0-2.6.4c-7.9,2.6-14.3,9.9-18,20.4-6.9,19.6,2.8,38.6,3.3,39.4a8.1,8.1,0,0,0,7.3,4.4,7.8,7.8,0,0,0,3.3-.7c.8-.3,20.3-9.1,27.2-28.7,3.7-10.5,3.2-20.2-1.4-27.2a8.3,8.3,0,0,0-6.3-3.7h-.6a8.3,8.3,0,0,0-4.4,1.2,8.1,8.1,0,0,0-3.1-4,8,8,0,0,0-4.7-1.5Z" class="cls-3"></path><path d="M713.6,984.8c-7.6,0-18.7-1.6-28.2-8.8-7.8-5.9-12.1-13.1-12.2-20.2a4,4,0,0,1,1.7-3.3,4.4,4.4,0,0,1,2.5-.8h1.8a2.7,2.7,0,0,0,2.2-1.1,2.7,2.7,0,0,0,.2-3.1,4.4,4.4,0,0,1-.2-3.7,4,4,0,0,1,2.7-2.4,18.6,18.6,0,0,1,4.8-.6c5.7,0,11.9,2.4,17.9,7,15.1,11.5,17.2,31,17.3,31.8a4.2,4.2,0,0,1-3.4,4.5,47.8,47.8,0,0,1-7.1.5Z" class="cls-15"></path><path d="M688.9,945.1c4.4,0,9.7,1.8,15.4,6.2,13.8,10.5,15.7,28.9,15.7,28.9a44.7,44.7,0,0,1-6.4.4c-6.5,0-17-1.2-25.7-7.9s-10.5-11.8-10.5-16.9a5.5,5.5,0,0,0,1.8.2,6.9,6.9,0,0,0,6-10.4,14.4,14.4,0,0,1,3.7-.5m0-8.3a23.3,23.3,0,0,0-5.9.8,8.3,8.3,0,0,0-5.5,4.8,9,9,0,0,0-.4,5.1,8.6,8.6,0,0,0-4.8,1.8,8.2,8.2,0,0,0-3.2,6.5c0,8.4,4.9,16.7,13.8,23.5,10.4,7.9,22.5,9.6,30.7,9.6a65.7,65.7,0,0,0,7.8-.5,8.3,8.3,0,0,0,6.8-9c-.1-.9-2.4-22.1-18.9-34.7-6.7-5.2-13.8-7.9-20.4-7.9Z" class="cls-3"></path><path d="M687.9,1019.2a17.9,17.9,0,0,1-5.7-.9,3.8,3.8,0,0,1-2.6-2.5,4.1,4.1,0,0,1,.4-3.6,3.1,3.1,0,0,0,0-3.2,3.1,3.1,0,0,0-2.4-1.2h-1.4a4.2,4.2,0,0,1-4.2-4.4c.4-7,5-14,13.1-19.6s19.1-7.5,26-7.5a49.6,49.6,0,0,1,9.6.9,4,4,0,0,1,3.2,4.6c-.1.9-3.1,20.2-18.7,31C699.3,1017.1,693.4,1019.2,687.9,1019.2Z" class="cls-15"></path><path d="M711.1,980.7a48.9,48.9,0,0,1,8.7.7s-2.6,18.3-17,28.2c-5.5,3.9-10.6,5.5-14.9,5.5a15,15,0,0,1-4.4-.7,7,7,0,0,0-.1-7.7,7,7,0,0,0-5.8-3h-1.4c.2-5.1,3.6-11.1,11.3-16.4s17.1-6.7,23.6-6.7m0-8.3c-7.5,0-18.5,1.4-28.3,8.2s-14.5,14.4-14.9,22.8a8.4,8.4,0,0,0,2.9,6.7,8.6,8.6,0,0,0,4.8,2,8.1,8.1,0,0,0,.1,5.1,8.4,8.4,0,0,0,5.3,5.1,22.2,22.2,0,0,0,6.9,1.1c6.3,0,13.1-2.4,19.7-7,17-11.8,20.3-32.9,20.4-33.8a8.2,8.2,0,0,0-6.4-9.3,55.3,55.3,0,0,0-10.5-.9Z" class="cls-3"></path><path d="M717,1019.7a4.3,4.3,0,0,1-4-2.9l-.3-1.1c-3.9-12.8-.1-25.1,2.5-31.3a44.8,44.8,0,0,1,2.2-4.5,4.1,4.1,0,0,1,3.6-2.1,3.9,3.9,0,0,1,1.8.4,60.9,60.9,0,0,1,5.7,3.6c6.3,4.5,14.6,12.3,18,23.8a39.6,39.6,0,0,1,1.7,9.8,4.2,4.2,0,0,1-1.2,3,4.2,4.2,0,0,1-3,1.3Z" class="cls-15"></path><path d="M721,981.9a52,52,0,0,1,5.1,3.2c5.3,3.8,13.2,11,16.4,21.7a29.4,29.4,0,0,1,1.5,8.7H717l-.3-.9c-3.5-11.6-.1-22.8,2.4-28.6a28.9,28.9,0,0,1,1.9-4.1m0-8.2a8.2,8.2,0,0,0-7.2,4.1c-.1.2-1.1,2-2.4,5-2.8,6.7-6.9,20-2.7,34.1.1.4.3.8.4,1.2a8.3,8.3,0,0,0,7.9,5.7h27a8.2,8.2,0,0,0,8.3-8.5,44.3,44.3,0,0,0-1.8-10.9c-3.8-12.6-12.7-21.1-19.5-26-3.5-2.4-6-3.7-6.3-3.9a8.3,8.3,0,0,0-3.7-.8Z" class="cls-3"></path><path d="M752.5,999.4h-1.1c-19-.4-32.1-14.9-32.7-15.5a4.2,4.2,0,0,1,.2-5.7c.5-.6,13.9-14,32.5-14h.8c9.9.2,17.6,3.5,21.7,9.2a4.2,4.2,0,0,1,.7,3.6,4.4,4.4,0,0,1-2.5,2.7,2.7,2.7,0,0,0-1.8,2.5,2.8,2.8,0,0,0,1.7,2.7,4.1,4.1,0,0,1,2.3,2.8,4.2,4.2,0,0,1-.8,3.6c-4.2,5.3-11.7,8.2-21,8.2Z" class="cls-15"></path><path d="M751.4,968.2h.7c9.4.2,15.5,3.4,18.5,7.5a6.9,6.9,0,0,0-4.4,6.3,7,7,0,0,0,4.1,6.6c-3.1,3.8-9,6.6-17.8,6.6h-1c-17.4-.4-29.7-14.2-29.7-14.2s12.5-12.8,29.6-12.8m0-8.3c-20.3,0-34.9,14.7-35.5,15.3a8.3,8.3,0,0,0-.3,11.3c.6.7,14.9,16.5,35.7,17h1.2c10.6,0,19.2-3.5,24.3-9.7a8.5,8.5,0,0,0,1.6-7.2,8.8,8.8,0,0,0-2.7-4.3,9.2,9.2,0,0,0,2.9-4.3,8.5,8.5,0,0,0-1.3-7.2c-4.9-6.7-13.8-10.6-25-10.9Z" class="cls-3"></path><line y2="982.1" x2="753.1" y1="979.7" x1="725.9" class="cls-16"></line><line y2="949.1" x2="732.8" y1="974.8" x1="723.7" class="cls-16"></line><line y2="961.3" x2="694.5" y1="976.2" x1="718.5" class="cls-16"></line><line y2="997.9" x2="698.2" y1="980.5" x1="718.6" class="cls-16"></line><line y2="1010" x2="729.1" y1="982.9" x1="721.9" class="cls-16"></line><path d="M721.7,989.2a11.3,11.3,0,0,1-3.6-.6,11,11,0,0,1-6.7-14,10.9,10.9,0,0,1,10.3-7.3,11.5,11.5,0,0,1,3.7.6,11.3,11.3,0,0,1,6.2,5.6,10.9,10.9,0,0,1-9.9,15.7Z" class="cls-17"></path><path d="M721.7,970.1a8.1,8.1,0,0,1,7.8,10.9,8.3,8.3,0,0,1-7.8,5.4,8.4,8.4,0,0,1-2.7-.4,8.2,8.2,0,0,1,2.7-15.9m0-5.6h0a13.7,13.7,0,0,0-12.3,19.7,13.5,13.5,0,0,0,7.8,7,14.2,14.2,0,0,0,4.5.8,13.9,13.9,0,0,0,13-9.2,13.8,13.8,0,0,0-8.4-17.5,14.4,14.4,0,0,0-4.6-.8Z" class="cls-3"></path><path d="M790.8,238.5l1.9-2.8,2.1-2.7c1.3-1.7,2.7-3.4,4.2-5,3-3.2,6.1-6.2,9.3-9.1a124.2,124.2,0,0,1,21.3-14.7,121.2,121.2,0,0,1,11.5-5.5l6-2.3,6.1-2a140.8,140.8,0,0,1,24.9-5,143.1,143.1,0,0,0-24.3,6.7l-5.8,2.4c-1.9.9-3.9,1.7-5.7,2.7-3.8,1.9-7.4,4-10.9,6.2a116.1,116.1,0,0,0-19.3,15.5,118.6,118.6,0,0,0-8.2,9.3,56,56,0,0,0-3.6,4.9l-1.7,2.5-1.4,2.5h0a3.7,3.7,0,0,1-5,1.5,3.5,3.5,0,0,1-1.5-4.9C790.7,238.7,790.8,238.6,790.8,238.5Z" class="cls-3"></path><path d="M241.3,638.8s-27.7-143.6,5.9-235.2" class="cls-2"></path><path d="M237.2,639.6c-1.7-9.9-2.9-19.8-4.1-29.7s-2-19.8-2.8-29.7c-1.4-19.8-2.1-39.7-1.8-59.6a473.4,473.4,0,0,1,4.4-59.4c1.4-9.8,3.2-19.6,5.5-29.2a233.2,233.2,0,0,1,8.8-28.4,257.1,257.1,0,0,0-7.8,28.6c-2,9.7-3.3,19.5-4.5,29.3a466.5,466.5,0,0,0-2.2,59.1q.6,29.7,3.9,59.1c1.1,9.8,2.3,19.5,3.8,29.3s3.1,19.5,5,29h0a4.1,4.1,0,0,1-3.3,4.9,4.2,4.2,0,0,1-4.9-3.2Z" class="cls-3"></path><path d="M244.7,636.9s2.1-154.4,39-218" class="cls-2"></path><path d="M240.1,636.8c.8-18.8,2.2-37.3,4.1-55.9s4.2-37.1,7.2-55.5c1.5-9.2,3.2-18.4,5.1-27.5s4.1-18.2,6.5-27.2,5.4-17.9,8.7-26.6a145.5,145.5,0,0,1,12-25.2,148.1,148.1,0,0,0-10.9,25.6c-3,8.8-5.4,17.7-7.5,26.7s-3.9,18.2-5.4,27.3-2.8,18.3-4,27.5q-3.3,27.6-4.9,55.4c-1,18.5-1.7,37.1-1.7,55.5h0a4.6,4.6,0,0,1-9.2,0Z" class="cls-3"></path><path d="M316.8,628.4S305.4,476.5,339.9,415" class="cls-2"></path><path d="M313.1,628.7c-.9-18.2-1.1-36.3-.9-54.5s1.1-36.2,2.6-54.3c.8-9,1.7-18,2.9-27s2.7-17.9,4.6-26.8a248.4,248.4,0,0,1,6.9-26.3A129.9,129.9,0,0,1,339.9,415c-4.3,7.9-7.3,16.5-9.9,25.1a239.4,239.4,0,0,0-5.9,26.4,458.9,458.9,0,0,0-5.7,53.7c-.9,18-1,36-.7,54s1.2,36.1,2.7,53.9h0a3.5,3.5,0,0,1-3.3,3.9,3.7,3.7,0,0,1-4-3.3Z" class="cls-3"></path><path d="M368.8,515.3s0-94.3,40.8-157.6" class="cls-2"></path><path d="M365.1,515.3c.2-7.1.8-13.9,1.4-20.8s1.6-13.8,2.6-20.6c2.1-13.7,4.8-27.2,8.2-40.6a315.8,315.8,0,0,1,13-39.2c2.7-6.4,5.6-12.6,8.8-18.7a196.2,196.2,0,0,1,10.5-17.7c-3.5,5.9-6.8,11.9-9.7,18.1s-5.5,12.5-7.9,19a295,295,0,0,0-11.1,39.4,390.1,390.1,0,0,0-6.3,40.4c-.7,6.8-1.3,13.6-1.7,20.4s-.6,13.6-.5,20.3h0a3.8,3.8,0,0,1-3.6,3.8,3.7,3.7,0,0,1-3.7-3.7Z" class="cls-3"></path><path d="M445.4,513.3S409.6,471.1,428,369.5" class="cls-2"></path><path d="M442.6,515.7l-.4-.6-.4-.5-.7-1.1-1.3-2c-.9-1.4-1.6-2.9-2.4-4.3s-2.9-5.7-4.1-8.6-2.2-6-3.3-8.9a20.2,20.2,0,0,1-.7-2.3l-.7-2.3-1.3-4.5a195.7,195.7,0,0,1-5.6-37.1c-.1-3.1-.3-6.2-.3-9.3v-14l.4-4.7.6-9.2c.1-1.6.3-3.1.5-4.7l.6-4.6,1.1-9.2,3.3-18.3-2.4,18.4-.7,9.3-.3,4.6c-.1,1.5-.3,3-.3,4.6l-.2,9.2v4.6c0,1.6.1,3.1.1,4.6l.4,9.3c.2,3,.5,6.1.8,9.1a181.3,181.3,0,0,0,7.2,35.9l1.4,4.3.8,2.1a13.1,13.1,0,0,0,.8,2.1c1.2,2.8,2.2,5.7,3.6,8.3a76,76,0,0,0,4.2,8l2.3,3.7,1.3,1.8.6.8.3.4.3.3v.2a3.6,3.6,0,0,1-.4,5.1,3.6,3.6,0,0,1-5.2-.4Z" class="cls-3"></path><path d="M611.9,515.3S575.4,461.1,578,386.7" class="cls-2"></path><path d="M608.9,517.3l-2.2-3.8-2.1-3.8c-1.3-2.5-2.5-5.1-3.8-7.6s-2.4-5.2-3.5-7.8l-1.6-4c-.6-1.3-1.1-2.6-1.6-3.9s-2.1-5.3-2.9-8l-2.7-8.1-2.4-8.2c-.4-1.3-.7-2.7-1.1-4.1l-1-4.1-.9-4.2-.9-4.1c-.5-2.8-1.1-5.6-1.5-8.4-.8-5.6-1.7-11.1-2.1-16.8l-.4-4.2c-.1-1.4-.2-2.8-.2-4.2l-.3-8.4v-8.5l.2-8.4.2,8.4v8.4l.7,8.4c.1,1.4.3,2.8.5,4.2l.6,4.1c.7,5.6,1.9,11,3,16.5.6,2.8,1.3,5.5,2,8.2l1,4,1.2,4,1.2,4c.4,1.4.8,2.7,1.3,4l2.7,7.9,3.1,7.8c1,2.6,2.2,5.1,3.3,7.6s1.1,2.6,1.7,3.8l1.8,3.8c1.2,2.5,2.5,4.9,3.8,7.4l4.1,7.2,2.2,3.5,2.2,3.3h0a3.6,3.6,0,0,1-.9,5.1,3.7,3.7,0,0,1-5.1-.9C609,517.4,608.9,517.4,608.9,517.3Z" class="cls-3"></path><path d="M695,531.4s-57.7-36.1-54.5-150.5" class="cls-2"></path><path d="M693,534.5l-1.2-.9-1.1-.8-2.1-1.8-4-3.7c-2.6-2.5-5-5.1-7.3-7.8a146.4,146.4,0,0,1-12.1-17.4,151.1,151.1,0,0,1-9.4-18.9c-1.4-3.2-2.6-6.5-3.8-9.8s-2.2-6.6-3.2-10-1.8-6.7-2.6-10.1l-1.1-5.1-.6-2.6-.4-2.5-.9-5.2c-.3-1.7-.5-3.4-.7-5.1-.6-3.5-.9-6.9-1.2-10.4a287.6,287.6,0,0,1-.8-41.5,284.6,284.6,0,0,0,2.6,41.3c.5,3.4,1,6.8,1.6,10.2.3,1.7.6,3.4,1,5.1l1.1,5,.5,2.5.7,2.5,1.3,5c1,3.3,1.9,6.6,3,9.8s2.3,6.5,3.5,9.7,2.7,6.3,4.2,9.4a154.9,154.9,0,0,0,9.9,17.8,120.2,120.2,0,0,0,12.3,16.1,93.9,93.9,0,0,0,7.1,7l3.8,3.2L695,527l1,.7.9.6h0a3.7,3.7,0,0,1-3.7,6.3Z" class="cls-3"></path><path d="M753.6,541s-55.4-35.2-61.3-132.1" class="cls-2"></path><path d="M751.6,544.1l-2.1-1.6-1.9-1.5-3.7-3.3a87.3,87.3,0,0,1-6.8-6.8,156.4,156.4,0,0,1-12-14.9,181.5,181.5,0,0,1-9.9-16.3,166.9,166.9,0,0,1-8-17.2c-2.4-5.9-4.4-11.9-6.2-17.9s-3.3-12.2-4.4-18.4a246.3,246.3,0,0,1-4.3-37.3,257,257,0,0,0,6,37c1.5,6,3.3,12,5.3,17.9s4.3,11.6,6.9,17.2a160.3,160.3,0,0,0,8.7,16.4,142.1,142.1,0,0,0,10.4,15.3,132.8,132.8,0,0,0,12.1,13.8c2.2,2.1,4.4,4.2,6.8,6.1s2.3,1.9,3.5,2.8l1.8,1.3,1.7,1.2h.1a3.7,3.7,0,0,1-3.8,6.3Z" class="cls-3"></path><path d="M757,646.6c2.1-8.3,3.8-17.1,5.3-25.7.7-4.3,1.4-8.7,2-13l.9-6.6.4-3.2.4-3.3.7-6.6c.2-2.2.5-4.3.6-6.5.4-4.4.8-8.8,1.1-13.2l.7-13.2c.2-2.2.2-4.4.2-6.6l.2-6.6V522.2c-.1-2.2,0-4.4-.2-6.6-.4-8.8-.6-17.6-1.5-26.4-1.3-17.7-4.1-35.1-7.2-52.6,3.7,17.3,7.1,34.8,9,52.4,1.2,8.8,1.7,17.6,2.5,26.5.2,2.2.2,4.4.3,6.6l.3,6.7.3,6.6v13.3c0,2.2.1,4.5,0,6.7l-.2,13.3-.6,13.3c-.1,2.2-.3,4.5-.5,6.7l-.4,6.6-.3,3.4-.3,3.3-.7,6.6c-.4,4.4-1,8.9-1.6,13.3-1.2,8.8-2.5,17.6-4.4,26.5a3.8,3.8,0,0,1-4.4,2.8,3.7,3.7,0,0,1-2.8-4.4h0Z" class="cls-3"></path><path d="M394.2,169c5,.7,9.8,1.6,14.6,2.7s9.6,2.4,14.3,3.9a178.8,178.8,0,0,1,27.4,10.7q6.6,3.3,12.9,7.2a128.2,128.2,0,0,1,11.8,8.7,92.8,92.8,0,0,1,10.4,10.4,83,83,0,0,1,8.2,12.1,82.2,82.2,0,0,0-8.9-11.5,88.5,88.5,0,0,0-10.8-9.5,103.7,103.7,0,0,0-12.1-7.8,129.6,129.6,0,0,0-13-6.3,173.4,173.4,0,0,0-27.3-8.7c-4.7-1.1-9.4-2.1-14.1-2.9s-9.5-1.4-14.1-1.7h-.1a3.7,3.7,0,0,1-3.4-3.9,3.7,3.7,0,0,1,3.9-3.4Z" class="cls-3"></path><path d="M467.9,154.7l3.2,1.2,3,1.3a65.4,65.4,0,0,1,5.9,3,70.9,70.9,0,0,1,10.6,7.6,45.5,45.5,0,0,1,8.3,9.8,35.2,35.2,0,0,1,4.7,11.8,35.4,35.4,0,0,0-6.1-10.7,43.7,43.7,0,0,0-9.2-8,57,57,0,0,0-10.7-5.5c-1.9-.8-3.8-1.4-5.7-2l-2.9-.8-2.8-.6a3.6,3.6,0,1,1,1.1-7.2h.6Z" class="cls-3"></path><path d="M437.2,159.1a90,90,0,0,1,9.6,3.2c3.2,1.1,6.2,2.4,9.3,3.8a127.4,127.4,0,0,1,17.4,9.5c2.8,1.9,5.4,3.8,8,5.9a93.3,93.3,0,0,1,7.3,6.8,76,76,0,0,1,6.2,7.6,60,60,0,0,1,4.7,8.6,54.1,54.1,0,0,0-5.5-8,62.5,62.5,0,0,0-6.7-6.9c-2.5-2.1-5-4.1-7.6-5.9s-5.5-3.4-8.3-4.9a110,110,0,0,0-17.6-7.6c-3-1.1-6-2-9.1-2.8a80.8,80.8,0,0,0-9.2-2.1h-.1a3.5,3.5,0,0,1-2.9-4.2,3.6,3.6,0,0,1,4.2-3Z" class="cls-3"></path><path d="M620.9,179.9l-6.7.7-6.8.9c-4.5.8-8.9,1.7-13.4,2.8a158.4,158.4,0,0,0-26,8.6,118,118,0,0,0-12.3,6.2,120,120,0,0,0-11.4,7.7,80.7,80.7,0,0,0-10.1,9.3,82,82,0,0,0-8.4,11,80.5,80.5,0,0,1,7.7-11.6,83.2,83.2,0,0,1,9.6-10.1,134.2,134.2,0,0,1,11.2-8.7c3.9-2.6,8-4.9,12.1-7.1A165.1,165.1,0,0,1,592.6,179c4.5-1.4,9-2.7,13.6-3.7q3.4-.9,6.9-1.5l7.2-1.2a3.8,3.8,0,0,1,4.1,3.2,3.7,3.7,0,0,1-3.2,4.1h-.3Z" class="cls-3"></path><path d="M555.5,163.3a18.4,18.4,0,0,0-3,.7l-3,.8q-3,.9-6,2.1a63,63,0,0,0-11.3,5.7,47.4,47.4,0,0,0-5.1,3.7,39.2,39.2,0,0,0-4.6,4.5,33.1,33.1,0,0,0-3.8,5.2,38.8,38.8,0,0,0-2.8,5.8,38.3,38.3,0,0,1,2-6.3,40.2,40.2,0,0,1,3.1-5.8,44.5,44.5,0,0,1,4.2-5.3,54.4,54.4,0,0,1,4.8-4.8,71.8,71.8,0,0,1,11.2-7.7c1.9-1.1,3.9-2.1,6-3.1l3.1-1.4,3.4-1.2h0a3.6,3.6,0,0,1,4.6,2.3,3.7,3.7,0,0,1-2.3,4.7Z" class="cls-3"></path><path d="M583.9,168.7c-3,.5-6.2,1.3-9.2,2.1s-6.2,1.8-9.2,2.8a129.8,129.8,0,0,0-17.6,7.6c-2.8,1.5-5.5,3.2-8.2,5a84.7,84.7,0,0,0-7.6,5.8,88.4,88.4,0,0,0-6.8,6.9,57.6,57.6,0,0,0-5.5,8.1,65.3,65.3,0,0,1,4.8-8.6A65.9,65.9,0,0,1,538.1,184a78.6,78.6,0,0,1,8-5.9,122.3,122.3,0,0,1,17.4-9.6c3-1.4,6.1-2.6,9.2-3.8s6.2-2.2,9.6-3.2a3.6,3.6,0,0,1,4.5,2.6,3.6,3.6,0,0,1-2.5,4.5Z" class="cls-3"></path><path d="M357.4,560.2a141.3,141.3,0,0,1,14.6-.8q7.3-.1,14.7.3a183.1,183.1,0,0,1,29.3,4.2,113.8,113.8,0,0,1,28.5,10.4,70.8,70.8,0,0,1,12.9,9.2,80.9,80.9,0,0,1,5.6,6.1c.8,1.2,1.6,2.3,2.3,3.5l2.1,3.8a6,6,0,0,1-2.5,8.1,5.8,5.8,0,0,1-6.1-.3h-.3l-1-.7-1.2-.7-2.6-1.3-2.7-1.2c-.9-.4-1.8-.9-2.7-1.2s-3.7-1.5-5.6-2.1l-2.9-.9-2.9-.9a136.1,136.1,0,0,0-23.9-4.4l-6.2-.3-3-.2h-9.4l-6.2.4-3.1.2-3.1.3-6.3.7-3.2.5-3.1.5-6.4,1,5.9-2.7,3-1.2c1-.4,2-.9,3-1.2l6.2-2,3.1-1,3.1-.7,6.4-1.5c2.1-.4,4.3-.6,6.5-.9l3.2-.5,3.3-.2,6.6-.4a112.2,112.2,0,0,1,26.4,2.7l3.2.7,3.3.9,6.4,2.1,3.1,1.3,3.2,1.3,3.1,1.6,1.5.8,1.7,1-8.8,7.7a35.9,35.9,0,0,0-7.3-9.7,64.1,64.1,0,0,0-10.5-7.9,99.2,99.2,0,0,0-12.2-6.1c-4.2-1.9-8.6-3.4-13.1-5s-9-2.8-13.6-4-9.2-2.4-13.9-3.5C376.4,563.8,367,562,357.4,560.2Z" class="cls-3"></path><line y2="909" x2="504.9" y1="877.8" x1="504.9" class="cls-16"></line><path d="M760.6,647.4c21.8-131.1-35.3-202.6-35.3-202.6-.2,47.3,27.8,92.8,27.8,92.8-63.5,9.4-85.4-114.3-86.4-112.3-11.3,51.4,27.1,103.5,27.1,103.5-42.3-8.2-59.8-43.8-54.5-64.3-18.3,5.5-26.9,30.8-28.8,48.6-80.8-51.1-104-147.8-104-147.8-3.8,20.2-5.7,33.2-30.8,47.9-41.2,35-32.4,74-33.2,96.7-27.8-6.4-43.4-36.1-39.9-79.9-9.9,4.4-29.4,48.7-33.3,81.9-9.3-12.7-9.7-35.5-8.8-57.4-27,14.8-43.7,173.9-43.7,173.9-42.7-90.8-11.4-151.9-11.4-151.9-20.5,18.5-64.2,157.7-64.1,162.3a818.5,818.5,0,0,1-19.5-100.9c10.9-43.6,29.2-97,56.4-117,0,0-26.3,56.6-17.7,100.3,0,0,20.7-74.6,66.6-92.6,0,0-20.5,54.6-11.3,102.8,0,0,9.4-79,49.1-112.9,0,0,1.9,19.8,8.8,38.2,0,0,10.7-30.5,40-47.8,0,0-.2,35.1,12.5,57.7,0,0,12.1-60.6,44.8-78.4s33.4-49.9,33.4-49.9,44.2,86.2,78.5,127.2c3.8,4.6,3.2-31.3-4.9-50.7-2-5,33.2,26.2,37.5,65,0,0,7.1-33.8,27.9-36.3,0,0-1.8,22.3,18.1,42,0,0-19.8-77.2,4.5-94,0,0,23.6,73.7,51.3,99.9,0,0,1.2-50.5-2.2-74.5,0,0,42.9,26,56.3,79.8,0,0,15.1-29.3,11-57.4,0,0,3.3,5.9,7.7,15.8C788.1,553.6,761.5,644.5,760.6,647.4Z" class="cls-4"></path><path d="M485.4,172.6c15,8.9,17.1,40,17.1,40-19.4-31.4-63.6-40-63.6-40,71.9,31,61.5,68.8,61.5,68.8-20-32.7-87-51.1-124.2-59.1a203.2,203.2,0,0,1,29.8-10c29.7-7.1,61.9-12,95.1-12.5,7.6,14.4,5.3,33.1,5.3,33.1C504.2,181.6,486.5,173.2,485.4,172.6Z" class="cls-4"></path><path d="M527.9,172.6c-15,8.9-17.1,40-17.1,40,19.4-31.4,63.6-40,63.6-40-71.9,31-61.5,68.8-61.5,68.8,20-32.7,87.1-51.1,124.2-59.1a199.3,199.3,0,0,0-29.8-10c-29.6-7.1-61.8-12-95.1-12.5-7.6,14.4-5.3,33.1-5.3,33.1C509.2,181.6,526.8,173.2,527.9,172.6Z" class="cls-4"></path><path d="M643.4,214.9c9.3,2.1,18.2,5.9,26.8,10.2a169.3,169.3,0,0,1,24.5,15.6A185.6,185.6,0,0,1,734.4,283a232,232,0,0,1,14.5,25.2,215.2,215.2,0,0,1,10.7,26.9,227,227,0,0,1,10.9,56.4c-4.3-18.6-9.4-36.9-16.3-54.5l-1.3-3.3-.6-1.6-.7-1.7-2.8-6.4c-.9-2.2-2-4.3-3-6.4l-1.6-3.2c-.5-1-1-2.1-1.6-3.1l-3.3-6.2a30.7,30.7,0,0,0-1.7-3.1l-1.8-3-1.8-3.1-1.9-2.9c-1.2-2-2.5-4-3.8-5.9a215.2,215.2,0,0,0-37.2-41.9,205.3,205.3,0,0,0-22.6-17A158.5,158.5,0,0,0,643.4,214.9Z" class="cls-3"></path><path d="M364.1,210.9a161.7,161.7,0,0,0-24.1,15,209.7,209.7,0,0,0-21.5,18.3,216.7,216.7,0,0,0-34.4,44.3l-3.5,6.1c-.5,1.1-1.1,2.1-1.6,3.1l-1.6,3.2-1.6,3.1a18.7,18.7,0,0,0-1.5,3.2l-2.9,6.4a18.3,18.3,0,0,0-1.4,3.2l-1.4,3.3c-.8,2.2-1.8,4.3-2.5,6.5l-2.4,6.7-.6,1.7-.5,1.6-1.1,3.4a382,382,0,0,0-12.7,55.5,229.7,229.7,0,0,1,7.2-57.1,205,205,0,0,1,8.9-27.5,210.8,210.8,0,0,1,12.9-26.1A184.6,184.6,0,0,1,314.6,240,177.4,177.4,0,0,1,338,222.9C346.3,218,354.9,213.6,364.1,210.9Z" class="cls-3"></path></g></g></svg>