<?xml version="1.0" encoding="utf-8"?>
<!-- Generator: Adobe Illustrator 24.0.0, SVG Export Plug-In . SVG Version: 6.00 Build 0)  -->
<svg version="1.1" id="图层_1" xmlns="http://www.w3.org/2000/svg" xmlns:xlink="http://www.w3.org/1999/xlink" x="0px" y="0px"
	 viewBox="0 0 500 500" style="enable-background:new 0 0 500 500;" xml:space="preserve">
<style type="text/css">
	.st0{fill:#D6B579;}
	.st1{fill:#BBB0A5;}
</style>
<g>
	<g>
		<path class="st0" d="M230.4,111.4c0.2-0.2,0.5-0.1,0.4,0.2c-1.9,5.8-8.7,29.5,4.1,39.2c14.7,11,22.1,7.4,25.8,22.1
			c3.7,14.7-10.1,36.1-10.1,36.1s6.5-21.3-0.9-32.4C242.4,165.6,186.5,168.5,230.4,111.4z"/>
		<path class="st1" d="M250.2,209.7l0.3-0.8c0.1-0.2,6.4-21.4-0.9-32.3c-1.8-2.7-6.6-4.6-12.1-6.7c-9-3.5-20.3-7.9-23.1-18.1
			c-2.7-9.7,2.5-23,16-40.5l0,0c0.1-0.2,0.3-0.2,0.5-0.1c0.1,0.1,0.2,0.2,0.2,0.4c-0.9,2.8-3.1,10.2-3.5,18.1
			c-0.4,9.8,2.1,16.8,7.6,20.9c5.2,3.9,9.6,6,13.1,7.7c6.4,3.1,10.3,4.9,12.7,14.5c3.7,14.6-10,35.9-10.2,36.2L250.2,209.7z
			 M230.5,111.5L230.5,111.5c-13.4,17.5-18.7,30.6-16,40.3c2.8,10.1,14,14.4,23,17.9c5.6,2.2,10.4,4,12.3,6.8
			c6.5,9.7,2.2,27.6,1.1,31.6c2.4-3.9,12.9-22.3,9.7-35.2c-2.4-9.4-6.2-11.2-12.6-14.3c-3.5-1.7-7.9-3.8-13.1-7.7
			c-5.5-4.1-8.1-11.2-7.7-21.1c0.3-7.9,2.5-15.4,3.5-18.2c0,0,0-0.1,0-0.1C230.6,111.5,230.6,111.5,230.5,111.5z"/>
	</g>
	<g>
		<path class="st0" d="M184.1,126.4c0.1-0.2,0.5-0.2,0.5,0c0.2,6.1,1.9,30.7,17.3,35.4c17.6,5.3,23.3-0.6,31.8,11.9
			c8.5,12.6,2.8,37.4,2.8,37.4s-1.2-22.3-11.9-30.1C213.9,173.2,162.4,195,184.1,126.4z"/>
		<path class="st1" d="M236.4,212l0-0.9c0-0.2-1.3-22.3-11.9-30c-2.6-1.9-7.8-2-13.7-2.1c-9.7-0.2-21.8-0.5-27.9-9.1
			c-5.9-8.2-5.5-22.4,1.2-43.5v0c0.1-0.2,0.3-0.3,0.4-0.3c0.2,0,0.3,0.1,0.3,0.3c0.1,3,0.6,10.7,2.9,18.2c3,9.4,7.8,15.1,14.3,17.1
			c6.3,1.9,11.1,2.4,14.9,2.7c7.1,0.7,11.4,1.1,16.9,9.2c8.4,12.5,2.9,37.2,2.8,37.5L236.4,212z M184.3,126.4
			c-6.7,21-7.1,35.2-1.2,43.3c6.1,8.5,18.1,8.8,27.7,9c6,0.1,11.2,0.2,13.8,2.2c9.4,6.9,11.5,25.1,11.9,29.3
			c0.9-4.5,4.5-25.3-3-36.4c-5.4-8-9.7-8.4-16.7-9.1c-3.9-0.4-8.7-0.8-15-2.8c-6.6-2-11.4-7.8-14.4-17.2c-2.4-7.5-2.9-15.3-2.9-18.3
			c0,0,0-0.1-0.1-0.1C184.4,126.3,184.3,126.4,184.3,126.4L184.3,126.4z"/>
	</g>
	<g>
		<path class="st0" d="M145.8,156.3c0-0.3,0.3-0.4,0.4-0.1c2.3,5.7,12.3,28.2,28.4,27.4c18.4-1,21.6-8.6,33.9,0.4
			s15.4,34.1,15.4,34.1s-8.8-20.5-21.5-24.2C189.7,190.1,148.8,228.2,145.8,156.3z"/>
		<path class="st1" d="M224.1,218.9l-0.3-0.8c-0.1-0.2-8.9-20.5-21.4-24.2c-3.1-0.9-8,0.7-13.6,2.7c-9.2,3.1-20.6,7-29.3,1
			c-8.3-5.7-12.8-19.2-13.8-41.3l0,0c0-0.2,0.1-0.4,0.3-0.4c0.2,0,0.3,0,0.4,0.2c1.1,2.8,4.2,9.9,9,16.1c6,7.8,12.5,11.5,19.2,11.2
			c6.6-0.4,11.2-1.6,15-2.5c6.9-1.8,11.1-2.9,19,2.9c12.2,8.8,15.4,34,15.5,34.2L224.1,218.9z M200.3,193.4c0.8,0,1.4,0.1,2.1,0.3
			c11.2,3.3,19.4,19.7,21.2,23.5c-0.7-4.5-4.4-25.3-15.2-33.2c-7.8-5.7-12-4.6-18.8-2.9c-3.8,1-8.5,2.2-15,2.5
			c-6.9,0.4-13.4-3.4-19.5-11.3c-4.8-6.3-7.9-13.4-9-16.2c0,0,0-0.1-0.1,0c0,0-0.1,0.1-0.1,0.1l0,0c0.9,22,5.4,35.5,13.7,41.1
			c8.6,5.9,20,2,29.1-1.1C193.2,194.8,197.3,193.4,200.3,193.4z"/>
	</g>
	<g>
		<path class="st0" d="M119.9,197.5c-0.1-0.2,0.2-0.5,0.4-0.3c4.1,4.6,21.2,22.3,36,16c16.9-7.2,17.4-15.4,32-11.3
			c14.6,4.2,26.2,26.8,26.2,26.8s-15.2-16.3-28.5-15.4C172.8,214.2,147.3,264.1,119.9,197.5z"/>
		<path class="st1" d="M151.1,232.2c-1.4,0-2.8-0.2-4.3-0.5c-9.8-2.5-18.6-13.7-27.1-34.1l0,0c-0.1-0.2,0-0.4,0.2-0.5
			c0.1-0.1,0.3-0.1,0.4,0.1c2,2.2,7.3,7.8,14,12.1c8.3,5.3,15.6,6.6,21.9,3.9c6-2.6,10-5.3,13.2-7.5c5.9-4,9.4-6.5,18.9-3.8
			c14.5,4.1,26.1,26.7,26.2,26.9l0.4,0.8l-0.6-0.6c-0.2-0.2-15.4-16.2-28.4-15.4c-3.2,0.2-7.2,3.4-11.9,7.2
			C167.6,225.9,159.7,232.2,151.1,232.2z M120,197.5c8.4,20.4,17.2,31.5,26.9,34c10.1,2.6,19.5-4.9,27-11c4.7-3.8,8.7-7,12-7.2
			c11.6-0.8,25,11.8,28,14.8c-2.2-4-12.8-22.3-25.7-26c-9.3-2.7-12.8-0.3-18.7,3.7c-3.2,2.2-7.2,4.9-13.3,7.5
			c-6.3,2.7-13.8,1.4-22.1-3.9c-6.7-4.2-12-9.9-14-12.1c0,0,0,0-0.1,0C120,197.3,120,197.4,120,197.5L120,197.5z"/>
	</g>
	<g>
		<path class="st0" d="M109.7,245.1c-0.2-0.2,0-0.5,0.2-0.4c5.4,2.9,27.6,13.7,39.3,2.7c13.4-12.6,11.1-20.5,26.2-21.5
			c15.1-1.1,33.7,16.3,33.7,16.3s-19.9-10.1-32-4.7C165.1,242.7,158.3,298.2,109.7,245.1z"/>
		<path class="st1" d="M144.9,268c-9.7,0-21.3-7.5-35.3-22.9l0,0c-0.1-0.2-0.1-0.4,0-0.5c0.1-0.1,0.3-0.2,0.4-0.1
			c2.6,1.4,9.5,4.9,17.2,6.6c9.6,2.1,17,0.8,21.9-3.8c4.8-4.5,7.6-8.4,9.9-11.6c4.2-5.8,6.7-9.3,16.4-10c15-1.1,33.7,16.1,33.8,16.3
			l0.6,0.6l-0.8-0.4c-0.2-0.1-20-10-31.9-4.7c-3,1.3-5.6,5.7-8.7,10.8c-5,8.3-11.3,18.6-21.8,19.7C146.1,268,145.6,268,144.9,268z
			 M109.8,245c14.9,16.3,26.9,23.7,36.9,22.7c10.4-1,16.6-11.3,21.6-19.5c3.1-5.1,5.8-9.6,8.8-10.9c10.7-4.7,27.5,2.6,31.4,4.4
			c-3.4-3-19.7-16.6-33-15.6c-9.7,0.7-12.2,4.2-16.3,9.9c-2.3,3.2-5.1,7.1-9.9,11.6c-5,4.7-12.5,6-22.1,3.9
			c-7.7-1.7-14.7-5.2-17.3-6.6c0,0-0.1,0-0.1,0C109.8,244.9,109.8,244.9,109.8,245L109.8,245z"/>
	</g>
	<g>
		<path class="st0" d="M116.4,293.3c-0.2-0.1-0.2-0.5,0.1-0.5c6.1,0.9,30.6,3.5,37.9-10.9c8.3-16.4,3.4-23,17.3-29.2
			c13.9-6.2,37.3,3.7,37.3,3.7s-22.1-2.7-31.7,6.5C167.7,272.1,180.2,326.6,116.4,293.3z"/>
		<path class="st1" d="M149.5,304.1c-8.5,0-19.4-3.6-33.1-10.7c-0.2-0.1-0.2-0.3-0.2-0.5c0.1-0.2,0.2-0.2,0.4-0.2
			c2.9,0.4,10.6,1.3,18.4,0.3c9.7-1.3,16.2-5,19.3-11.1c3-5.9,4.3-10.5,5.3-14.2c1.9-6.9,3.1-11,12-15c13.7-6.1,37.1,3.6,37.4,3.7
			l0.8,0.3l-0.9-0.1c-0.2,0-22.2-2.6-31.6,6.5c-2.3,2.2-3.3,7.3-4.5,13.1c-1.9,9.5-4.2,21.4-13.8,25.9
			C156.3,303.4,153.1,304.1,149.5,304.1z M116.5,292.9C116.5,292.9,116.4,292.9,116.5,292.9c-0.1,0.1-0.1,0.2,0,0.2l0,0
			c19.5,10.2,33.4,13.1,42.4,8.7c9.4-4.5,11.8-16.3,13.6-25.8c1.2-5.9,2.2-11,4.6-13.3c8.4-8.1,26.7-7,31-6.6
			c-4.2-1.7-24.2-8.9-36.4-3.4c-8.9,4-10,8.1-11.9,14.9c-1,3.7-2.3,8.4-5.3,14.3c-3.1,6.1-9.7,9.9-19.5,11.2
			C127.2,294.2,119.5,293.4,116.5,292.9C116.5,292.9,116.5,292.9,116.5,292.9z"/>
	</g>
	<g>
		<path class="st0" d="M139.2,336.2c-0.3,0-0.3-0.4-0.1-0.5c6-1.2,29.9-7.2,31.9-23.2c2.2-18.3-4.7-22.8,6.2-33.4
			c10.9-10.5,36.3-9.2,36.3-9.2s-21.7,5.1-27.6,17C180.1,298.8,210.5,345.8,139.2,336.2z"/>
		<path class="st1" d="M156.3,337.6c-5.1,0-10.8-0.4-17.2-1.3l0,0c-0.2,0-0.3-0.2-0.3-0.4c0-0.2,0.1-0.3,0.3-0.3
			c2.9-0.6,10.4-2.4,17.4-6.1c8.7-4.5,13.5-10.3,14.3-17c0.8-6.5,0.4-11.3,0.1-15.2c-0.6-7.1-0.9-11.4,6.2-18.2
			c10.8-10.5,36.1-9.3,36.4-9.3l0.9,0l-0.9,0.2c-0.2,0-21.7,5.2-27.5,16.9c-1.4,2.9-0.6,8,0.3,13.9c1.5,9.6,3.3,21.5-4.1,29.1
			C177.2,335.1,168.7,337.6,156.3,337.6z M139.2,336.1c21.8,2.9,35.9,0.8,42.9-6.3c7.3-7.5,5.5-19.3,4-28.9c-0.9-5.9-1.7-11-0.2-14
			c5.2-10.5,22.7-15.7,26.8-16.8c-4.6-0.1-25.7-0.1-35.3,9.2c-7,6.7-6.6,11-6.1,18c0.3,3.9,0.7,8.7-0.1,15.2
			c-0.8,6.8-5.7,12.6-14.5,17.2c-7,3.7-14.6,5.5-17.5,6.1c0,0-0.1,0-0.1,0.1C139.1,336,139.1,336.1,139.2,336.1L139.2,336.1z"/>
	</g>
	<g>
		<path class="st0" d="M175.3,368.9c-0.3,0.1-0.4-0.3-0.2-0.4c5.2-3.2,25.7-17,22-32.7c-4.2-17.9-12.2-19.8-5.5-33.5
			c6.6-13.6,31-21.1,31-21.1s-18.7,12.2-20.1,25.4C200.9,319.7,245.6,353.4,175.3,368.9z"/>
		<path class="st1" d="M175.2,369c-0.2,0-0.3-0.1-0.4-0.2c-0.1-0.2,0-0.3,0.1-0.4c2.5-1.6,9-5.8,14.3-11.6
			c6.6-7.2,9.2-14.3,7.7-20.9c-1.5-6.4-3.5-10.8-5.1-14.3c-3-6.5-4.7-10.4-0.4-19.2c6.6-13.5,30.8-21.1,31-21.2l0.8-0.3l-0.7,0.5
			c-0.2,0.1-18.6,12.3-20.1,25.3c-0.4,3.2,2.1,7.7,5,12.9c4.7,8.5,10.5,19.1,6.1,28.7C209.4,357.4,196.9,364.2,175.2,369L175.2,369
			C175.3,369,175.3,369,175.2,369z M221.7,281.6c-4.3,1.5-24.2,8.7-30,20.8c-4.2,8.7-2.5,12.6,0.4,19c1.6,3.5,3.6,8,5.1,14.4
			c1.6,6.7-1,13.8-7.7,21.1c-5.3,5.8-11.8,10.1-14.4,11.7c0,0-0.1,0,0,0.1c0,0,0.1,0.1,0.2,0.1l0,0c21.5-4.7,34-11.5,38.1-20.6
			c4.3-9.5-1.5-20-6.1-28.5c-2.9-5.3-5.4-9.8-5-13.1C203.5,295,218.3,284,221.7,281.6z"/>
	</g>
	<g>
		<path class="st0" d="M220.4,387.1c-0.2,0.1-0.5-0.1-0.3-0.3c3.8-4.8,18.3-24.8,9.5-38.2c-10.1-15.4-18.2-14.5-16.7-29.6
			s21.9-30.4,21.9-30.4s-13.4,17.8-10.2,30.7C227.6,332.2,281.1,348.6,220.4,387.1z"/>
		<path class="st1" d="M220.2,387.3c-0.1,0-0.2-0.1-0.3-0.1c-0.1-0.1-0.1-0.3,0-0.4c1.8-2.3,6.5-8.6,9.5-15.8
			c3.7-9.1,3.8-16.6,0-22.2c-3.6-5.5-7-8.9-9.7-11.7c-5-5.1-8-8.2-7-17.9c1.6-15,21.7-30.3,21.9-30.5l0.7-0.5l-0.5,0.7
			c-0.1,0.2-13.3,17.9-10.2,30.6c0.8,3.2,4.6,6.5,9.1,10.5c7.3,6.4,16.4,14.3,15.6,24.9c-0.8,10.1-10.2,20.7-28.9,32.6h0
			C220.4,387.3,220.3,387.3,220.2,387.3z M234.1,289.3c-3.6,2.9-19.7,16.5-21.1,29.8c-1,9.6,2,12.7,6.9,17.7
			c2.7,2.8,6.1,6.2,9.7,11.8c3.8,5.8,3.8,13.3,0,22.5c-3,7.3-7.6,13.6-9.5,15.9c0,0,0,0.1,0,0.1c0,0,0.1,0.1,0.2,0h0
			c18.6-11.8,28-22.4,28.8-32.4c0.8-10.4-8.2-18.3-15.5-24.7c-4.5-3.9-8.4-7.4-9.2-10.6C221.6,308,231.7,292.7,234.1,289.3z"/>
	</g>
	<g>
		<path class="st0" d="M269,388.9c-0.2,0.2-0.5,0.1-0.4-0.2c1.9-5.8,8.7-29.5-4.1-39.2c-14.7-11-22.1-7.4-25.8-22.1
			c-3.7-14.7,10.1-36.1,10.1-36.1s-6.5,21.3,0.9,32.4C257,334.8,312.9,331.9,269,388.9z"/>
		<path class="st1" d="M268.8,389.1c-0.1,0-0.1,0-0.2,0c-0.1-0.1-0.2-0.2-0.2-0.4c0.9-2.8,3.1-10.2,3.5-18.1
			c0.4-9.8-2.1-16.8-7.6-20.9c-5.2-3.9-9.6-6-13.1-7.7c-6.4-3.1-10.3-4.9-12.7-14.5c-3.7-14.6,10-35.9,10.2-36.2l0.5-0.7l-0.3,0.8
			c-0.1,0.2-6.4,21.4,0.9,32.3c1.8,2.7,6.6,4.6,12.1,6.7c9,3.5,20.3,7.9,23.1,18.1c2.7,9.7-2.5,23-16,40.5l0,0
			C269,389.1,268.9,389.1,268.8,389.1z M248.5,292.2c-2.4,3.9-12.9,22.3-9.7,35.2c2.4,9.4,6.2,11.2,12.6,14.3
			c3.5,1.7,7.9,3.8,13.1,7.7c5.5,4.1,8.1,11.2,7.7,21.1c-0.3,7.9-2.5,15.4-3.5,18.2c0,0,0,0.1,0,0.1c0,0,0.1,0,0.2,0l0,0
			c13.4-17.5,18.7-30.6,16-40.3c-2.8-10.1-14-14.4-23-17.9c-5.6-2.2-10.4-4-12.3-6.8C243.1,314.1,247.4,296.3,248.5,292.2z"/>
	</g>
	<g>
		<path class="st0" d="M315.3,374c-0.1,0.2-0.5,0.2-0.5,0c-0.2-6.1-1.9-30.7-17.3-35.4c-17.6-5.3-23.3,0.6-31.8-11.9
			c-8.5-12.6-2.8-37.4-2.8-37.4s1.2,22.3,11.9,30.1C285.5,327.2,337,305.3,315.3,374z"/>
		<path class="st1" d="M315,374.3C315,374.3,315,374.3,315,374.3c-0.2,0-0.3-0.2-0.3-0.3c-0.1-3-0.6-10.7-2.9-18.2
			c-3-9.4-7.8-15.1-14.3-17.1c-6.3-1.9-11.1-2.4-14.9-2.7c-7.1-0.7-11.4-1.1-16.9-9.2c-8.4-12.5-2.9-37.2-2.8-37.5l0.2-0.9l0,0.9
			c0,0.2,1.3,22.3,11.9,30c2.6,1.9,7.8,2,13.7,2.1c9.7,0.2,21.8,0.5,27.9,9.1c5.9,8.2,5.5,22.4-1.2,43.5l0,0
			C315.3,374.2,315.2,374.3,315,374.3z M262.9,290.1c-0.9,4.5-4.5,25.3,3,36.4c5.4,8,9.7,8.4,16.7,9.1c3.9,0.4,8.7,0.8,15,2.8
			c6.6,2,11.4,7.8,14.4,17.2c2.4,7.5,2.9,15.3,2.9,18.3c0,0,0,0.1,0.1,0.1c0,0,0.1,0,0.1-0.1v0c6.7-21,7.1-35.2,1.2-43.3
			c-6.1-8.5-18.1-8.8-27.7-9c-6-0.1-11.2-0.2-13.8-2.2C265.4,312.5,263.3,294.3,262.9,290.1z"/>
	</g>
	<g>
		<path class="st0" d="M353.7,344.1c0,0.3-0.3,0.4-0.4,0.1c-2.3-5.7-12.3-28.2-28.4-27.4c-18.4,1-21.6,8.6-33.9-0.4
			c-12.3-8.9-15.4-34.1-15.4-34.1s8.8,20.5,21.5,24.2C309.7,310.3,350.6,272.1,353.7,344.1z"/>
		<path class="st1" d="M353.4,344.5c-0.1,0-0.2-0.1-0.3-0.2c-1.1-2.8-4.2-9.9-9-16.1c-6-7.8-12.5-11.5-19.2-11.2
			c-6.6,0.4-11.2,1.6-15,2.5c-6.9,1.8-11.1,2.9-19-2.9c-12.2-8.8-15.4-34-15.5-34.2l-0.1-0.9l0.3,0.8c0.1,0.2,8.9,20.5,21.4,24.2
			c3.1,0.9,8-0.7,13.6-2.7c9.2-3.1,20.6-7,29.3-1c8.3,5.7,12.8,19.2,13.8,41.3l0,0C353.8,344.3,353.6,344.4,353.4,344.5
			C353.4,344.5,353.4,344.5,353.4,344.5z M325.8,316.7c6.5,0,12.8,3.8,18.5,11.3c4.8,6.3,7.9,13.4,9,16.2c0,0,0,0.1,0.1,0
			c0,0,0.1-0.1,0.1-0.1l0,0c-0.9-22-5.4-35.5-13.7-41.1c-8.6-5.9-20-2-29.1,1.1c-5.7,1.9-10.6,3.6-13.8,2.7
			c-11.2-3.3-19.4-19.7-21.2-23.5c0.7,4.5,4.4,25.3,15.2,33.2c7.8,5.7,12,4.6,18.8,2.9c3.8-1,8.5-2.2,15-2.5
			C325.2,316.7,325.5,316.7,325.8,316.7z"/>
	</g>
	<g>
		<path class="st0" d="M379.5,302.8c0.1,0.2-0.2,0.5-0.4,0.3c-4.1-4.6-21.2-22.3-36-16c-16.9,7.2-17.4,15.4-32,11.3
			S285,271.6,285,271.6s15.2,16.3,28.5,15.4C326.6,286.1,352.1,236.3,379.5,302.8z"/>
		<path class="st1" d="M379.3,303.3c-0.1,0-0.2,0-0.2-0.1c-2-2.2-7.3-7.8-14-12.1c-8.3-5.3-15.6-6.6-21.9-3.9
			c-6,2.6-10,5.3-13.2,7.5c-5.9,4-9.4,6.5-18.9,3.8c-14.5-4.1-26.1-26.7-26.2-26.9l-0.4-0.8l0.6,0.6c0.1,0.2,14.6,15.4,27.4,15.4
			c0.3,0,0.7,0,1,0c3.2-0.2,7.2-3.4,11.9-7.2c7.6-6.1,17-13.6,27.2-11c9.8,2.5,18.6,13.7,27.1,34.1l0,0c0.1,0.2,0,0.4-0.2,0.5
			C379.4,303.3,379.3,303.3,379.3,303.3z M349.8,285.6c4.7,0,9.8,1.8,15.4,5.3c6.7,4.2,12,9.9,14,12.1c0,0,0,0,0.1,0
			c0,0,0.1-0.1,0.1-0.2l0,0c-8.4-20.4-17.2-31.5-26.9-34c-10.1-2.6-19.5,4.9-27,11c-4.7,3.8-8.7,7-12,7.2c-11.7,0.7-25-11.8-28-14.8
			c2.2,4,12.8,22.3,25.7,26c9.3,2.7,12.8,0.3,18.7-3.7c3.2-2.2,7.2-4.9,13.3-7.5C345.2,286.1,347.5,285.6,349.8,285.6z"/>
	</g>
	<g>
		<path class="st0" d="M389.7,255.3c0.2,0.2,0,0.5-0.2,0.4c-5.4-2.9-27.6-13.7-39.3-2.7c-13.4,12.6-11.1,20.5-26.2,21.5
			s-33.7-16.3-33.7-16.3s19.9,10.1,32,4.7C334.3,257.7,341.1,202.1,389.7,255.3z"/>
		<path class="st1" d="M322.6,274.6c-14.8,0-32.3-16.2-32.5-16.3l-0.6-0.6l0.8,0.4c0.2,0.1,20,10,31.9,4.7c3-1.3,5.6-5.7,8.7-10.8
			c5-8.3,11.3-18.6,21.8-19.7c10-1,22.2,6.5,37.1,22.8l0,0c0.1,0.2,0.1,0.4,0,0.5c-0.1,0.1-0.3,0.2-0.4,0.1
			c-2.6-1.4-9.5-4.9-17.2-6.6c-9.6-2.1-17-0.8-21.9,3.8c-4.8,4.5-7.6,8.4-9.9,11.6c-4.2,5.8-6.7,9.3-16.4,10
			C323.5,274.6,323,274.6,322.6,274.6z M290.9,258.7c3.3,2.9,18.6,15.7,31.7,15.7c0.5,0,0.9,0,1.3,0c9.7-0.7,12.2-4.2,16.3-9.9
			c2.3-3.2,5.1-7.1,9.9-11.6c5-4.7,12.5-6,22.1-3.9c7.7,1.7,14.7,5.2,17.3,6.6c0,0,0.1,0,0.1,0c0,0,0-0.1,0-0.2l0,0
			c-14.9-16.3-26.9-23.7-36.9-22.7c-10.4,1-16.6,11.3-21.6,19.5c-3.1,5.1-5.8,9.6-8.8,10.9C311.6,267.8,294.7,260.5,290.9,258.7z"/>
	</g>
	<g>
		<path class="st0" d="M383,207.1c0.2,0.1,0.2,0.5-0.1,0.5c-6.1-0.9-30.6-3.5-37.9,10.9c-8.3,16.4-3.4,23-17.3,29.2
			c-13.9,6.2-37.3-3.7-37.3-3.7s22.1,2.7,31.7-6.5C331.7,228.3,319.2,173.8,383,207.1z"/>
		<path class="st1" d="M316.7,249.8c-12.5,0-26.1-5.7-26.3-5.8l-0.8-0.3l0.9,0.1c0.2,0,22.2,2.6,31.6-6.5c2.3-2.2,3.3-7.3,4.5-13.1
			c1.9-9.5,4.2-21.4,13.8-25.9c9.1-4.4,23.1-1.5,42.7,8.7c0.2,0.1,0.2,0.3,0.2,0.5c-0.1,0.2-0.2,0.3-0.4,0.2
			c-2.9-0.4-10.6-1.3-18.4-0.3c-9.7,1.3-16.2,5-19.3,11.1c-3,5.9-4.3,10.5-5.3,14.2c-1.9,6.9-3.1,11-12,15
			C324.5,249.2,320.7,249.8,316.7,249.8z M291.3,244.1c4.2,1.7,24.2,8.9,36.4,3.4c8.9-3.9,10-8.1,11.9-14.9c1-3.7,2.3-8.4,5.3-14.3
			c3.1-6.1,9.7-9.9,19.5-11.2c7.8-1,15.6-0.2,18.5,0.3c0,0,0.1,0,0.1-0.1c0,0,0-0.1-0.1-0.2l0,0c-19.5-10.2-33.4-13.1-42.4-8.7
			c-9.4,4.5-11.8,16.3-13.6,25.8c-1.2,5.9-2.2,11-4.6,13.3C313.8,245.6,295.5,244.5,291.3,244.1z"/>
	</g>
	<g>
		<path class="st0" d="M360.2,164.1c0.3,0,0.3,0.4,0.1,0.5c-6,1.2-29.9,7.2-31.9,23.2c-2.2,18.3,4.7,22.8-6.2,33.4
			c-10.9,10.5-36.3,9.2-36.3,9.2s21.7-5.1,27.6-17C319.3,201.6,288.9,154.6,360.2,164.1z"/>
		<path class="st1" d="M288.4,230.5c-1.5,0-2.5,0-2.5,0l-0.9,0l0.9-0.2c0.2-0.1,21.7-5.2,27.5-16.9c1.4-2.9,0.6-8-0.3-13.9
			c-1.5-9.6-3.3-21.5,4.1-29.1c7.1-7.2,21.2-9.3,43.1-6.4l0,0c0.2,0,0.3,0.2,0.3,0.4c0,0.2-0.1,0.3-0.3,0.3
			c-2.9,0.6-10.4,2.4-17.4,6.1c-8.7,4.5-13.5,10.3-14.3,17c-0.8,6.5-0.4,11.3-0.1,15.2c0.6,7.1,0.9,11.4-6.2,18.2
			C313.5,229.7,295.1,230.5,288.4,230.5z M286.7,230.2c4.6,0.1,25.7,0.1,35.3-9.2c7-6.7,6.6-11,6.1-18c-0.3-3.9-0.7-8.7,0.1-15.2
			c0.8-6.8,5.7-12.6,14.5-17.2c7-3.7,14.6-5.5,17.5-6.1c0,0,0.1,0,0.1-0.1c0,0,0-0.1-0.1-0.1c-21.8-2.9-35.9-0.8-42.9,6.3
			c-7.3,7.5-5.5,19.3-4,28.9c0.9,5.9,1.7,11,0.2,14C308.4,223.9,290.8,229.1,286.7,230.2z"/>
	</g>
	<g>
		<path class="st0" d="M324.1,131.5c0.3-0.1,0.4,0.3,0.2,0.4c-5.2,3.2-25.7,17-22,32.7c4.2,17.9,12.2,19.8,5.5,33.5
			c-6.6,13.6-31,21.1-31,21.1s18.7-12.2,20.1-25.4C298.5,180.7,253.8,147,324.1,131.5z"/>
		<path class="st1" d="M276.1,219.5l0.7-0.5c0.2-0.1,18.6-12.3,20.1-25.3c0.4-3.2-2.1-7.7-5-12.9c-4.7-8.5-10.5-19.1-6.1-28.7
			c4.2-9.2,16.7-16,38.3-20.7l0,0c0.2,0,0.4,0.1,0.4,0.2c0.1,0.2,0,0.3-0.1,0.4c-2.5,1.6-9,5.8-14.3,11.6
			c-6.6,7.2-9.2,14.3-7.7,20.9c1.5,6.4,3.5,10.8,5.1,14.3c3,6.5,4.7,10.4,0.4,19.2c-6.6,13.5-30.8,21.1-31,21.2L276.1,219.5z
			 M324.1,131.6c-21.5,4.7-34,11.5-38.1,20.6c-4.3,9.5,1.5,20,6.1,28.5c2.9,5.3,5.4,9.8,5,13.1c-1.3,11.6-16,22.5-19.5,25
			c4.3-1.5,24.2-8.7,30-20.8c4.2-8.7,2.5-12.6-0.4-19c-1.6-3.5-3.6-8-5.1-14.4c-1.6-6.7,1-13.8,7.7-21.1
			c5.3-5.8,11.8-10.1,14.4-11.7c0,0,0.1,0,0-0.1C324.3,131.7,324.2,131.6,324.1,131.6L324.1,131.6z"/>
	</g>
	<g>
		<path class="st0" d="M279,113.2c0.2-0.1,0.5,0.1,0.3,0.3c-3.8,4.8-18.3,24.8-9.5,38.2c10.1,15.4,18.2,14.5,16.7,29.6
			c-1.6,15.1-21.9,30.4-21.9,30.4s13.4-17.8,10.2-30.7C271.8,168.2,218.3,151.8,279,113.2z"/>
		<path class="st1" d="M264,212.4l0.5-0.7c0.1-0.2,13.3-17.9,10.2-30.6c-0.8-3.2-4.6-6.5-9.1-10.5c-7.3-6.4-16.4-14.3-15.6-24.9
			c0.8-10.1,10.2-20.7,28.9-32.6l0,0c0.2-0.1,0.4-0.1,0.5,0.1c0.1,0.1,0.1,0.3,0,0.4c-1.8,2.3-6.5,8.6-9.5,15.8
			c-3.7,9.1-3.8,16.6,0,22.2c3.6,5.5,7,8.9,9.7,11.7c5,5.1,8,8.2,7,17.9c-1.6,15-21.7,30.3-21.9,30.5L264,212.4z M279.2,113.3
			C279.1,113.3,279.1,113.3,279.2,113.3L279.2,113.3c-18.7,11.8-28.1,22.4-28.8,32.4c-0.8,10.4,8.2,18.3,15.5,24.7
			c4.5,3.9,8.4,7.4,9.2,10.6c2.8,11.3-7.3,26.7-9.7,30.1c3.6-2.8,19.7-16.5,21.1-29.8c1-9.6-2-12.7-6.9-17.7
			c-2.7-2.8-6.1-6.2-9.7-11.8c-3.8-5.8-3.8-13.3,0-22.5c3-7.3,7.6-13.6,9.5-15.9c0,0,0-0.1,0-0.1
			C279.3,113.3,279.2,113.3,279.2,113.3z"/>
	</g>
	<g>
		<circle class="st0" cx="249.7" cy="250.2" r="44.2"/>
		<path class="st1" d="M249.7,294.5c-24.4,0-44.3-19.9-44.3-44.3s19.9-44.3,44.3-44.3c24.4,0,44.3,19.9,44.3,44.3
			S274.1,294.5,249.7,294.5z M249.7,206.1c-24.3,0-44,19.8-44,44s19.8,44,44,44c24.3,0,44-19.8,44-44S274,206.1,249.7,206.1z"/>
	</g>
</g>
</svg>
